<?xml version="1.0" encoding="UTF-8" standalone="no"?>
<!DOCTYPE svg PUBLIC "-//W3C//DTD SVG 1.1//EN" "http://www.w3.org/Graphics/SVG/1.1/DTD/svg11.dtd">
<svg width="100%" height="100%" viewBox="0 0 3334 3334" version="1.1" xmlns="http://www.w3.org/2000/svg" xmlns:xlink="http://www.w3.org/1999/xlink" xml:space="preserve" xmlns:serif="http://www.serif.com/" style="fill-rule:evenodd;clip-rule:evenodd;">
    <g transform="matrix(5.55556,0,0,5.55556,0,0)">
        <g id="svga-group-wrapper" transform="matrix(3,0,0,3,0,0)">
            <g id="svga-group-backs-single">
                <rect id="SvgjsPath3971" x="-25" y="-25" width="250" height="250" style="fill:rgb(192,213,255);fill-rule:nonzero;"/>
            </g>
            <g id="svga-group-humanwrap-move">
                <g id="svga-group-humanwrap">
                    <g id="svga-group-hair-back-move">
                        <g id="svga-group-hair-back">
                            <path id="SvgjsPath4049" d="M156.79,87.186C158.035,82.541 158.87,77.252 159.102,72.972L170.631,72.972C172.465,76.897 173.289,79.052 174.531,80.905C172.691,80.185 170.566,79.438 166.722,75.933C167.04,76.787 171.046,88.42 171.309,90.426C167.918,87.633 166.674,84.614 164.596,82.363C165.802,90.734 166.469,95.159 161.942,105.867C159.181,90.365 157.449,87.622 156.79,87.186ZM34.506,74.599C34.289,83.555 31.608,90.155 22.159,98.045C25.119,97.105 27.769,95.615 32.43,92.985C33.23,90.855 33.94,88.424 34.22,86.185C33.4,94.085 28.622,99.532 32.946,108.862C33.552,101.079 36.2,95.553 43.039,91.107C42.823,91.256 42.323,91.62 41.667,92.196C42.414,91.584 43.194,91.008 44,90.468C42.433,85.633 41.139,78.439 41.091,74.599L34.506,74.599ZM33.478,81.232C31.993,79.387 30.638,76.568 30.056,74.599L34.497,74.599C34.344,75.986 34.038,79.067 33.478,81.232Z" style="fill:rgb(27,20,28);fill-rule:nonzero;"/>
                            <path id="SvgjsPath4050" d="M173.749,80.275C172.491,78.397 171.459,76.225 170.46,74.071L171.542,74.071C172.562,76.319 173.721,79.084 175.039,81.265C171.529,80.225 169.759,79.175 167.129,76.545C170.299,84.415 170.789,88.255 172.319,91.485C167.829,88.765 167.169,85.425 164.829,82.755C166.339,90.545 167.809,96.675 161.399,107.845C161.399,101.775 160.109,93.994 157.849,88.045C161.138,91.195 161.668,101.565 161.928,105.125C162.939,102.735 163.779,100.285 164.439,97.755C166.189,91.075 164.619,84.975 164.289,81.955C166.202,83.193 168.34,87.827 171.189,90.175C169.388,85.795 169.189,83.565 165.79,74.635C168.6,77.325 171.119,79.245 173.749,80.275ZM32.749,108.115C29.369,99.995 33.399,94.085 34.219,86.185C33.939,88.425 33.129,90.555 32.329,92.685C27.669,95.315 25.719,96.805 22.759,97.745C32.208,89.855 34.288,83.755 34.506,74.799L34.398,74.799C34.245,76.186 33.939,78.6 33.379,80.765C31.894,78.92 30.82,76.549 30.238,74.58L29.034,74.591C29.729,76.843 31.092,79.516 33.109,81.685C31.479,88.675 26.269,93.985 21.089,98.565C24.419,98.465 28.969,95.785 31.879,93.905C29.789,99.605 29.649,104.565 33.649,111.475C33.403,100.789 38.93,94.597 41.666,92.195C42.322,91.619 42.822,91.255 43.038,91.106C36.199,95.554 33.355,100.333 32.749,108.115Z" style="fill-rule:nonzero;"/>
                        </g>
                    </g>
                    <g id="svga-group-humanbody-single">
                        <path id="SvgjsPath2780" d="M190.858,199.866C184.85,189.708 177.384,187.893 171.23,185.93C164.907,183.914 151.884,182.752 144.781,181.33C137.921,179.957 121.628,175.541 121.442,167.842C121.25,159.776 125.733,127.752 125.733,127.752L74.005,127.752C74.005,127.752 78.492,159.775 78.299,167.842C78.115,175.541 61.819,179.957 54.958,181.33C47.854,182.752 34.833,183.914 28.51,185.93C22.354,187.893 14.886,189.707 8.878,199.866C5.234,206.026 2.87,215.999 2.87,226.999L196.87,226.999C196.869,215.999 194.509,206.026 190.858,199.866Z" style="fill:rgb(243,212,207);fill-rule:nonzero;"/>
                        <path id="SvgjsPath2781" d="M121.442,167.843C123.937,178.772 139.607,181.541 147.735,183.168C169.644,187.547 181.507,188.302 190.032,202.707C192.935,207.623 195.491,218.571 195.994,226.86C197.829,227.151 196.525,209.428 190.858,199.866C181.116,183.394 161.769,184.731 144.781,181.331C137.921,179.958 121.628,175.542 121.442,167.843ZM78.558,167.843C78.372,175.542 62.079,179.958 55.219,181.331C38.231,184.731 18.884,183.394 9.142,199.866C3.475,209.429 2.171,227.151 4.006,226.86C4.509,218.571 7.065,207.623 9.968,202.707C18.492,188.302 30.356,187.547 52.265,183.168C60.393,181.541 76.063,178.771 78.558,167.843Z" style="fill:rgb(255,244,243);fill-rule:nonzero;"/>
                        <path id="SvgjsPath2782" d="M51.206,189.513C51.206,189.513 79.847,189.812 84.679,191.398C86.993,192.156 93.051,197.031 93.051,197.031C93.051,197.031 86.495,193.861 84.393,193.273C79.51,191.909 51.206,189.513 51.206,189.513ZM99.795,199.999C101.848,199.958 107.682,196.2 107.682,196.2C107.682,196.2 102.108,198.259 100.34,198.36C98.849,198.446 93.974,197.122 93.974,197.122C93.974,197.122 98.112,200.032 99.795,199.999ZM117.008,192.757C123.758,190.939 146.794,189.527 146.794,189.527C146.794,189.527 123.003,189.011 116.284,191.252C114.032,192.004 108.722,196.412 108.722,196.412C108.722,196.412 114.786,193.354 117.008,192.757Z" style="fill:rgb(228,179,171);fill-rule:nonzero;"/>
                        <path id="SvgjsPath2783" d="M190.858,199.866C181.117,183.395 161.736,184.724 144.781,181.331C137.921,179.958 121.628,175.542 121.442,167.843C121.25,159.777 125.733,127.753 125.733,127.753L74.005,127.753C74.005,127.753 78.492,159.776 78.299,167.843C78.115,175.542 61.819,179.958 54.958,181.331C47.854,182.753 34.833,183.915 28.51,185.931C22.354,187.894 14.886,189.708 8.878,199.867C5.234,206.027 2.87,216 2.87,227L196.87,227C196.869,215.999 194.509,206.026 190.858,199.866Z" style="fill:none;fill-rule:nonzero;stroke:rgb(197,121,109);stroke-width:1.5px;"/>
                    </g>
                    <g id="svga-group-chinshadow-single">
                        <path id="SvgjsPath4062" d="M100.002,171.27C111.21,171.27 116.59,167.457 120.94,163.492C121.522,154.595 123.609,138.574 124.586,131.337C109.802,129.584 89.878,129.595 75.156,131.369C76.127,138.552 78.18,154.303 78.784,163.233C83.185,167.29 88.551,171.27 100.002,171.27Z" style="fill:url(#_Linear1);fill-rule:nonzero;"/>
                    </g>
                    <g id="svga-group-clothes-single">
                        <path id="SvgjsPath4324" d="M190.188,199.647C180.526,181.727 163.385,184.898 145.574,180.091C144.226,181.728 131.888,197.559 129.089,206.025C127.517,204.769 125.64,203.087 124.285,201.548C117.657,194.088 107.832,169.947 104.535,188.799C105.252,180.336 109.149,178.472 114.56,185.565C120.377,193.198 120.593,197.14 128.893,205.44C130.359,199.609 133.166,195.403 136.859,190.239C140.432,185.234 143.294,181.294 147.425,177.747C145.164,176.521 142.778,175.53 140.624,174.151C127.109,165.391 135.189,156.504 122.939,154.387C122.843,155.445 122.722,156.632 122.622,157.524C125.241,158.814 125.75,163.844 121.717,167.526C115.307,174.268 106.851,174.603 104.165,184.955L104.159,184.954C103.305,188.025 102.62,192.73 102.296,195.487L97.754,195.876C95.907,179.652 93.493,178.065 85.597,173.052C80.366,169.731 73.108,164.717 75.899,159.049C76.217,158.393 76.604,157.99 77.085,157.688C76.947,156.392 76.865,155.64 76.759,154.437C64.543,156.749 72.722,166.041 59.108,174.31C57.048,175.557 55.033,176.407 52.565,177.726C57.444,181.977 68.875,196.232 71.126,205.443C79.504,196.967 79.568,193.262 85.42,185.596C90.46,178.999 94.576,179.675 95.441,188.603C94.965,185.921 93.838,181.816 91.396,181.816C89.384,181.816 87.287,184.66 86.249,186.033C80.44,193.7 79.507,199.187 70.897,206.033C70.301,204.317 69.603,202.595 68.769,200.99C65.357,194.386 55.478,181.395 54.427,180.103C50.344,181.205 44.76,182.087 41.019,182.683C16.577,186.58 7.103,191.493 3.5,226.896C93.139,226.026 129.666,226.406 196.432,226.406C195.594,218.524 193.953,206.642 190.188,199.647Z" style="fill:rgb(30,120,162);fill-rule:nonzero;"/>
                        <path id="SvgjsPath4325" d="M95.717,224.342C92.064,224.342 89.431,224.281 87.887,224.164C88.353,221.684 89.743,217.039 90.543,214.727C87.988,211.5 87.269,208.159 86.635,205.209C86.258,203.455 85.93,201.935 85.274,200.741C85.41,200.664 85.764,200.467 85.764,200.467L85.701,200.376C84.016,197.963 82.019,195.337 79.947,194.099L80.287,193.533C81.979,190.713 84.802,186.007 87.229,183.548C91.415,186.716 96.22,192.689 98.094,195.807L98.129,195.864L98.195,195.854C99.491,195.661 100.917,195.545 102.01,195.545C104.936,191.071 109.024,186.497 112.778,183.545C114.744,185.264 117.879,190.501 119.392,193.032C119.685,193.52 119.909,193.895 120.042,194.106C117.686,195.689 115.462,198.698 114.608,199.928L114.554,200.005L114.628,200.064C114.966,200.327 115.616,200.873 115.959,201.214C115.268,206.317 113.085,211.576 110.234,214.859C110.919,217.039 111.185,219.533 111.554,222.985L111.677,224.126C111.426,224.129 110.88,224.14 110.113,224.155C107.169,224.216 101.044,224.342 95.717,224.342C95.718,224.342 95.718,224.342 95.717,224.342Z" style="fill:rgb(20,17,17);fill-rule:nonzero;"/>
                        <path id="SvgjsPath4326" d="M113.911,202.273C113.71,206.595 112.209,210.147 109.646,214.341C112.292,211.04 115.301,206.067 115.959,201.214C113.158,198.413 103.185,193.703 92.618,197.693C101.263,195.991 111.48,197.412 113.911,202.273Z" style="fill:rgb(44,37,38);fill-rule:nonzero;"/>
                        <path id="SvgjsPath4327" d="M143.952,181.126C141.49,183.802 139.343,186.76 136.858,190.239C133.666,194.704 131.139,198.457 129.565,203.159C131.378,193.458 137.483,184.68 145,178C137.094,176.562 133.32,169.441 131.451,162.208C132.625,165.71 134.134,169.944 140.624,174.151C142.777,175.53 145.164,176.521 147.425,177.747C147.273,177.877 143.952,181.126 143.952,181.126ZM186,198C191.681,205.102 194.332,214.221 196.11,223.565C195.191,215.876 193.524,205.845 190.187,199.647C180.525,181.727 163.384,184.898 145.573,180.091C145.415,180.282 145.102,180.675 144.676,181.222C159.32,183.163 176.369,185.48 186,198ZM52.575,177.747C54.836,176.521 57.222,175.53 59.376,174.151C65.866,169.944 67.375,165.71 68.549,162.208C66.68,169.441 62.906,176.563 55,178C62.517,184.681 68.621,193.458 70.435,203.159C68.861,198.457 66.334,194.704 63.142,190.239C60.658,186.76 58.51,183.801 56.048,181.126C56.048,181.126 52.727,177.877 52.575,177.747ZM55.324,181.223C54.897,180.676 54.585,180.284 54.427,180.092C36.615,184.899 19.475,181.728 9.813,199.648C6.476,205.846 4.809,215.877 3.89,223.566C5.668,214.221 8.319,205.102 14,198C23.631,185.48 40.68,183.163 55.324,181.223Z" style="fill:rgb(84,91,142);fill-rule:nonzero;"/>
                        <path id="SvgjsPath4328" d="M143.952,181.126C141.49,183.802 139.343,186.76 136.858,190.239C133.666,194.704 131.139,198.457 129.565,203.159C131.378,193.458 137.483,184.68 145,178C137.094,176.562 133.32,169.441 131.451,162.208C132.625,165.71 134.134,169.944 140.624,174.151C142.777,175.53 145.164,176.521 147.425,177.747C147.273,177.877 143.952,181.126 143.952,181.126ZM186,198C191.681,205.102 194.332,214.221 196.11,223.565C195.191,215.876 193.524,205.845 190.187,199.647C180.525,181.727 163.384,184.898 145.573,180.091C145.415,180.282 145.102,180.675 144.676,181.222C159.32,183.163 176.369,185.48 186,198ZM52.575,177.747C54.836,176.521 57.222,175.53 59.376,174.151C65.866,169.944 67.375,165.71 68.549,162.208C66.68,169.441 62.906,176.563 55,178C62.517,184.681 68.621,193.458 70.435,203.159C68.861,198.457 66.334,194.704 63.142,190.239C60.658,186.76 58.51,183.801 56.048,181.126C56.048,181.126 52.727,177.877 52.575,177.747ZM55.324,181.223C54.897,180.676 54.585,180.284 54.427,180.092C36.615,184.899 19.475,181.728 9.813,199.648C6.476,205.846 4.809,215.877 3.89,223.566C5.668,214.221 8.319,205.102 14,198C23.631,185.48 40.68,183.163 55.324,181.223Z" style="fill:rgb(51,137,177);fill-rule:nonzero;"/>
                        <path id="SvgjsPath4329" d="M118.303,173C113.818,175.492 110.02,177.938 107.501,181.379C108.48,181.662 111.057,182.343 112.268,183.754C108.265,186.896 105.836,189.766 102.353,195.365C102.75,192.232 102.911,189.802 103.556,187.507C103.744,186.593 103.946,185.722 104.16,184.954L104.166,184.955C106.852,174.603 115.308,174.268 121.718,167.526C125.751,163.844 125.242,158.814 122.623,157.524C122.724,156.632 122.845,155.445 122.94,154.387C123.612,154.503 124.211,154.644 124.768,154.8C133.028,161.766 123.939,170.584 118.303,173ZM80.601,173C85.086,175.492 90.571,178.445 93.083,181.587C92.104,181.87 88.943,182.343 87.732,183.754C92.283,187.999 95.035,190.942 97.998,195.736C97.601,192.603 97.09,189.801 96.444,187.507C96.256,186.593 96.054,185.722 95.84,184.954L95.834,184.955C93.148,174.603 84.692,174.268 78.282,167.526C74.249,163.844 74.758,158.814 77.377,157.524C77.276,156.632 77.155,155.445 77.06,154.387C76.388,154.503 75.789,154.644 75.232,154.8C68.311,162.904 75.536,170.056 80.601,173Z" style="fill:rgb(12,104,147);fill-rule:nonzero;"/>
                        <path id="SvgjsPath4330" d="M123.859,159.785C124.428,162.105 123.519,163.995 122.109,165.605C122.119,163.885 122.269,162.155 122.428,160.455C122.508,159.615 122.599,158.766 122.678,157.926C123.219,158.295 123.639,158.896 123.859,159.785ZM77.309,160.815C77.419,162.285 77.549,163.754 77.579,165.225C76.359,163.695 75.629,161.954 76.139,159.805C76.309,159.065 76.619,158.534 77.029,158.155C77.129,159.045 77.219,159.926 77.309,160.815Z" style="fill:rgb(0,90,131);fill-rule:nonzero;"/>
                        <path id="SvgjsPath4331" d="M192.56,200.686C183.72,180.442 162.853,182.886 146.1,179.636C146.796,178.793 147.649,177.906 147.839,177.736C145.204,175.876 136.713,172.141 133.6,165.356C131.371,160.521 131.917,154.986 122.749,154.096C122.246,156.912 121.524,163.105 121.659,166.096C112.055,176.003 102.596,171.575 101.433,195.455L102.212,195.437C102.212,195.437 102.433,195.291 102.441,195.222C105.285,171.868 112.482,177.385 121.788,167.595C125.956,163.766 125.237,158.695 122.728,157.465C122.837,156.475 122.938,155.494 123.028,154.504C130.915,155.894 130.231,160.342 132.698,165.775C135.977,172.999 144.043,176.039 147.248,177.765C142.91,181.494 139.775,185.986 136.309,190.834C130.856,198.397 129.595,202.255 128.838,205.244C120.562,196.914 120.557,193.263 114.638,185.504C108.327,177.227 104.271,181.596 104.349,190.874C104.529,188.555 105.918,180.044 109.859,182.274C114.415,184.818 118.888,195.626 124.209,201.614C125.629,203.225 127.457,204.843 129.139,206.194C131.21,199.263 138.755,189.547 143.41,183.064C144.12,182.084 144.85,181.124 145.61,180.204C152.1,181.894 158.87,182.664 165.44,183.864C189.224,188.224 193.602,201.356 196.32,226.304C158.383,226.498 117.182,225.701 3.61,226.793C5.256,210.501 8.041,197.183 18.11,189.983C22.43,186.883 27.44,185.263 32.6,184.233C39.79,182.803 47.26,182.063 54.39,180.213C55.22,181.223 56.01,182.263 56.78,183.343C65.584,195.586 67.88,198.274 70.85,206.193C80.868,198.679 84.874,184.577 90.39,182.143C94.23,180.453 95.47,188.563 95.65,190.872C95.725,181.031 91.131,175.191 81.84,190.652C77.262,198.273 76.048,200.339 71.18,205.242C69.225,197.294 58.82,182.986 52.74,177.742C56.512,175.714 63.332,173.304 66.98,166.442C69.389,161.735 68.319,156.148 76.67,154.552C76.76,155.581 76.87,156.602 76.98,157.632C74.693,159.073 74.297,163.916 77.95,167.302C81.24,170.911 85.7,172.972 89.62,175.852C94.241,179.271 96.069,182.77 97.54,195.002C97.572,195.269 97.915,195.779 97.915,195.779L98.558,195.696C98.179,187.214 96.957,180.015 91.991,175.871C87.701,172.203 81.686,169.866 78.051,165.771C78.161,162.699 77.345,156.477 76.951,154.131C68.643,154.942 68.573,159.99 66.811,164.41C64.144,171.097 57.211,174.666 52.161,177.721C52.496,178.054 53.29,178.908 53.901,179.631C46.911,181 39.671,181.391 32.661,182.62C22.201,184.45 12.331,189.74 7.831,199.81C4.413,207.452 3.422,218.413 3.171,226.8C3.161,226.86 3.161,226.93 3.161,226.989C3.301,226.999 3.451,226.999 3.591,226.999C123.914,228.225 195.82,226.489 196.821,226.489C196.819,225.494 196.378,209.429 192.56,200.686ZM122.109,165.605C122.124,163.014 122.482,160.012 122.678,157.925C124.151,158.933 125.021,162.281 122.109,165.605ZM77.579,165.226C75.133,162.158 75.919,159.184 77.029,158.156C77.261,160.228 77.537,163.13 77.579,165.226Z" style="fill:rgb(0,79,116);fill-rule:nonzero;"/>
                    </g>
                    <g id="svga-group-head">
                        <g id="svga-group-ears-left-move">
                            <g id="svga-group-ears-left">
                                <path id="SvgjsPath3614" d="M47.001,83.974C45.625,81.661 41.363,75.977 37.021,77.371C34.272,78.253 33.728,81.136 33.286,83.682C32.698,87.068 33.757,93.765 34.675,96.185C35.556,98.51 38.208,103.001 39.939,104.712C42.069,106.812 44.714,113.505 45.133,114.199C45.793,115.296 46.669,116.944 49.255,116.737C52.108,116.508 53.839,114.995 55.111,114.738C58.253,114.109 50.582,89.995 47.001,83.974Z" style="fill:rgb(243,212,207);fill-rule:nonzero;stroke:rgb(197,121,109);stroke-width:1.5px;"/>
                                <path id="SvgjsPath3615" d="M44.197,97.997C44.065,97.449 44.204,96.527 44.339,95.635C44.463,94.823 44.579,94.056 44.508,93.514C44.241,91.482 42.735,87.621 41.751,85.529C40.619,83.122 38.788,80.09 36.489,79.308C35.539,78.984 34.914,79.371 34.551,79.764C34.285,80.053 34.226,80.391 34.313,80.431C34.399,80.471 34.598,80.191 34.885,79.927C35.12,79.711 35.464,79.525 35.936,79.564C35.746,80.575 34.769,86.054 35.192,89.789C35.525,92.727 36.785,94.92 36.982,95.249C37.011,95.595 37.059,95.934 37.13,96.263C38.059,100.55 42.101,105.426 43.508,107.021C43.767,107.316 44.039,107.491 44.106,107.419C44.172,107.347 44.012,107.055 43.753,106.759C42.365,105.174 38.362,100.317 37.464,96.18C36.512,91.791 39.782,85.284 40.512,83.908C40.883,84.554 41.199,85.175 41.442,85.693C41.632,86.099 41.844,86.574 42.061,87.088C41.632,87.806 38.627,93.046 39.723,97.241C40.129,98.787 41.958,100.781 43.17,101.327C43.837,101.628 44.089,102.077 44.379,102.598C44.715,103.202 45.097,103.886 46.207,104.382C46.432,104.484 46.636,104.524 46.817,104.524C47.13,104.524 47.368,104.398 47.542,104.248C47.56,104.514 47.559,104.852 47.551,105.165C47.539,105.569 47.593,105.902 47.688,105.91C47.782,105.918 47.884,105.597 47.895,105.193C47.911,104.697 47.908,104.083 47.823,103.79C47.575,102.925 46.815,101.949 46.01,100.915C45.221,99.896 44.403,98.844 44.197,97.997ZM36.95,94.196C34.773,87.465 37.606,81.656 38.094,80.732C38.944,81.507 39.694,82.543 40.304,83.556C39.86,84.365 37.041,89.669 36.95,94.196ZM46.341,104.042C45.337,103.595 45.002,102.991 44.675,102.409C44.382,101.882 44.077,101.337 43.306,100.989C43.138,100.914 42.954,100.798 42.764,100.666C40.278,94.76 43.036,92.178 43.727,91.649C43.938,92.371 44.096,93.033 44.166,93.564C44.229,94.052 44.114,94.827 43.999,95.576C43.857,96.505 43.713,97.466 43.862,98.088C44.088,99.014 44.931,100.097 45.746,101.145C46.469,102.074 47.212,103.033 47.467,103.815C47.359,103.972 47.017,104.345 46.341,104.042Z" style="fill:rgb(197,121,109);fill-rule:nonzero;"/>
                            </g>
                        </g>
                        <g id="svga-group-ears-right-move">
                            <g id="svga-group-ears-right">
                                <path id="SvgjsPath3616" d="M152.736,83.974C154.113,81.661 158.375,75.977 162.716,77.371C165.466,78.253 166.009,81.136 166.452,83.682C167.04,87.068 165.981,93.765 165.063,96.185C164.182,98.51 161.53,103.001 159.797,104.712C157.668,106.812 155.022,113.505 154.604,114.199C153.946,115.296 153.069,116.944 150.483,116.737C147.629,116.508 145.899,114.995 144.626,114.738C141.484,114.109 149.156,89.995 152.736,83.974Z" style="fill:rgb(243,212,207);fill-rule:nonzero;stroke:rgb(197,121,109);stroke-width:1.5px;"/>
                                <path id="SvgjsPath3617" d="M153.727,100.913C152.922,101.946 152.163,102.922 151.914,103.788C151.828,104.081 151.826,104.695 151.842,105.191C151.854,105.595 151.955,105.916 152.049,105.908C152.143,105.9 152.197,105.567 152.186,105.163C152.178,104.85 152.178,104.512 152.196,104.246C152.37,104.396 152.608,104.522 152.921,104.522C153.103,104.522 153.306,104.482 153.53,104.38C154.639,103.884 155.022,103.2 155.358,102.596C155.647,102.076 155.901,101.627 156.567,101.325C157.78,100.779 159.608,98.785 160.014,97.239C161.11,93.045 158.106,87.804 157.676,87.086C157.893,86.573 158.106,86.098 158.295,85.691C158.539,85.173 158.854,84.552 159.225,83.906C159.955,85.283 163.225,91.789 162.274,96.178C161.378,100.315 157.374,105.172 155.985,106.757C155.727,107.053 155.567,107.345 155.633,107.417C155.699,107.488 155.971,107.313 156.231,107.019C157.637,105.423 161.68,100.548 162.61,96.261C162.68,95.932 162.727,95.593 162.756,95.247C162.953,94.918 164.215,92.724 164.547,89.787C164.969,86.052 163.992,80.573 163.803,79.562C164.276,79.523 164.617,79.708 164.854,79.925C165.141,80.189 165.34,80.469 165.426,80.429C165.512,80.389 165.453,80.051 165.188,79.762C164.825,79.369 164.2,78.983 163.25,79.306C160.951,80.088 159.119,83.12 157.988,85.527C157.004,87.62 155.498,91.48 155.23,93.512C155.158,94.054 155.275,94.821 155.4,95.633C155.535,96.525 155.673,97.447 155.541,97.995C155.336,98.844 154.518,99.896 153.727,100.913ZM159.434,83.555C160.045,82.542 160.795,81.506 161.645,80.731C162.133,81.656 164.965,87.464 162.79,94.195C162.697,89.669 159.879,84.365 159.434,83.555ZM152.27,103.816C152.524,103.034 153.268,102.075 153.991,101.146C154.807,100.098 155.649,99.015 155.876,98.089C156.024,97.467 155.88,96.506 155.739,95.577C155.624,94.828 155.509,94.053 155.573,93.565C155.641,93.034 155.8,92.372 156.011,91.65C156.702,92.179 159.46,94.761 156.976,100.667C156.785,100.799 156.601,100.915 156.433,100.99C155.662,101.338 155.359,101.883 155.064,102.41C154.738,102.992 154.402,103.596 153.398,104.043C152.721,104.345 152.379,103.972 152.27,103.816Z" style="fill:rgb(197,121,109);fill-rule:nonzero;"/>
                            </g>
                        </g>
                        <g id="svga-group-faceshape-wrap">
                            <g id="svga-group-faceshape-single">
                                <path id="SvgjsPath4059" d="M100.002,0.867C66.384,0.919 39.082,28.09 39.134,61.564C39.142,66.88 39.838,72.035 41.136,76.946L41.137,76.946C41.15,77 52.68,114.915 55.158,127.369C56.54,134.314 64.954,140.572 72.423,145.682C79.39,150.449 82.952,159.27 100.003,159.27C117.054,159.27 120.616,150.449 127.583,145.682C135.051,140.573 143.466,134.315 144.848,127.369C147.327,114.915 158.857,76.999 158.868,76.946L158.87,76.946C160.168,72.035 160.864,66.88 160.872,61.564C160.923,28.09 133.62,0.919 100.002,0.867Z" style="fill:rgb(243,212,207);fill-rule:nonzero;"/>
                                <path id="SvgjsPath4060" d="M146.772,22.738C154.25,32.921 158.689,45.608 158.67,59.364C158.661,64.68 157.991,69.835 156.74,74.746L156.738,74.746C156.727,74.799 145.614,112.715 143.226,125.169C141.891,132.114 133.755,138.372 126.558,143.482C119.84,148.249 116.437,157.07 100.001,157.07C83.567,157.07 80.159,148.249 73.444,143.482C66.247,138.373 58.109,132.115 56.779,125.169C54.388,112.715 43.275,74.799 43.264,74.746C42.012,69.835 41.342,64.68 41.333,59.364C41.312,45.612 45.749,32.929 53.222,22.747C44.41,33.272 39.11,46.803 39.133,61.564C39.141,66.88 39.837,72.035 41.135,76.946L41.136,76.946C41.15,77 52.68,114.915 55.158,127.369C56.54,134.314 64.954,140.572 72.423,145.682C79.39,150.449 82.952,159.27 100.003,159.27C117.054,159.27 120.616,150.449 127.583,145.682C135.051,140.573 143.466,134.315 144.848,127.369C147.327,114.915 158.857,76.999 158.868,76.946L158.87,76.946C160.168,72.035 160.864,66.88 160.872,61.564C160.894,46.799 155.589,33.264 146.772,22.738Z" style="fill:rgb(235,195,189);fill-rule:nonzero;"/>
                                <path id="SvgjsPath4061" d="M100.002,0.867C66.384,0.919 39.082,28.09 39.134,61.564C39.142,66.88 39.838,72.035 41.136,76.946L41.137,76.946C41.15,77 52.68,114.915 55.158,127.369C56.54,134.314 64.954,140.572 72.423,145.682C79.39,150.449 82.952,159.27 100.003,159.27C117.054,159.27 120.616,150.449 127.583,145.682C135.051,140.573 143.466,134.315 144.848,127.369C147.327,114.915 158.857,76.999 158.868,76.946L158.87,76.946C160.168,72.035 160.864,66.88 160.872,61.564C160.923,28.09 133.62,0.919 100.002,0.867Z" style="fill:none;fill-rule:nonzero;stroke:rgb(197,121,109);stroke-width:1.5px;"/>
                            </g>
                        </g>
                        <g id="svga-group-mouth-single-move">
                            <g id="svga-group-mouth-single">
                                <path id="SvgjsPath4343" d="M100.126,141.95C97.291,141.95 96.626,139.016 96.626,139.016C96.626,139.016 100.524,139.779 103.626,139.016C103.626,139.017 102.621,141.95 100.126,141.95Z" style="fill:url(#_Linear2);fill-rule:nonzero;"/>
                                <path id="SvgjsPath4347" d="M100.523,139.779C98.536,139.779 96.766,139.512 96.655,139.496C96.518,139.475 96.425,139.349 96.446,139.212C96.467,139.075 96.6,138.986 96.731,139.003C96.772,139.008 100.802,139.613 103.478,139.005C103.611,138.98 103.748,139.06 103.778,139.194C103.808,139.328 103.724,139.462 103.59,139.493C102.643,139.708 101.554,139.779 100.523,139.779Z" style="fill:rgb(197,121,109);fill-rule:nonzero;"/>
                                <path id="SvgjsPath4348" d="M84,130C84,130 95.487,131.189 99.325,131.199C103.499,131.208 117,130 117,130C113.097,132.826 108.801,135.543 99.074,135.597C90.373,135.646 88.145,132.889 84,130Z" style="fill:white;fill-rule:nonzero;"/>
                                <path id="SvgjsPath4349" d="M84,130C84,130 95.487,131.189 99.325,131.199C103.499,131.208 117,130 117,130C113.097,132.826 108.801,135.543 99.074,135.597C90.373,135.646 88.145,132.889 84,130Z" style="fill:none;fill-rule:nonzero;stroke:rgb(201,32,102);stroke-width:0.75px;"/>
                            </g>
                        </g>
                        <g id="svga-group-facehighlight-single">
                            <path id="SvgjsPath2772" d="M140.204,113.007C140.239,135.282 122.209,153.372 99.931,153.403C77.657,153.439 59.57,135.41 59.535,113.131C59.501,90.857 77.53,72.77 99.808,72.735C122.083,72.701 140.171,90.73 140.204,113.007Z" style="fill:url(#_Radial3);fill-rule:nonzero;"/>
                            <path id="SvgjsPath2776" d="M135,55.999C135,75.328 119.329,90.999 100,90.999C80.671,90.999 65,75.328 65,55.999C65,36.67 80.671,20.999 100,20.999C119.329,20.999 135,36.67 135,55.999Z" style="fill:url(#_Radial4);fill-rule:nonzero;"/>
                        </g>
                        <g id="svga-group-eyebrows-left-move">
                            <g id="svga-group-eyebrows-left-rotate">
                                <g id="svga-group-eyebrows-left">
                                    <path id="SvgjsPath4350" d="M52.488,73.87C59.963,64.487 72.826,66.048 83.366,67.556C86.047,67.94 88.807,68.228 91.436,68.892C93.32,69.367 94.801,71.514 93.287,73.248C92.579,74.073 91.034,73.92 90.08,73.9C77.459,73.645 63.193,66.387 52.488,73.87Z" style="fill:rgb(42,35,43);fill-rule:nonzero;"/>
                                </g>
                            </g>
                        </g>
                        <g id="svga-group-eyebrows-right-move">
                            <g id="svga-group-eyebrows-right-rotate">
                                <g id="svga-group-eyebrows-right">
                                    <path id="SvgjsPath4351" d="M147.577,73.49C145.413,72.042 143.123,71.02 140.534,70.601C131.037,69.061 112.948,75.391 108.193,74.051C105.281,73.229 105.87,70.312 107.158,69.593C107.933,69.16 108.148,69.171 115.067,67.981C126.824,65.961 139.988,64.355 147.577,73.49Z" style="fill:rgb(42,35,43);fill-rule:nonzero;"/>
                                </g>
                            </g>
                        </g>
                        <g id="svga-group-nose-single-move">
                            <g id="svga-group-nose-single">
                                <path id="SvgjsPath3937" d="M105.496,114.749C106.385,120.788 101.478,118.101 99.844,118.364C98.538,118.577 93.589,120.347 93.882,114.67C94.02,111.969 96.65,109.423 99.736,109.423C102.626,109.423 104.913,110.802 105.496,114.749Z" style="fill:white;fill-opacity:0.2;fill-rule:nonzero;"/>
                                <path id="SvgjsPath3938" d="M103.762,116.205C103.791,116.301 102.105,118.215 102.022,118.135C101.583,118.451 100.831,118.585 100.003,118.593C99.445,118.598 98.946,118.123 98.543,118.166C98.528,118.103 94.898,116.758 94.675,116.235C94.341,116.31 94.099,116.471 94.003,116.711C93.755,117.335 94.57,118.258 95.823,118.774C96.442,119.028 97.384,119.208 97.872,119.176C98.203,119.654 98.778,119.919 99.856,119.91C101.045,119.898 102.192,119.627 102.405,119.067C102.697,119.245 103.805,118.998 104.219,118.797C104.676,118.575 105.434,117.94 105.452,117.164C105.467,116.506 104.473,116.081 103.762,116.205Z" style="fill:rgb(228,179,171);fill-rule:nonzero;"/>
                                <path id="SvgjsPath3939" d="M98.529,118.552C98.455,118.732 98.293,118.861 98.08,118.944C97.794,118.478 97.205,117.999 96.445,117.666C95.561,117.282 94.697,117.208 94.175,117.416C93.993,117.12 93.932,116.833 94.033,116.595C94.293,115.975 95.51,115.915 96.753,116.454C97.995,116.995 98.79,117.936 98.529,118.552ZM104.806,117.053C104.96,117.011 105.086,117.065 105.207,117.089C105.279,116.494 104.792,116.066 103.97,116.085C103.005,116.109 101.951,116.743 101.619,117.502C101.339,118.147 101.672,118.668 102.37,118.798C102.381,118.693 102.845,117.594 104.806,117.053Z" style="fill:rgb(197,121,109);fill-rule:nonzero;"/>
                            </g>
                        </g>
                        <g id="svga-group-hair-front">
                            <path id="SvgjsPath4052" d="M142.198,28.734C132.961,19.944 97.649,27.973 87.001,28.973C76.86,29.755 63.475,-1.366 43.396,78.452C43.441,82.291 44.686,89.085 46.192,93.92C46.337,93.819 46.478,93.712 46.623,93.614C46.623,93.614 46.105,96.871 52.681,108.004C52.333,99.931 53.893,94.111 55.173,86.59C70.882,66.603 85.562,61.916 96.733,58.435C89.233,67.19 81.814,75.225 78.568,84C92.215,74.424 110.977,55.116 110.977,55.116C110.977,55.116 109.574,59.819 83.292,84C94.235,81.321 114.637,70.321 128.928,49.049C131.674,53.549 116.528,79.843 116.101,80.85C123.764,74.764 134.18,66.214 136.856,56.23C136.856,56.23 138.427,60.273 139.518,64.865C142.396,77.027 142.422,92.146 142.947,95.99C144.612,87.269 144.872,77.508 144.869,77.635C148.774,95.528 145.288,108.029 145.221,112.359C150.419,101.924 155.825,89.462 157.398,77.825C157.396,77.824 145.779,27.134 142.198,28.734Z" style="fill:rgb(42,35,43);fill-opacity:0.1;fill-rule:nonzero;"/>
                            <path id="SvgjsPath4053" d="M170.618,67.866C170.538,62.476 169.498,53.946 167.697,49.086C170.977,52.476 175.107,56.476 178.477,58.586C174.017,54.726 172.636,51.426 162.556,30.286C156.367,17.306 152.269,3.536 140.178,1.916C136.099,1.356 132.128,2.906 128.399,4.506C118.789,-4.284 106.809,-7.825 95.729,-6.825C61.849,-4.315 52.812,17.566 34.692,21.946C37.532,22.776 42.308,21.478 45.028,20.198C41.278,25.258 42.606,24.729 34.336,32.999C30.966,36.339 27.853,40.443 23.793,42.853C29.242,42.172 32.105,38.019 40.075,33.749C38.925,35.589 34.826,41.843 28.146,48.243C25.276,50.983 20.547,54.827 17.247,57.157C19.657,56.197 26.736,53.431 32.855,48.005C29.686,52.536 20.594,60.945 24.71,77.886C25.542,70.48 24.709,61.471 31.758,56.991C30.974,60.292 27.944,67.213 30.155,74.699L41.09,74.699C41.137,78.538 42.431,85.633 43.999,90.468C44.15,90.367 44.296,90.26 44.448,90.162C44.448,90.162 44.95,93.419 51.791,104.552C51.427,96.479 52.013,90.659 53.344,83.138C69.689,63.151 84.963,58.464 96.585,54.983C88.781,63.738 82.771,73.82 79.392,82.595C90.438,70.935 113.226,52.828 113.226,52.828C113.226,52.828 112.862,57.694 85.514,81.874C94.963,76.079 115.212,66.868 130.08,45.596C132.938,50.096 119.261,76.39 118.816,77.397C126.79,71.311 133.462,60.761 136.251,50.777C136.251,50.777 139.967,56.82 141.098,61.412C144.093,73.574 143.082,83.693 143.626,87.537C145.358,78.816 146.668,74.055 146.665,74.182C150.731,92.075 146.061,106.576 145.993,110.906C151.399,100.472 158.065,85.909 159.702,74.272L171.3,74.272C170.631,69.944 171.127,69.932 170.618,67.866Z" style="fill:rgb(42,35,43);fill-rule:nonzero;"/>
                            <path id="SvgjsPath4054" d="M177.236,37.286C173.425,37.116 171.36,37.385 166.88,37.025C166.21,35.495 164.142,31.475 163.442,29.955C166.941,33.055 174.206,36.976 177.236,37.286Z" style="fill:rgb(12,8,12);fill-rule:nonzero;"/>
                            <path id="SvgjsPath4055" d="M40.385,33.266C32.598,37.49 29.08,41.724 24.729,42.445C28.789,40.035 31.189,36.455 34.559,33.115C42.829,24.845 41.819,24.815 45.569,19.755C42.965,20.98 38.452,22.592 35.58,22.002C49.1,20.922 63.972,3.71 80,6C63.505,7.833 49.533,19.744 40.385,33.266ZM118.817,77.397C130.005,54.251 130.721,50.819 130.081,45.596C116.649,64.813 89.205,79.612 85.515,81.874C101.845,67.436 109.082,57.516 111.816,53.95C89.192,71.938 89.208,72.234 79.392,82.595C85.055,67.888 82.175,71.148 96.585,54.983C90.322,56.859 85.224,58.672 81.143,60.601C81.71,59.259 81.881,58.551 83.783,55.768C90.907,51.407 104.869,40.736 114.869,37.287C111.34,40.07 109.524,43.57 106.029,46.383C111.387,45.027 117.936,44.327 128.269,38.587C127.716,39.029 146.191,29.956 140.204,19.557C143.888,22.182 141.154,32.893 139.42,42.862C143.308,48.235 144.175,54.777 145.453,61.445C145.574,59.252 145.923,53.949 145.469,51.797C147.753,57.723 151.036,65.612 150.995,74.278C155.411,62.569 152,52 152,41C155.791,47.331 157.29,58.906 158.192,66.033C159.108,61.451 159.712,58.007 157.648,52C158.95,53.624 160.737,54.834 162,57C160.279,47.555 157.142,40.958 152.796,34.167C156.921,38.936 163,43 165,49C164,38 160,27 153,18C156.743,22.367 160.097,26.734 163.061,31.343C172.679,51.526 174.094,54.791 178.478,58.585C175.108,56.475 170.978,52.476 167.698,49.085C169.499,53.945 170.539,62.475 170.619,67.865C171.128,69.93 170.632,70.043 171.301,74.37L159.704,74.37C158.067,86.007 151.401,100.47 145.995,110.904C146.061,106.677 150.509,92.758 146.939,75.455C146.851,75.031 146.764,74.608 146.667,74.18C146.67,74.053 145.36,78.815 143.628,87.535C143.084,83.691 144.095,73.572 141.1,61.41C139.969,56.818 136.253,50.775 136.253,50.775C128.832,69.641 120.864,76.769 118.817,77.397ZM94.869,43.184C85.796,45.839 77,53 70,60C72,57 73,53 76,50C81,40 90,33 97,25C82,34 73,47 62,60C65,54 68,46 73,41C63,46 61,56 54,64C58,32 88,-5 123,6C88.059,-7.698 53.547,29.071 45.395,68.148C45.361,64.358 45.921,43.079 54,35C46,41 44,51 39,58C38.186,53.928 40.024,50.519 41.274,47.233C40.22,48.809 38.258,49.991 37.044,51.745C39.577,43.671 42.073,35.284 50,30C45.274,32.363 41.784,35.96 37.098,38.362C34.948,41.306 31.968,44.999 28.329,48.486C25.459,51.226 21.349,54.366 18.049,56.696C20.459,55.736 27.349,51.996 33.519,47.206C30.569,51.976 21.249,59.946 24.619,76.616C24.949,69.196 25.139,60.936 32.189,56.456C31.405,59.757 28.145,67.514 30.356,75L41.09,75C41.137,78.839 42.431,85.633 43.999,90.468C44.15,90.367 44.296,90.26 44.448,90.162C44.448,90.162 44.766,92.147 48.108,98.243C49.068,99.994 50.265,102.067 51.792,104.552C51.428,96.479 52.014,90.659 53.345,83.138C63.188,71.102 72.64,64.618 81.143,60.601C81.859,58.904 84.681,51.958 94.869,43.184Z" style="fill:rgb(27,20,28);fill-rule:nonzero;"/>
                            <path id="SvgjsPath4056" d="M39.14,35.028C50.711,12.323 73.942,5.8 82.235,5.829C64.286,9.892 51.536,17.819 39.14,35.028ZM112.286,4.067C99.313,3.229 75.107,11.58 62.155,38.708C76.494,13.067 102.913,3.465 112.286,4.067ZM144.313,7.883C143.645,7.641 143.055,7.165 142.384,6.904C134.573,3.869 127.427,9.285 126.819,14.558C127.992,9.383 135.786,4.803 144.313,7.883ZM138.188,11.621C151.089,8.619 161.422,32.684 161.685,33.687C159.6,25.7 150.582,7.854 138.528,10.768C134.563,11.727 131.49,14.721 129.219,17.966C131.586,15.113 134.468,12.47 138.188,11.621ZM92.531,49.976C99.551,44.038 131.554,34.205 130.426,20.271C130.234,32.882 105.025,39.407 92.531,49.976ZM123.893,16.667C121.805,15.699 117.543,11.729 106.567,18.303C88.869,28.902 77.858,46.716 75.207,51.149C83.655,39.44 109.684,10.093 123.893,16.667Z" style="fill:rgb(12,8,12);fill-rule:nonzero;"/>
                            <path id="SvgjsPath4057" d="M77.774,9.337C58.393,16.2 45.395,30.218 45.395,30.218C54.68,20.083 63.288,12.957 77.774,9.337ZM52.747,32.614C54.573,29.478 69.047,13.407 77.42,10.545C68.571,12.888 57.47,24.503 52.747,32.614ZM72.415,30.195C72.415,30.195 87.371,11.704 103.797,7.936C90.858,9.004 79.387,19.403 72.415,30.195ZM91.168,35.718C92.088,34.422 110.021,19.602 117.973,17.556C109.279,18.78 93.755,32.075 91.168,35.718ZM106.619,29.037C107.7,27.558 114.947,20.243 123.685,19.112C115.821,19.303 111.162,22.824 106.619,29.037ZM98.693,39.328C103.306,33.307 116.021,30.724 124.558,21.879C116.765,29.092 105.065,31.012 98.693,39.328ZM114.135,42.83C115.137,42.83 132.833,33.608 136.537,29.753C139.942,26.21 140.475,22.498 137.933,20.828C141.358,24.649 136.674,28.414 134.838,29.979C133.101,31.461 125.346,36.745 114.135,42.83C114.136,42.83 115.105,42.303 114.135,42.83ZM133.194,36.025C139.663,31.379 143.802,22.829 139.93,19.485C138.591,18.329 136.494,17.908 134.762,17.929C136.5,17.908 138.913,18.551 140.059,19.922C144.064,24.7 136.371,32.837 131.199,36.324C123.766,41.336 114.899,44.29 106.239,46.37C115.538,44.373 125.367,41.646 133.194,36.025ZM74.46,34.228C74.46,34.228 87.363,18.313 100.902,13.151C102.498,12.543 104.143,12.322 105.803,11.99C93.18,13.181 81.436,23.811 74.46,34.228ZM71.001,43.084C72.001,42.368 89.005,22.409 104.562,16.421C91.336,19.74 78.568,31.611 71.001,43.084ZM159.665,35.255C159.069,34.254 154.208,16.807 143.886,18.851C150.81,18.188 156.162,28.076 159.665,35.255ZM150.497,54.228C150.644,49.373 152.541,38.969 143.78,30.75C148.394,36.237 150.662,45.406 150.497,54.228Z" style="fill:rgb(58,53,58);fill-rule:nonzero;"/>
                            <path id="SvgjsPath4058" d="M183.02,61.345C174.429,54.295 174.07,52.655 167.45,37.595C171.97,37.975 175.84,37.655 179.51,37.395C171.95,36.655 166.361,31.105 163.481,28.715C155.911,12.625 150.001,-3.245 132.741,2.305C131.381,2.745 130.031,3.265 128.701,3.875C121.021,-4.445 109.281,-8.665 98.381,-8.615C66.591,-8.495 51.551,15.295 38.141,20.485C36.541,21.105 34.761,21.575 33.061,21.975C36.081,23.065 38.731,23.265 43.731,21.225C37.531,29.465 40.541,25.145 33.171,32.885C29.851,36.345 26.741,40.965 22.021,43.135C25.991,43.635 28.711,42.445 32.161,40.095C34.551,38.485 37.001,36.435 38.801,35.145C31.561,46.185 14.491,58.405 14.491,58.405C20.081,57.345 25.911,54.025 30.601,50.265C30.431,50.495 30.251,50.725 30.081,50.955C27.621,54.205 25.251,57.705 24.121,61.665C22.101,68.705 23.061,75.304 25.581,82.154C24.941,76.084 24.841,63.574 31.251,57.775C30.026,61.248 27.022,68.061 29.164,75L30.356,75C28.145,67.515 31.405,59.757 32.189,56.456C25.139,60.936 24.949,69.196 24.619,76.616C21.249,59.946 30.569,51.976 33.519,47.206C27.349,51.996 20.459,55.736 18.049,56.696C21.349,54.366 25.459,51.226 28.329,48.486C35.009,42.086 39.489,34.966 40.639,33.126C32.669,37.396 29.129,41.716 24.729,42.446C28.789,40.036 31.189,36.456 34.559,33.116C42.829,24.846 41.819,24.816 45.569,19.756C42.849,21.036 38.039,22.746 35.199,21.916C53.319,17.536 61.849,-3.814 95.729,-6.324C106.81,-7.324 118.789,-4.284 128.399,4.506C132.128,2.906 136.099,1.556 140.178,2.116C152.269,3.736 155.769,17.306 161.958,30.286C172.038,51.426 173.618,54.426 178.078,58.286C174.708,56.176 170.578,51.876 167.298,48.486C169.099,53.346 170.338,61.676 170.418,67.066C168.368,60.286 164.588,54.806 160.548,49.676C161.399,50.896 168.758,60.476 170.569,72.026C167.519,66.006 163.649,60.576 159.359,55.406C166.134,64.534 168.665,70.204 170.677,74.542C170.941,74.542 170.706,74.325 171.756,74.548C171.677,74.374 171.518,74.016 171.439,73.845C171.378,72.845 172.489,61.455 168.508,50.465C173.339,55.875 175.669,58.795 183.02,61.345ZM176.439,37.186C172.628,37.016 171.559,36.986 167.079,36.626C166.409,35.096 164.739,32.276 164.039,30.756C167.539,33.855 173.409,36.875 176.439,37.186ZM156.85,87.045C154.36,96.185 150.009,106.325 144.86,113.345C146.73,99.545 148.339,85.585 146.639,76.065C146.07,81.795 144.74,87.265 142.999,92.735C143.409,85.625 142.649,78.365 141.979,71.295C141.638,67.775 141.149,64.285 140.409,60.825C139.709,57.535 138.069,54.555 136.569,51.575C134.789,57.415 131.919,62.425 128.729,67.605C125.659,72.595 121.849,76.785 116.809,79.745C120.059,74.385 123.038,66.995 125.038,62.785C126.878,58.905 130.428,52.465 129.938,46.455C124.377,55.155 115.578,63.035 107.358,69.265C99.498,75.225 82.738,83.935 81.738,84.315C81.938,84.095 91.278,75.655 97.268,69.805C108.628,58.725 110.478,56.505 112.048,54.155C106.248,59.205 100.628,64.455 94.808,69.485C89.148,74.375 83.368,79.195 78.068,84.495C79.568,79.085 82.058,74.165 84.668,69.465C87.518,64.355 91.128,60.075 95.248,55.955C71.87,63.506 56.168,80.335 53.958,83.095C53.448,87.515 52.788,102.955 53.248,109.495C47.316,98.798 34.646,81.738 41.59,54.619C38.903,67.881 42.423,88.724 51.438,103.406C51.148,96.976 51.758,90.376 52.878,84.046C51.018,85.956 49.118,87.766 47.008,89.386C48.098,82.866 51.688,76.756 54.908,71.076C57.968,65.706 61.398,60.396 66.038,56.236C62.368,60.696 59.058,66.126 56.048,71.376C52.748,77.126 49.068,84.106 47.868,88.276C54.638,81.676 58.168,73.986 74.838,63.636C84.538,57.616 90.288,56.556 96.498,54.696C97.568,53.596 98.628,52.506 99.668,51.376C101.658,49.216 103.408,46.916 105.138,44.546C98.449,54.966 96.378,55.336 91.359,61.996C83.749,72.086 83.019,75.076 80.229,81.256C86.329,74.816 89.639,72.766 96.079,66.656C101.149,61.836 112.659,53.196 112.969,52.676C114.219,50.566 115.429,47.456 117.119,44.546C115.419,48.106 114.489,51.916 112.339,55.246C110.179,58.586 107.049,61.536 104.369,64.456C99.949,69.266 93.479,75.206 86.959,80.666C91.949,77.606 97.149,75.006 101.989,71.676C106.689,68.446 111.259,64.966 115.549,61.196C123.85,53.916 130.659,45.406 135.889,35.706C134.259,39.136 132.469,42.496 130.429,45.696C131.06,49.416 130.23,53.006 128.86,56.476C128.45,57.516 121.57,72.976 119.49,76.616C122.45,74.356 124.59,71.536 126.65,68.466C133.6,58.066 137.07,50.746 139,37.916C138.601,42.136 138.021,46.356 136.89,50.456C138.951,55.556 140.231,56.936 141.39,61.336C143.51,69.376 143.93,77.726 143.71,86.006C145.97,74.626 147.11,63.366 145.47,51.796C147.88,65.746 146.96,74.116 146.96,74.116C147.46,76.316 147.84,78.536 148.12,80.776C149.33,90.456 148.22,100.086 146.31,109.596C155.709,91.456 158.259,65.946 153.539,46.325C155.579,53.155 156.699,60.145 156.879,67.275C157.06,74.175 156.829,81.285 155.65,88.095C157.94,82.105 160.062,72.388 160.062,70.539C160.342,74.499 158.489,81.005 156.85,87.045Z" style="fill-rule:nonzero;"/>
                        </g>
                        <g id="svga-group-glasses-single-move">
                            <g id="svga-group-glasses-single">
                                <path id="SvgjsPath4354" d="M91.69,89.23C87.98,96.69 77.57,97.38 73.91,97.38L61.79,97.38C56.04,97.38 50.93,89.39 50.93,83.09L50.93,76.93C50.93,76.7 51.04,76.47 51.22,76.23L91.69,89.23ZM110.37,76.65C108.3,78.08 106.98,80 106.98,82.57L106.98,83.07C106.98,85.51 107.48,87.54 108.32,89.22C112.03,96.68 122.44,97.37 126.1,97.37L138.22,97.37C142.31,97.37 146.07,93.32 147.9,88.71L110.37,76.65Z" style="fill:white;fill-opacity:0.2;fill-rule:nonzero;"/>
                                <path id="SvgjsPath4355" d="M91.69,89.23L51.21,76.22C52.2,74.9 55.61,73.52 57.36,73.31C59.54,73.05 63.99,72.62 69.3,72.62C78.16,72.62 93.02,73.91 93.02,82.58L93.02,83.08C93.02,85.52 92.52,87.55 91.69,89.23ZM149.07,83.08L149.07,76.92C149.07,76.69 148.96,76.46 148.78,76.22C147.79,74.9 144.38,73.52 142.63,73.31C140.45,73.05 136,72.62 130.69,72.62C124.46,72.62 115.28,73.26 110.36,76.65L147.89,88.71C148.64,86.85 149.07,84.9 149.07,83.08Z" style="fill:white;fill-opacity:0.4;fill-rule:nonzero;"/>
                                <path id="SvgjsPath4356" d="M149.73,78.68L149.73,76.92C149.73,74.82 144.83,72.93 142.72,72.67C133.3,71.55 111.2,70.65 107.02,79.43C104.24,78.51 101.14,78.15 100,78.14C98.86,78.15 95.76,78.51 92.98,79.43C88.81,70.66 66.71,71.55 57.28,72.67C55.17,72.92 50.27,74.81 50.27,76.92L50.27,78.68L45.5,78.68L45.5,81.04L50.27,81.04L50.27,83.08C50.27,89.38 55.42,98.02 61.78,98.02L73.9,98.02C82.23,98.02 93.66,94.89 93.66,83.08L93.66,82.58C93.66,81.82 93.56,81.12 93.37,80.46C96.83,79.39 98.92,79.17 99.99,79.15C101.06,79.16 103.15,79.39 106.61,80.46C106.42,81.12 106.32,81.82 106.32,82.58L106.32,83.08C106.32,94.89 117.76,98.02 126.08,98.02L138.2,98.02C144.56,98.02 149.71,89.38 149.71,83.08L149.71,81.04L154.48,81.04L154.48,78.68L149.73,78.68ZM92.86,83.08C92.86,96.19 78.36,97.21 73.91,97.21L61.79,97.21C56.13,97.21 51.09,89.31 51.09,83.08L51.09,76.92C51.09,75.61 55.18,73.74 57.38,73.48C59.55,73.22 64,72.79 69.3,72.79C78.1,72.79 92.85,74.06 92.85,82.58L92.85,83.08L92.86,83.08ZM148.91,83.08C148.91,89.31 143.87,97.21 138.21,97.21L126.09,97.21C121.64,97.21 107.14,96.19 107.14,83.08L107.14,82.58C107.14,74.06 121.9,72.79 130.69,72.79C136,72.79 140.44,73.22 142.61,73.48C144.81,73.74 148.91,75.61 148.91,76.92L148.91,83.08Z" style="fill:rgb(38,18,11);fill-rule:nonzero;"/>
                            </g>
                        </g>
                    </g>
                </g>
            </g>
        </g>
    </g>
    <defs>
        <linearGradient id="_Linear1" x1="0" y1="0" x2="1" y2="0" gradientUnits="userSpaceOnUse" gradientTransform="matrix(2.13817e-15,-34.919,34.919,2.13817e-15,99.98,171.27)"><stop offset="0" style="stop-color:rgb(228,179,171);stop-opacity:0.8"/><stop offset="0.7" style="stop-color:rgb(197,121,109);stop-opacity:1"/><stop offset="1" style="stop-color:rgb(197,121,109);stop-opacity:1"/></linearGradient>
        <linearGradient id="_Linear2" x1="0" y1="0" x2="1" y2="0" gradientUnits="userSpaceOnUse" gradientTransform="matrix(1.83697e-16,-3,3,1.83697e-16,100,142)"><stop offset="0" style="stop-color:rgb(235,195,189);stop-opacity:1"/><stop offset="0.1" style="stop-color:rgb(235,195,189);stop-opacity:1"/><stop offset="1" style="stop-color:rgb(228,179,171);stop-opacity:1"/></linearGradient>
        <radialGradient id="_Radial3" cx="0" cy="0" r="1" gradientUnits="userSpaceOnUse" gradientTransform="matrix(40,0,0,40,100,113)"><stop offset="0" style="stop-color:rgb(255,244,243);stop-opacity:0.5"/><stop offset="0.9" style="stop-color:rgb(243,212,207);stop-opacity:0"/><stop offset="1" style="stop-color:rgb(243,212,207);stop-opacity:0"/></radialGradient>
        <radialGradient id="_Radial4" cx="0" cy="0" r="1" gradientUnits="userSpaceOnUse" gradientTransform="matrix(36,0,0,36,100,57)"><stop offset="0" style="stop-color:rgb(255,244,243);stop-opacity:0.5"/><stop offset="0.9" style="stop-color:rgb(243,212,207);stop-opacity:0"/><stop offset="1" style="stop-color:rgb(243,212,207);stop-opacity:0"/></radialGradient>
    </defs>
</svg>
