<?xml version="1.0" encoding="UTF-8" standalone="no"?>
<!DOCTYPE svg PUBLIC "-//W3C//DTD SVG 1.1//EN" "http://www.w3.org/Graphics/SVG/1.1/DTD/svg11.dtd">
<svg width="100%" height="100%" viewBox="0 0 3334 3334" version="1.1" xmlns="http://www.w3.org/2000/svg" xmlns:xlink="http://www.w3.org/1999/xlink" xml:space="preserve" xmlns:serif="http://www.serif.com/" style="fill-rule:evenodd;clip-rule:evenodd;">
    <g transform="matrix(5.55556,0,0,5.55556,0,0)">
        <g id="svga-group-wrapper" transform="matrix(3,0,0,3,0,0)">
            <g id="svga-group-backs-single">
                <rect id="SvgjsPath4388" x="-25" y="-25" width="250" height="250" style="fill:rgb(192,213,255);fill-rule:nonzero;"/>
            </g>
            <g id="svga-group-humanwrap-move">
                <g id="svga-group-humanwrap">
                    <g id="svga-group-hair-back-move">
                        <g id="svga-group-hair-back">
                            <path id="SvgjsPath4049" d="M156.79,87.186C158.035,82.541 158.87,77.252 159.102,72.972L170.631,72.972C172.465,76.897 173.289,79.052 174.531,80.905C172.691,80.185 170.566,79.438 166.722,75.933C167.04,76.787 171.046,88.42 171.309,90.426C167.918,87.633 166.674,84.614 164.596,82.363C165.802,90.734 166.469,95.159 161.942,105.867C159.181,90.365 157.449,87.622 156.79,87.186ZM34.506,74.599C34.289,83.555 31.608,90.155 22.159,98.045C25.119,97.105 27.769,95.615 32.43,92.985C33.23,90.855 33.94,88.424 34.22,86.185C33.4,94.085 28.622,99.532 32.946,108.862C33.552,101.079 36.2,95.553 43.039,91.107C42.823,91.256 42.323,91.62 41.667,92.196C42.414,91.584 43.194,91.008 44,90.468C42.433,85.633 41.139,78.439 41.091,74.599L34.506,74.599ZM33.478,81.232C31.993,79.387 30.638,76.568 30.056,74.599L34.497,74.599C34.344,75.986 34.038,79.067 33.478,81.232Z" style="fill:rgb(27,20,28);fill-rule:nonzero;"/>
                            <path id="SvgjsPath4050" d="M173.749,80.275C172.491,78.397 171.459,76.225 170.46,74.071L171.542,74.071C172.562,76.319 173.721,79.084 175.039,81.265C171.529,80.225 169.759,79.175 167.129,76.545C170.299,84.415 170.789,88.255 172.319,91.485C167.829,88.765 167.169,85.425 164.829,82.755C166.339,90.545 167.809,96.675 161.399,107.845C161.399,101.775 160.109,93.994 157.849,88.045C161.138,91.195 161.668,101.565 161.928,105.125C162.939,102.735 163.779,100.285 164.439,97.755C166.189,91.075 164.619,84.975 164.289,81.955C166.202,83.193 168.34,87.827 171.189,90.175C169.388,85.795 169.189,83.565 165.79,74.635C168.6,77.325 171.119,79.245 173.749,80.275ZM32.749,108.115C29.369,99.995 33.399,94.085 34.219,86.185C33.939,88.425 33.129,90.555 32.329,92.685C27.669,95.315 25.719,96.805 22.759,97.745C32.208,89.855 34.288,83.755 34.506,74.799L34.398,74.799C34.245,76.186 33.939,78.6 33.379,80.765C31.894,78.92 30.82,76.549 30.238,74.58L29.034,74.591C29.729,76.843 31.092,79.516 33.109,81.685C31.479,88.675 26.269,93.985 21.089,98.565C24.419,98.465 28.969,95.785 31.879,93.905C29.789,99.605 29.649,104.565 33.649,111.475C33.403,100.789 38.93,94.597 41.666,92.195C42.322,91.619 42.822,91.255 43.038,91.106C36.199,95.554 33.355,100.333 32.749,108.115Z" style="fill-rule:nonzero;"/>
                        </g>
                    </g>
                    <g id="svga-group-humanbody-single">
                        <path id="SvgjsPath2780" d="M190.858,199.866C184.85,189.708 177.384,187.893 171.23,185.93C164.907,183.914 151.884,182.752 144.781,181.33C137.921,179.957 121.628,175.541 121.442,167.842C121.25,159.776 125.733,127.752 125.733,127.752L74.005,127.752C74.005,127.752 78.492,159.775 78.299,167.842C78.115,175.541 61.819,179.957 54.958,181.33C47.854,182.752 34.833,183.914 28.51,185.93C22.354,187.893 14.886,189.707 8.878,199.866C5.234,206.026 2.87,215.999 2.87,226.999L196.87,226.999C196.869,215.999 194.509,206.026 190.858,199.866Z" style="fill:rgb(243,212,207);fill-rule:nonzero;"/>
                        <path id="SvgjsPath2781" d="M121.442,167.843C123.937,178.772 139.607,181.541 147.735,183.168C169.644,187.547 181.507,188.302 190.032,202.707C192.935,207.623 195.491,218.571 195.994,226.86C197.829,227.151 196.525,209.428 190.858,199.866C181.116,183.394 161.769,184.731 144.781,181.331C137.921,179.958 121.628,175.542 121.442,167.843ZM78.558,167.843C78.372,175.542 62.079,179.958 55.219,181.331C38.231,184.731 18.884,183.394 9.142,199.866C3.475,209.429 2.171,227.151 4.006,226.86C4.509,218.571 7.065,207.623 9.968,202.707C18.492,188.302 30.356,187.547 52.265,183.168C60.393,181.541 76.063,178.771 78.558,167.843Z" style="fill:rgb(255,244,243);fill-rule:nonzero;"/>
                        <path id="SvgjsPath2782" d="M51.206,189.513C51.206,189.513 79.847,189.812 84.679,191.398C86.993,192.156 93.051,197.031 93.051,197.031C93.051,197.031 86.495,193.861 84.393,193.273C79.51,191.909 51.206,189.513 51.206,189.513ZM99.795,199.999C101.848,199.958 107.682,196.2 107.682,196.2C107.682,196.2 102.108,198.259 100.34,198.36C98.849,198.446 93.974,197.122 93.974,197.122C93.974,197.122 98.112,200.032 99.795,199.999ZM117.008,192.757C123.758,190.939 146.794,189.527 146.794,189.527C146.794,189.527 123.003,189.011 116.284,191.252C114.032,192.004 108.722,196.412 108.722,196.412C108.722,196.412 114.786,193.354 117.008,192.757Z" style="fill:rgb(228,179,171);fill-rule:nonzero;"/>
                        <path id="SvgjsPath2783" d="M190.858,199.866C181.117,183.395 161.736,184.724 144.781,181.331C137.921,179.958 121.628,175.542 121.442,167.843C121.25,159.777 125.733,127.753 125.733,127.753L74.005,127.753C74.005,127.753 78.492,159.776 78.299,167.843C78.115,175.542 61.819,179.958 54.958,181.331C47.854,182.753 34.833,183.915 28.51,185.931C22.354,187.894 14.886,189.708 8.878,199.867C5.234,206.027 2.87,216 2.87,227L196.87,227C196.869,215.999 194.509,206.026 190.858,199.866Z" style="fill:none;fill-rule:nonzero;stroke:rgb(197,121,109);stroke-width:1.5px;"/>
                    </g>
                    <g id="svga-group-chinshadow-single">
                        <path id="SvgjsPath4062" d="M100.002,171.27C111.21,171.27 116.59,167.457 120.94,163.492C121.522,154.595 123.609,138.574 124.586,131.337C109.802,129.584 89.878,129.595 75.156,131.369C76.127,138.552 78.18,154.303 78.784,163.233C83.185,167.29 88.551,171.27 100.002,171.27Z" style="fill:url(#_Linear1);fill-rule:nonzero;"/>
                    </g>
                    <g id="svga-group-clothes-single">
                        <path id="SvgjsPath4399" d="M2.258,224.437C-0.223,203.754 9.094,189.097 31.647,182.692C38.266,180.816 45.868,179.849 46.868,179.789C46.836,179.61 46.829,179.62 46.829,179.257L46.799,179.257C46.873,172.42 54.489,173.764 56.669,173.304C65.292,171.471 68.22,162.427 78.067,164.808C78.309,166.882 78.13,169.278 76.899,178.143C86.185,198.115 96.258,196.39 99.838,207.573C103.083,197.572 114.609,195.986 123.098,178.14C122.54,173.125 121.327,168.744 121.837,164.572L121.887,164.536C128.483,162.338 131.364,165.283 133.991,167.817C141.996,175.544 146.25,170.648 150.253,174.172C151.845,175.575 152.42,177.57 152.42,179.712C170.664,182.361 201.471,183.392 197.31,223.897L197.389,223.987C178.926,223.985 54.422,228.609 2.258,224.437Z" style="fill:rgb(203,233,238);fill-rule:nonzero;"/>
                        <path id="SvgjsPath4400" d="M100.187,206.617C103.796,197.558 114.627,195.437 122.805,178.733C122.885,178.641 123.096,178.226 123.362,177.677C123.227,176.117 123.049,174.489 122.328,172.778C121.886,169.924 121.532,167.254 121.832,164.664C123.512,165.153 125.103,165.736 126.194,166.928C127.795,168.676 126.58,171.704 125.046,174.618C122.164,187.172 114.949,196.237 100.187,206.617ZM168.869,197.402C171.369,206.236 173.036,215.569 171.034,224.53C172.704,224.489 173.322,224.449 174.874,224.412C175.566,215.002 173.869,204.736 168.869,197.402ZM132,199C121.087,205.366 110.115,207.816 100.201,216.276C90.285,207.839 79.207,206.365 68.295,200C63.295,198 55.623,190.896 50.935,185.896C65.685,208.271 76.244,201.922 99.869,217.004C123.494,201.922 134.119,207.047 148.869,184.672C144.182,189.673 137,197 132,199ZM99.796,207.68C96.187,198.621 85.778,195.438 77.6,178.734C77.52,178.642 77.309,178.227 77.043,177.678C77.178,176.118 76.823,174.405 77.543,172.693C77.985,169.839 78.178,167.508 77.878,164.919C76.198,165.408 75.301,165.737 74.211,166.929C72.61,168.677 73.825,171.705 75.359,174.619C78.241,187.172 85.034,197.3 99.796,207.68ZM28.536,196.402C24.869,204.402 24.839,215.002 25.531,224.412C27.083,224.449 27.701,224.489 29.371,224.53C27.369,215.569 27.869,205.402 28.536,196.402ZM99.869,209.409C113.827,205.229 128.673,197.58 141.013,178.894C129.871,193.914 113.308,202.781 100.186,208.221C86.65,203.32 70.444,193.561 60.996,180.445C72.066,198.567 85.911,205.229 99.869,209.409Z" style="fill:rgb(168,215,223);fill-rule:nonzero;"/>
                        <path id="SvgjsPath4401" d="M197.389,223.985C197.292,223.985 197.173,223.986 197.071,223.986C196.712,216.378 195.998,208.596 191.995,201.735C183.995,186.735 166.995,186.36 151.001,183C149.001,183 147.969,177.459 146.495,175.985C145.245,174.735 135.62,174.735 132.569,166.477C133.063,166.915 133.532,167.372 133.992,167.815C141.997,175.542 146.251,170.646 150.254,174.17C151.846,175.573 152.421,177.568 152.421,179.71C170.665,182.359 201.472,183.39 197.311,223.895L197.389,223.985ZM2.017,224.985C2.114,224.985 2.233,224.986 2.335,224.986C2.694,217.378 3.508,211.19 7.511,204.329C15.511,189.329 32.81,185.962 48.804,182.601C51.743,181.485 50.195,179.359 51.668,177.885C52.918,176.635 59.868,176.61 69.493,166.485C68.999,166.923 66.873,167.372 66.413,167.815C58.408,175.542 52.368,173.36 50.151,174.17C47.416,175.17 46.993,177.593 46.993,179.734C28.749,182.383 -0.001,187.734 2.095,224.894L2.017,224.985Z" style="fill:rgb(241,252,253);fill-rule:nonzero;"/>
                        <path id="SvgjsPath4402" d="M196.159,204.835C189.845,182.39 168.045,182.03 152.519,179.625C152.519,171.23 144.621,172.899 140.989,172.125C132.977,170.408 133.228,161.127 121.749,164.476C121.266,168.44 122.194,171.916 123.009,178.096C114.593,195.764 102.92,197.749 99.84,207.245C96.468,196.709 86.17,197.766 77,178.155C78.274,168.927 78.403,166.79 78.16,164.725C69.407,162.727 67.433,168.404 59.52,172.195C54.72,174.444 53.361,172.423 49.24,174.435C47.53,175.265 46.67,177.515 46.73,179.345C46.72,179.355 46.73,179.355 46.73,179.355C46.73,179.475 46.73,179.584 46.75,179.695C45.75,179.76 38.153,180.744 31.62,182.595C8.799,189.075 -0.338,203.977 2.17,224.534C12.3,224.534 22.284,228.262 177.45,224.465C184.652,224.284 196.876,224.084 197.389,224.084C197.569,223.085 198.475,213.097 196.159,204.835ZM2.309,224.315C1.163,197.019 19.544,184.539 46.649,180.265C61.965,205.667 80.712,201.967 99.669,216.175C82.486,201.899 64.48,203.79 47.169,179.925C46.975,177.928 48.02,175.716 50.179,174.855C51.709,174.254 53.349,174.425 54.949,174.435C60.989,174.485 65.639,169.754 70.109,166.285C72.239,164.865 75.409,164.795 77.949,165.185C78.147,168.487 76.872,173.456 76.449,176.975C75.559,175.015 74.719,173.004 73.879,170.995C84.502,202.17 95.094,195.11 99.829,208.045C98.829,207.766 81.927,201.693 68.459,188.306C65.599,185.475 59.932,179.237 59.499,178.656C76.175,201.22 86.83,202.371 99.879,208.186C99.879,208.196 99.889,208.216 99.889,208.226C99.9,208.259 99.953,208.414 99.969,208.446C100.029,208.416 100.099,208.386 100.169,208.366C100.189,208.346 100.209,208.336 100.239,208.336C102.046,207.454 113.927,203.317 122.968,197.107C132.277,190.704 142.893,176.826 142.099,177.827C126.543,193.641 124.141,197.227 100.168,208.197C100.148,208.197 100.128,208.187 100.108,208.177C100.088,208.067 100.058,207.956 100.018,207.847C100.028,207.796 100.048,207.746 100.068,207.697C104.28,196.141 116.655,200.607 126.908,168.917C125.858,171.657 124.758,174.357 123.518,176.997C123.129,172.348 121.777,168.692 121.927,164.867C123.704,164.274 128.525,163.994 129.858,165.327C135.424,170.082 135.87,173.567 144.938,173.567C147.838,173.586 151.641,173.951 152.068,179.277C151.538,180.063 147.565,184.748 143.808,188.477C130.653,201.559 118.885,201.81 100.678,215.727C101.128,215.727 102.048,214.767 102.408,214.517C116.644,204.416 126.877,204.572 139.968,193.876C145.999,188.949 151.806,181.066 152.428,180.066C152.449,180.076 152.479,180.076 152.498,180.076C176.521,184.208 198.052,188.14 197.108,223.906C89.435,223.233 55.562,226.094 2.309,224.315Z" style="fill:rgb(106,180,192);fill-rule:nonzero;"/>
                    </g>
                    <g id="svga-group-head">
                        <g id="svga-group-ears-left-move">
                            <g id="svga-group-ears-left">
                                <path id="SvgjsPath3614" d="M47.001,83.974C45.625,81.661 41.363,75.977 37.021,77.371C34.272,78.253 33.728,81.136 33.286,83.682C32.698,87.068 33.757,93.765 34.675,96.185C35.556,98.51 38.208,103.001 39.939,104.712C42.069,106.812 44.714,113.505 45.133,114.199C45.793,115.296 46.669,116.944 49.255,116.737C52.108,116.508 53.839,114.995 55.111,114.738C58.253,114.109 50.582,89.995 47.001,83.974Z" style="fill:rgb(243,212,207);fill-rule:nonzero;stroke:rgb(197,121,109);stroke-width:1.5px;"/>
                                <path id="SvgjsPath3615" d="M44.197,97.997C44.065,97.449 44.204,96.527 44.339,95.635C44.463,94.823 44.579,94.056 44.508,93.514C44.241,91.482 42.735,87.621 41.751,85.529C40.619,83.122 38.788,80.09 36.489,79.308C35.539,78.984 34.914,79.371 34.551,79.764C34.285,80.053 34.226,80.391 34.313,80.431C34.399,80.471 34.598,80.191 34.885,79.927C35.12,79.711 35.464,79.525 35.936,79.564C35.746,80.575 34.769,86.054 35.192,89.789C35.525,92.727 36.785,94.92 36.982,95.249C37.011,95.595 37.059,95.934 37.13,96.263C38.059,100.55 42.101,105.426 43.508,107.021C43.767,107.316 44.039,107.491 44.106,107.419C44.172,107.347 44.012,107.055 43.753,106.759C42.365,105.174 38.362,100.317 37.464,96.18C36.512,91.791 39.782,85.284 40.512,83.908C40.883,84.554 41.199,85.175 41.442,85.693C41.632,86.099 41.844,86.574 42.061,87.088C41.632,87.806 38.627,93.046 39.723,97.241C40.129,98.787 41.958,100.781 43.17,101.327C43.837,101.628 44.089,102.077 44.379,102.598C44.715,103.202 45.097,103.886 46.207,104.382C46.432,104.484 46.636,104.524 46.817,104.524C47.13,104.524 47.368,104.398 47.542,104.248C47.56,104.514 47.559,104.852 47.551,105.165C47.539,105.569 47.593,105.902 47.688,105.91C47.782,105.918 47.884,105.597 47.895,105.193C47.911,104.697 47.908,104.083 47.823,103.79C47.575,102.925 46.815,101.949 46.01,100.915C45.221,99.896 44.403,98.844 44.197,97.997ZM36.95,94.196C34.773,87.465 37.606,81.656 38.094,80.732C38.944,81.507 39.694,82.543 40.304,83.556C39.86,84.365 37.041,89.669 36.95,94.196ZM46.341,104.042C45.337,103.595 45.002,102.991 44.675,102.409C44.382,101.882 44.077,101.337 43.306,100.989C43.138,100.914 42.954,100.798 42.764,100.666C40.278,94.76 43.036,92.178 43.727,91.649C43.938,92.371 44.096,93.033 44.166,93.564C44.229,94.052 44.114,94.827 43.999,95.576C43.857,96.505 43.713,97.466 43.862,98.088C44.088,99.014 44.931,100.097 45.746,101.145C46.469,102.074 47.212,103.033 47.467,103.815C47.359,103.972 47.017,104.345 46.341,104.042Z" style="fill:rgb(197,121,109);fill-rule:nonzero;"/>
                            </g>
                        </g>
                        <g id="svga-group-ears-right-move">
                            <g id="svga-group-ears-right">
                                <path id="SvgjsPath3616" d="M152.736,83.974C154.113,81.661 158.375,75.977 162.716,77.371C165.466,78.253 166.009,81.136 166.452,83.682C167.04,87.068 165.981,93.765 165.063,96.185C164.182,98.51 161.53,103.001 159.797,104.712C157.668,106.812 155.022,113.505 154.604,114.199C153.946,115.296 153.069,116.944 150.483,116.737C147.629,116.508 145.899,114.995 144.626,114.738C141.484,114.109 149.156,89.995 152.736,83.974Z" style="fill:rgb(243,212,207);fill-rule:nonzero;stroke:rgb(197,121,109);stroke-width:1.5px;"/>
                                <path id="SvgjsPath3617" d="M153.727,100.913C152.922,101.946 152.163,102.922 151.914,103.788C151.828,104.081 151.826,104.695 151.842,105.191C151.854,105.595 151.955,105.916 152.049,105.908C152.143,105.9 152.197,105.567 152.186,105.163C152.178,104.85 152.178,104.512 152.196,104.246C152.37,104.396 152.608,104.522 152.921,104.522C153.103,104.522 153.306,104.482 153.53,104.38C154.639,103.884 155.022,103.2 155.358,102.596C155.647,102.076 155.901,101.627 156.567,101.325C157.78,100.779 159.608,98.785 160.014,97.239C161.11,93.045 158.106,87.804 157.676,87.086C157.893,86.573 158.106,86.098 158.295,85.691C158.539,85.173 158.854,84.552 159.225,83.906C159.955,85.283 163.225,91.789 162.274,96.178C161.378,100.315 157.374,105.172 155.985,106.757C155.727,107.053 155.567,107.345 155.633,107.417C155.699,107.488 155.971,107.313 156.231,107.019C157.637,105.423 161.68,100.548 162.61,96.261C162.68,95.932 162.727,95.593 162.756,95.247C162.953,94.918 164.215,92.724 164.547,89.787C164.969,86.052 163.992,80.573 163.803,79.562C164.276,79.523 164.617,79.708 164.854,79.925C165.141,80.189 165.34,80.469 165.426,80.429C165.512,80.389 165.453,80.051 165.188,79.762C164.825,79.369 164.2,78.983 163.25,79.306C160.951,80.088 159.119,83.12 157.988,85.527C157.004,87.62 155.498,91.48 155.23,93.512C155.158,94.054 155.275,94.821 155.4,95.633C155.535,96.525 155.673,97.447 155.541,97.995C155.336,98.844 154.518,99.896 153.727,100.913ZM159.434,83.555C160.045,82.542 160.795,81.506 161.645,80.731C162.133,81.656 164.965,87.464 162.79,94.195C162.697,89.669 159.879,84.365 159.434,83.555ZM152.27,103.816C152.524,103.034 153.268,102.075 153.991,101.146C154.807,100.098 155.649,99.015 155.876,98.089C156.024,97.467 155.88,96.506 155.739,95.577C155.624,94.828 155.509,94.053 155.573,93.565C155.641,93.034 155.8,92.372 156.011,91.65C156.702,92.179 159.46,94.761 156.976,100.667C156.785,100.799 156.601,100.915 156.433,100.99C155.662,101.338 155.359,101.883 155.064,102.41C154.738,102.992 154.402,103.596 153.398,104.043C152.721,104.345 152.379,103.972 152.27,103.816Z" style="fill:rgb(197,121,109);fill-rule:nonzero;"/>
                            </g>
                        </g>
                        <g id="svga-group-faceshape-wrap">
                            <g id="svga-group-faceshape-single">
                                <path id="SvgjsPath4059" d="M100.002,0.867C66.384,0.919 39.082,28.09 39.134,61.564C39.142,66.88 39.838,72.035 41.136,76.946L41.137,76.946C41.15,77 52.68,114.915 55.158,127.369C56.54,134.314 64.954,140.572 72.423,145.682C79.39,150.449 82.952,159.27 100.003,159.27C117.054,159.27 120.616,150.449 127.583,145.682C135.051,140.573 143.466,134.315 144.848,127.369C147.327,114.915 158.857,76.999 158.868,76.946L158.87,76.946C160.168,72.035 160.864,66.88 160.872,61.564C160.923,28.09 133.62,0.919 100.002,0.867Z" style="fill:rgb(243,212,207);fill-rule:nonzero;"/>
                                <path id="SvgjsPath4060" d="M146.772,22.738C154.25,32.921 158.689,45.608 158.67,59.364C158.661,64.68 157.991,69.835 156.74,74.746L156.738,74.746C156.727,74.799 145.614,112.715 143.226,125.169C141.891,132.114 133.755,138.372 126.558,143.482C119.84,148.249 116.437,157.07 100.001,157.07C83.567,157.07 80.159,148.249 73.444,143.482C66.247,138.373 58.109,132.115 56.779,125.169C54.388,112.715 43.275,74.799 43.264,74.746C42.012,69.835 41.342,64.68 41.333,59.364C41.312,45.612 45.749,32.929 53.222,22.747C44.41,33.272 39.11,46.803 39.133,61.564C39.141,66.88 39.837,72.035 41.135,76.946L41.136,76.946C41.15,77 52.68,114.915 55.158,127.369C56.54,134.314 64.954,140.572 72.423,145.682C79.39,150.449 82.952,159.27 100.003,159.27C117.054,159.27 120.616,150.449 127.583,145.682C135.051,140.573 143.466,134.315 144.848,127.369C147.327,114.915 158.857,76.999 158.868,76.946L158.87,76.946C160.168,72.035 160.864,66.88 160.872,61.564C160.894,46.799 155.589,33.264 146.772,22.738Z" style="fill:rgb(235,195,189);fill-rule:nonzero;"/>
                                <path id="SvgjsPath4061" d="M100.002,0.867C66.384,0.919 39.082,28.09 39.134,61.564C39.142,66.88 39.838,72.035 41.136,76.946L41.137,76.946C41.15,77 52.68,114.915 55.158,127.369C56.54,134.314 64.954,140.572 72.423,145.682C79.39,150.449 82.952,159.27 100.003,159.27C117.054,159.27 120.616,150.449 127.583,145.682C135.051,140.573 143.466,134.315 144.848,127.369C147.327,114.915 158.857,76.999 158.868,76.946L158.87,76.946C160.168,72.035 160.864,66.88 160.872,61.564C160.923,28.09 133.62,0.919 100.002,0.867Z" style="fill:none;fill-rule:nonzero;stroke:rgb(197,121,109);stroke-width:1.5px;"/>
                            </g>
                        </g>
                        <g id="svga-group-mouth-single-move">
                            <g id="svga-group-mouth-single">
                                <path id="SvgjsPath4383" d="M100.457,141.651C97.217,141.651 96.76,138.973 96.76,138.973L103.885,138.785C103.884,138.785 103.307,141.651 100.457,141.651Z" style="fill:url(#_Linear2);fill-rule:nonzero;"/>
                                <path id="SvgjsPath4387" d="M99.886,139.415C98.218,139.415 96.948,139.244 96.859,139.231C96.722,139.211 96.627,139.085 96.646,138.949C96.665,138.811 96.793,138.722 96.928,138.735C96.965,138.741 100.628,139.235 103.694,138.54C103.84,138.51 103.964,138.597 103.994,138.729C104.024,138.864 103.939,138.998 103.806,139.028C102.485,139.327 101.082,139.415 99.886,139.415ZM100.071,134.142C98.78,134.142 97.529,133.665 96.271,133.432C94.863,133.17 93.459,133.394 92.05,133.528C90.848,133.642 89.666,133.625 88.476,133.41C87.91,133.307 87.067,133.245 86.583,132.919C86.087,132.584 86.179,131.805 86.738,131.595C87.266,131.395 88.088,131.811 88.62,131.912C89.228,132.028 89.845,132.101 90.465,132.11C91.831,132.128 93.184,131.852 94.548,131.804C95.993,131.756 97.383,132.156 98.779,132.462C100.026,132.735 101.104,132.552 102.332,132.288C104.462,131.829 106.591,131.715 108.761,131.618C109.834,131.569 110.928,131.362 111.951,131.035C112.387,130.894 112.904,130.523 113.362,130.774C113.89,131.064 113.865,131.856 113.32,132.111C111.539,132.948 109.54,133.083 107.605,133.172C106.37,133.228 105.13,133.289 103.911,133.506C102.64,133.731 101.371,134.142 100.071,134.142Z" style="fill:rgb(197,121,109);fill-rule:nonzero;"/>
                            </g>
                        </g>
                        <g id="svga-group-facehighlight-single">
                            <path id="SvgjsPath2772" d="M140.204,113.007C140.239,135.282 122.209,153.372 99.931,153.403C77.657,153.439 59.57,135.41 59.535,113.131C59.501,90.857 77.53,72.77 99.808,72.735C122.083,72.701 140.171,90.73 140.204,113.007Z" style="fill:url(#_Radial3);fill-rule:nonzero;"/>
                            <path id="SvgjsPath2776" d="M135,55.999C135,75.328 119.329,90.999 100,90.999C80.671,90.999 65,75.328 65,55.999C65,36.67 80.671,20.999 100,20.999C119.329,20.999 135,36.67 135,55.999Z" style="fill:url(#_Radial4);fill-rule:nonzero;"/>
                        </g>
                        <g id="svga-group-eyebrows-left-move">
                            <g id="svga-group-eyebrows-left-rotate">
                                <g id="svga-group-eyebrows-left">
                                    <path id="SvgjsPath4369" d="M54.351,74.996C64.094,59.881 90.842,80.144 92.369,73.805C92.668,72.534 91.962,71.79 90.805,71.313C77.184,65.807 59.156,61.18 54.351,74.996Z" style="fill:rgb(42,35,43);fill-rule:nonzero;"/>
                                </g>
                            </g>
                        </g>
                        <g id="svga-group-eyebrows-right-move">
                            <g id="svga-group-eyebrows-right-rotate">
                                <g id="svga-group-eyebrows-right">
                                    <path id="SvgjsPath4370" d="M145.649,74.996C135.906,59.881 109.158,80.144 107.631,73.805C107.332,72.534 108.038,71.79 109.195,71.313C122.816,65.807 140.844,61.18 145.649,74.996Z" style="fill:rgb(42,35,43);fill-rule:nonzero;"/>
                                </g>
                            </g>
                        </g>
                        <g id="svga-group-nose-single-move">
                            <g id="svga-group-nose-single">
                                <path id="SvgjsPath3937" d="M105.496,114.749C106.385,120.788 101.478,118.101 99.844,118.364C98.538,118.577 93.589,120.347 93.882,114.67C94.02,111.969 96.65,109.423 99.736,109.423C102.626,109.423 104.913,110.802 105.496,114.749Z" style="fill:white;fill-opacity:0.2;fill-rule:nonzero;"/>
                                <path id="SvgjsPath3938" d="M103.762,116.205C103.791,116.301 102.105,118.215 102.022,118.135C101.583,118.451 100.831,118.585 100.003,118.593C99.445,118.598 98.946,118.123 98.543,118.166C98.528,118.103 94.898,116.758 94.675,116.235C94.341,116.31 94.099,116.471 94.003,116.711C93.755,117.335 94.57,118.258 95.823,118.774C96.442,119.028 97.384,119.208 97.872,119.176C98.203,119.654 98.778,119.919 99.856,119.91C101.045,119.898 102.192,119.627 102.405,119.067C102.697,119.245 103.805,118.998 104.219,118.797C104.676,118.575 105.434,117.94 105.452,117.164C105.467,116.506 104.473,116.081 103.762,116.205Z" style="fill:rgb(228,179,171);fill-rule:nonzero;"/>
                                <path id="SvgjsPath3939" d="M98.529,118.552C98.455,118.732 98.293,118.861 98.08,118.944C97.794,118.478 97.205,117.999 96.445,117.666C95.561,117.282 94.697,117.208 94.175,117.416C93.993,117.12 93.932,116.833 94.033,116.595C94.293,115.975 95.51,115.915 96.753,116.454C97.995,116.995 98.79,117.936 98.529,118.552ZM104.806,117.053C104.96,117.011 105.086,117.065 105.207,117.089C105.279,116.494 104.792,116.066 103.97,116.085C103.005,116.109 101.951,116.743 101.619,117.502C101.339,118.147 101.672,118.668 102.37,118.798C102.381,118.693 102.845,117.594 104.806,117.053Z" style="fill:rgb(197,121,109);fill-rule:nonzero;"/>
                            </g>
                        </g>
                        <g id="svga-group-hair-front">
                            <path id="SvgjsPath4052" d="M142.198,28.734C132.961,19.944 97.649,27.973 87.001,28.973C76.86,29.755 63.475,-1.366 43.396,78.452C43.441,82.291 44.686,89.085 46.192,93.92C46.337,93.819 46.478,93.712 46.623,93.614C46.623,93.614 46.105,96.871 52.681,108.004C52.333,99.931 53.893,94.111 55.173,86.59C70.882,66.603 85.562,61.916 96.733,58.435C89.233,67.19 81.814,75.225 78.568,84C92.215,74.424 110.977,55.116 110.977,55.116C110.977,55.116 109.574,59.819 83.292,84C94.235,81.321 114.637,70.321 128.928,49.049C131.674,53.549 116.528,79.843 116.101,80.85C123.764,74.764 134.18,66.214 136.856,56.23C136.856,56.23 138.427,60.273 139.518,64.865C142.396,77.027 142.422,92.146 142.947,95.99C144.612,87.269 144.872,77.508 144.869,77.635C148.774,95.528 145.288,108.029 145.221,112.359C150.419,101.924 155.825,89.462 157.398,77.825C157.396,77.824 145.779,27.134 142.198,28.734Z" style="fill:rgb(42,35,43);fill-opacity:0.1;fill-rule:nonzero;"/>
                            <path id="SvgjsPath4053" d="M170.618,67.866C170.538,62.476 169.498,53.946 167.697,49.086C170.977,52.476 175.107,56.476 178.477,58.586C174.017,54.726 172.636,51.426 162.556,30.286C156.367,17.306 152.269,3.536 140.178,1.916C136.099,1.356 132.128,2.906 128.399,4.506C118.789,-4.284 106.809,-7.825 95.729,-6.825C61.849,-4.315 52.812,17.566 34.692,21.946C37.532,22.776 42.308,21.478 45.028,20.198C41.278,25.258 42.606,24.729 34.336,32.999C30.966,36.339 27.853,40.443 23.793,42.853C29.242,42.172 32.105,38.019 40.075,33.749C38.925,35.589 34.826,41.843 28.146,48.243C25.276,50.983 20.547,54.827 17.247,57.157C19.657,56.197 26.736,53.431 32.855,48.005C29.686,52.536 20.594,60.945 24.71,77.886C25.542,70.48 24.709,61.471 31.758,56.991C30.974,60.292 27.944,67.213 30.155,74.699L41.09,74.699C41.137,78.538 42.431,85.633 43.999,90.468C44.15,90.367 44.296,90.26 44.448,90.162C44.448,90.162 44.95,93.419 51.791,104.552C51.427,96.479 52.013,90.659 53.344,83.138C69.689,63.151 84.963,58.464 96.585,54.983C88.781,63.738 82.771,73.82 79.392,82.595C90.438,70.935 113.226,52.828 113.226,52.828C113.226,52.828 112.862,57.694 85.514,81.874C94.963,76.079 115.212,66.868 130.08,45.596C132.938,50.096 119.261,76.39 118.816,77.397C126.79,71.311 133.462,60.761 136.251,50.777C136.251,50.777 139.967,56.82 141.098,61.412C144.093,73.574 143.082,83.693 143.626,87.537C145.358,78.816 146.668,74.055 146.665,74.182C150.731,92.075 146.061,106.576 145.993,110.906C151.399,100.472 158.065,85.909 159.702,74.272L171.3,74.272C170.631,69.944 171.127,69.932 170.618,67.866Z" style="fill:rgb(42,35,43);fill-rule:nonzero;"/>
                            <path id="SvgjsPath4054" d="M177.236,37.286C173.425,37.116 171.36,37.385 166.88,37.025C166.21,35.495 164.142,31.475 163.442,29.955C166.941,33.055 174.206,36.976 177.236,37.286Z" style="fill:rgb(12,8,12);fill-rule:nonzero;"/>
                            <path id="SvgjsPath4055" d="M40.385,33.266C32.598,37.49 29.08,41.724 24.729,42.445C28.789,40.035 31.189,36.455 34.559,33.115C42.829,24.845 41.819,24.815 45.569,19.755C42.965,20.98 38.452,22.592 35.58,22.002C49.1,20.922 63.972,3.71 80,6C63.505,7.833 49.533,19.744 40.385,33.266ZM118.817,77.397C130.005,54.251 130.721,50.819 130.081,45.596C116.649,64.813 89.205,79.612 85.515,81.874C101.845,67.436 109.082,57.516 111.816,53.95C89.192,71.938 89.208,72.234 79.392,82.595C85.055,67.888 82.175,71.148 96.585,54.983C90.322,56.859 85.224,58.672 81.143,60.601C81.71,59.259 81.881,58.551 83.783,55.768C90.907,51.407 104.869,40.736 114.869,37.287C111.34,40.07 109.524,43.57 106.029,46.383C111.387,45.027 117.936,44.327 128.269,38.587C127.716,39.029 146.191,29.956 140.204,19.557C143.888,22.182 141.154,32.893 139.42,42.862C143.308,48.235 144.175,54.777 145.453,61.445C145.574,59.252 145.923,53.949 145.469,51.797C147.753,57.723 151.036,65.612 150.995,74.278C155.411,62.569 152,52 152,41C155.791,47.331 157.29,58.906 158.192,66.033C159.108,61.451 159.712,58.007 157.648,52C158.95,53.624 160.737,54.834 162,57C160.279,47.555 157.142,40.958 152.796,34.167C156.921,38.936 163,43 165,49C164,38 160,27 153,18C156.743,22.367 160.097,26.734 163.061,31.343C172.679,51.526 174.094,54.791 178.478,58.585C175.108,56.475 170.978,52.476 167.698,49.085C169.499,53.945 170.539,62.475 170.619,67.865C171.128,69.93 170.632,70.043 171.301,74.37L159.704,74.37C158.067,86.007 151.401,100.47 145.995,110.904C146.061,106.677 150.509,92.758 146.939,75.455C146.851,75.031 146.764,74.608 146.667,74.18C146.67,74.053 145.36,78.815 143.628,87.535C143.084,83.691 144.095,73.572 141.1,61.41C139.969,56.818 136.253,50.775 136.253,50.775C128.832,69.641 120.864,76.769 118.817,77.397ZM94.869,43.184C85.796,45.839 77,53 70,60C72,57 73,53 76,50C81,40 90,33 97,25C82,34 73,47 62,60C65,54 68,46 73,41C63,46 61,56 54,64C58,32 88,-5 123,6C88.059,-7.698 53.547,29.071 45.395,68.148C45.361,64.358 45.921,43.079 54,35C46,41 44,51 39,58C38.186,53.928 40.024,50.519 41.274,47.233C40.22,48.809 38.258,49.991 37.044,51.745C39.577,43.671 42.073,35.284 50,30C45.274,32.363 41.784,35.96 37.098,38.362C34.948,41.306 31.968,44.999 28.329,48.486C25.459,51.226 21.349,54.366 18.049,56.696C20.459,55.736 27.349,51.996 33.519,47.206C30.569,51.976 21.249,59.946 24.619,76.616C24.949,69.196 25.139,60.936 32.189,56.456C31.405,59.757 28.145,67.514 30.356,75L41.09,75C41.137,78.839 42.431,85.633 43.999,90.468C44.15,90.367 44.296,90.26 44.448,90.162C44.448,90.162 44.766,92.147 48.108,98.243C49.068,99.994 50.265,102.067 51.792,104.552C51.428,96.479 52.014,90.659 53.345,83.138C63.188,71.102 72.64,64.618 81.143,60.601C81.859,58.904 84.681,51.958 94.869,43.184Z" style="fill:rgb(27,20,28);fill-rule:nonzero;"/>
                            <path id="SvgjsPath4056" d="M39.14,35.028C50.711,12.323 73.942,5.8 82.235,5.829C64.286,9.892 51.536,17.819 39.14,35.028ZM112.286,4.067C99.313,3.229 75.107,11.58 62.155,38.708C76.494,13.067 102.913,3.465 112.286,4.067ZM144.313,7.883C143.645,7.641 143.055,7.165 142.384,6.904C134.573,3.869 127.427,9.285 126.819,14.558C127.992,9.383 135.786,4.803 144.313,7.883ZM138.188,11.621C151.089,8.619 161.422,32.684 161.685,33.687C159.6,25.7 150.582,7.854 138.528,10.768C134.563,11.727 131.49,14.721 129.219,17.966C131.586,15.113 134.468,12.47 138.188,11.621ZM92.531,49.976C99.551,44.038 131.554,34.205 130.426,20.271C130.234,32.882 105.025,39.407 92.531,49.976ZM123.893,16.667C121.805,15.699 117.543,11.729 106.567,18.303C88.869,28.902 77.858,46.716 75.207,51.149C83.655,39.44 109.684,10.093 123.893,16.667Z" style="fill:rgb(12,8,12);fill-rule:nonzero;"/>
                            <path id="SvgjsPath4057" d="M77.774,9.337C58.393,16.2 45.395,30.218 45.395,30.218C54.68,20.083 63.288,12.957 77.774,9.337ZM52.747,32.614C54.573,29.478 69.047,13.407 77.42,10.545C68.571,12.888 57.47,24.503 52.747,32.614ZM72.415,30.195C72.415,30.195 87.371,11.704 103.797,7.936C90.858,9.004 79.387,19.403 72.415,30.195ZM91.168,35.718C92.088,34.422 110.021,19.602 117.973,17.556C109.279,18.78 93.755,32.075 91.168,35.718ZM106.619,29.037C107.7,27.558 114.947,20.243 123.685,19.112C115.821,19.303 111.162,22.824 106.619,29.037ZM98.693,39.328C103.306,33.307 116.021,30.724 124.558,21.879C116.765,29.092 105.065,31.012 98.693,39.328ZM114.135,42.83C115.137,42.83 132.833,33.608 136.537,29.753C139.942,26.21 140.475,22.498 137.933,20.828C141.358,24.649 136.674,28.414 134.838,29.979C133.101,31.461 125.346,36.745 114.135,42.83C114.136,42.83 115.105,42.303 114.135,42.83ZM133.194,36.025C139.663,31.379 143.802,22.829 139.93,19.485C138.591,18.329 136.494,17.908 134.762,17.929C136.5,17.908 138.913,18.551 140.059,19.922C144.064,24.7 136.371,32.837 131.199,36.324C123.766,41.336 114.899,44.29 106.239,46.37C115.538,44.373 125.367,41.646 133.194,36.025ZM74.46,34.228C74.46,34.228 87.363,18.313 100.902,13.151C102.498,12.543 104.143,12.322 105.803,11.99C93.18,13.181 81.436,23.811 74.46,34.228ZM71.001,43.084C72.001,42.368 89.005,22.409 104.562,16.421C91.336,19.74 78.568,31.611 71.001,43.084ZM159.665,35.255C159.069,34.254 154.208,16.807 143.886,18.851C150.81,18.188 156.162,28.076 159.665,35.255ZM150.497,54.228C150.644,49.373 152.541,38.969 143.78,30.75C148.394,36.237 150.662,45.406 150.497,54.228Z" style="fill:rgb(58,53,58);fill-rule:nonzero;"/>
                            <path id="SvgjsPath4058" d="M183.02,61.345C174.429,54.295 174.07,52.655 167.45,37.595C171.97,37.975 175.84,37.655 179.51,37.395C171.95,36.655 166.361,31.105 163.481,28.715C155.911,12.625 150.001,-3.245 132.741,2.305C131.381,2.745 130.031,3.265 128.701,3.875C121.021,-4.445 109.281,-8.665 98.381,-8.615C66.591,-8.495 51.551,15.295 38.141,20.485C36.541,21.105 34.761,21.575 33.061,21.975C36.081,23.065 38.731,23.265 43.731,21.225C37.531,29.465 40.541,25.145 33.171,32.885C29.851,36.345 26.741,40.965 22.021,43.135C25.991,43.635 28.711,42.445 32.161,40.095C34.551,38.485 37.001,36.435 38.801,35.145C31.561,46.185 14.491,58.405 14.491,58.405C20.081,57.345 25.911,54.025 30.601,50.265C30.431,50.495 30.251,50.725 30.081,50.955C27.621,54.205 25.251,57.705 24.121,61.665C22.101,68.705 23.061,75.304 25.581,82.154C24.941,76.084 24.841,63.574 31.251,57.775C30.026,61.248 27.022,68.061 29.164,75L30.356,75C28.145,67.515 31.405,59.757 32.189,56.456C25.139,60.936 24.949,69.196 24.619,76.616C21.249,59.946 30.569,51.976 33.519,47.206C27.349,51.996 20.459,55.736 18.049,56.696C21.349,54.366 25.459,51.226 28.329,48.486C35.009,42.086 39.489,34.966 40.639,33.126C32.669,37.396 29.129,41.716 24.729,42.446C28.789,40.036 31.189,36.456 34.559,33.116C42.829,24.846 41.819,24.816 45.569,19.756C42.849,21.036 38.039,22.746 35.199,21.916C53.319,17.536 61.849,-3.814 95.729,-6.324C106.81,-7.324 118.789,-4.284 128.399,4.506C132.128,2.906 136.099,1.556 140.178,2.116C152.269,3.736 155.769,17.306 161.958,30.286C172.038,51.426 173.618,54.426 178.078,58.286C174.708,56.176 170.578,51.876 167.298,48.486C169.099,53.346 170.338,61.676 170.418,67.066C168.368,60.286 164.588,54.806 160.548,49.676C161.399,50.896 168.758,60.476 170.569,72.026C167.519,66.006 163.649,60.576 159.359,55.406C166.134,64.534 168.665,70.204 170.677,74.542C170.941,74.542 170.706,74.325 171.756,74.548C171.677,74.374 171.518,74.016 171.439,73.845C171.378,72.845 172.489,61.455 168.508,50.465C173.339,55.875 175.669,58.795 183.02,61.345ZM176.439,37.186C172.628,37.016 171.559,36.986 167.079,36.626C166.409,35.096 164.739,32.276 164.039,30.756C167.539,33.855 173.409,36.875 176.439,37.186ZM156.85,87.045C154.36,96.185 150.009,106.325 144.86,113.345C146.73,99.545 148.339,85.585 146.639,76.065C146.07,81.795 144.74,87.265 142.999,92.735C143.409,85.625 142.649,78.365 141.979,71.295C141.638,67.775 141.149,64.285 140.409,60.825C139.709,57.535 138.069,54.555 136.569,51.575C134.789,57.415 131.919,62.425 128.729,67.605C125.659,72.595 121.849,76.785 116.809,79.745C120.059,74.385 123.038,66.995 125.038,62.785C126.878,58.905 130.428,52.465 129.938,46.455C124.377,55.155 115.578,63.035 107.358,69.265C99.498,75.225 82.738,83.935 81.738,84.315C81.938,84.095 91.278,75.655 97.268,69.805C108.628,58.725 110.478,56.505 112.048,54.155C106.248,59.205 100.628,64.455 94.808,69.485C89.148,74.375 83.368,79.195 78.068,84.495C79.568,79.085 82.058,74.165 84.668,69.465C87.518,64.355 91.128,60.075 95.248,55.955C71.87,63.506 56.168,80.335 53.958,83.095C53.448,87.515 52.788,102.955 53.248,109.495C47.316,98.798 34.646,81.738 41.59,54.619C38.903,67.881 42.423,88.724 51.438,103.406C51.148,96.976 51.758,90.376 52.878,84.046C51.018,85.956 49.118,87.766 47.008,89.386C48.098,82.866 51.688,76.756 54.908,71.076C57.968,65.706 61.398,60.396 66.038,56.236C62.368,60.696 59.058,66.126 56.048,71.376C52.748,77.126 49.068,84.106 47.868,88.276C54.638,81.676 58.168,73.986 74.838,63.636C84.538,57.616 90.288,56.556 96.498,54.696C97.568,53.596 98.628,52.506 99.668,51.376C101.658,49.216 103.408,46.916 105.138,44.546C98.449,54.966 96.378,55.336 91.359,61.996C83.749,72.086 83.019,75.076 80.229,81.256C86.329,74.816 89.639,72.766 96.079,66.656C101.149,61.836 112.659,53.196 112.969,52.676C114.219,50.566 115.429,47.456 117.119,44.546C115.419,48.106 114.489,51.916 112.339,55.246C110.179,58.586 107.049,61.536 104.369,64.456C99.949,69.266 93.479,75.206 86.959,80.666C91.949,77.606 97.149,75.006 101.989,71.676C106.689,68.446 111.259,64.966 115.549,61.196C123.85,53.916 130.659,45.406 135.889,35.706C134.259,39.136 132.469,42.496 130.429,45.696C131.06,49.416 130.23,53.006 128.86,56.476C128.45,57.516 121.57,72.976 119.49,76.616C122.45,74.356 124.59,71.536 126.65,68.466C133.6,58.066 137.07,50.746 139,37.916C138.601,42.136 138.021,46.356 136.89,50.456C138.951,55.556 140.231,56.936 141.39,61.336C143.51,69.376 143.93,77.726 143.71,86.006C145.97,74.626 147.11,63.366 145.47,51.796C147.88,65.746 146.96,74.116 146.96,74.116C147.46,76.316 147.84,78.536 148.12,80.776C149.33,90.456 148.22,100.086 146.31,109.596C155.709,91.456 158.259,65.946 153.539,46.325C155.579,53.155 156.699,60.145 156.879,67.275C157.06,74.175 156.829,81.285 155.65,88.095C157.94,82.105 160.062,72.388 160.062,70.539C160.342,74.499 158.489,81.005 156.85,87.045Z" style="fill-rule:nonzero;"/>
                        </g>
                        <g id="svga-group-glasses-single-move">
                        </g>
                    </g>
                </g>
            </g>
        </g>
    </g>
    <defs>
        <linearGradient id="_Linear1" x1="0" y1="0" x2="1" y2="0" gradientUnits="userSpaceOnUse" gradientTransform="matrix(2.13817e-15,-34.919,34.919,2.13817e-15,99.98,171.27)"><stop offset="0" style="stop-color:rgb(228,179,171);stop-opacity:0.8"/><stop offset="0.7" style="stop-color:rgb(197,121,109);stop-opacity:1"/><stop offset="1" style="stop-color:rgb(197,121,109);stop-opacity:1"/></linearGradient>
        <linearGradient id="_Linear2" x1="0" y1="0" x2="1" y2="0" gradientUnits="userSpaceOnUse" gradientTransform="matrix(1.83697e-16,-3,3,1.83697e-16,100,142)"><stop offset="0" style="stop-color:rgb(235,195,189);stop-opacity:1"/><stop offset="0.1" style="stop-color:rgb(235,195,189);stop-opacity:1"/><stop offset="1" style="stop-color:rgb(228,179,171);stop-opacity:1"/></linearGradient>
        <radialGradient id="_Radial3" cx="0" cy="0" r="1" gradientUnits="userSpaceOnUse" gradientTransform="matrix(40,0,0,40,100,113)"><stop offset="0" style="stop-color:rgb(255,244,243);stop-opacity:0.5"/><stop offset="0.9" style="stop-color:rgb(243,212,207);stop-opacity:0"/><stop offset="1" style="stop-color:rgb(243,212,207);stop-opacity:0"/></radialGradient>
        <radialGradient id="_Radial4" cx="0" cy="0" r="1" gradientUnits="userSpaceOnUse" gradientTransform="matrix(36,0,0,36,100,57)"><stop offset="0" style="stop-color:rgb(255,244,243);stop-opacity:0.5"/><stop offset="0.9" style="stop-color:rgb(243,212,207);stop-opacity:0"/><stop offset="1" style="stop-color:rgb(243,212,207);stop-opacity:0"/></radialGradient>
    </defs>
</svg>
