<?xml version="1.0" encoding="UTF-8" standalone="no"?>
<!DOCTYPE svg PUBLIC "-//W3C//DTD SVG 1.1//EN" "http://www.w3.org/Graphics/SVG/1.1/DTD/svg11.dtd">
<svg width="100%" height="100%" viewBox="0 0 3334 3334" version="1.1" xmlns="http://www.w3.org/2000/svg" xmlns:xlink="http://www.w3.org/1999/xlink" xml:space="preserve" xmlns:serif="http://www.serif.com/" style="fill-rule:evenodd;clip-rule:evenodd;">
    <g transform="matrix(5.55556,0,0,5.55556,0,0)">
        <g id="svga-group-wrapper" transform="matrix(3,0,0,3,0,0)">
            <g id="svga-group-backs-single">
                <rect id="SvgjsPath4608" x="-25" y="-25" width="250" height="250" style="fill:rgb(64,192,203);fill-rule:nonzero;"/>
            </g>
            <g id="svga-group-humanwrap-move">
                <g id="svga-group-humanwrap">
                    <g id="svga-group-hair-back-move">
                        <g id="svga-group-hair-back">
                            <rect id="SvgjsPath4553" x="99.5" y="99.5" width="1" height="1" style="fill:rgb(42,35,43);fill-rule:nonzero;"/>
                        </g>
                    </g>
                    <g id="svga-group-humanbody-single">
                        <path id="SvgjsPath2780" d="M190.858,199.866C184.85,189.708 177.384,187.893 171.23,185.93C164.907,183.914 151.884,182.752 144.781,181.33C137.921,179.957 121.628,175.541 121.442,167.842C121.25,159.776 125.733,127.752 125.733,127.752L74.005,127.752C74.005,127.752 78.492,159.775 78.299,167.842C78.115,175.541 61.819,179.957 54.958,181.33C47.854,182.752 34.833,183.914 28.51,185.93C22.354,187.893 14.886,189.707 8.878,199.866C5.234,206.026 2.87,215.999 2.87,226.999L196.87,226.999C196.869,215.999 194.509,206.026 190.858,199.866Z" style="fill:rgb(118,70,48);fill-rule:nonzero;"/>
                        <path id="SvgjsPath2781" d="M121.442,167.843C123.937,178.772 139.607,181.541 147.735,183.168C169.644,187.547 181.507,188.302 190.032,202.707C192.935,207.623 195.491,218.571 195.994,226.86C197.829,227.151 196.525,209.428 190.858,199.866C181.116,183.394 161.769,184.731 144.781,181.331C137.921,179.958 121.628,175.542 121.442,167.843ZM78.558,167.843C78.372,175.542 62.079,179.958 55.219,181.331C38.231,184.731 18.884,183.394 9.142,199.866C3.475,209.429 2.171,227.151 4.006,226.86C4.509,218.571 7.065,207.623 9.968,202.707C18.492,188.302 30.356,187.547 52.265,183.168C60.393,181.541 76.063,178.771 78.558,167.843Z" style="fill:rgb(133,88,68);fill-rule:nonzero;"/>
                        <path id="SvgjsPath2782" d="M51.206,189.513C51.206,189.513 79.847,189.812 84.679,191.398C86.993,192.156 93.051,197.031 93.051,197.031C93.051,197.031 86.495,193.861 84.393,193.273C79.51,191.909 51.206,189.513 51.206,189.513ZM99.795,199.999C101.848,199.958 107.682,196.2 107.682,196.2C107.682,196.2 102.108,198.259 100.34,198.36C98.849,198.446 93.974,197.122 93.974,197.122C93.974,197.122 98.112,200.032 99.795,199.999ZM117.008,192.757C123.758,190.939 146.794,189.527 146.794,189.527C146.794,189.527 123.003,189.011 116.284,191.252C114.032,192.004 108.722,196.412 108.722,196.412C108.722,196.412 114.786,193.354 117.008,192.757Z" style="fill:rgb(103,54,32);fill-rule:nonzero;"/>
                        <path id="SvgjsPath2783" d="M190.858,199.866C181.117,183.395 161.736,184.724 144.781,181.331C137.921,179.958 121.628,175.542 121.442,167.843C121.25,159.777 125.733,127.753 125.733,127.753L74.005,127.753C74.005,127.753 78.492,159.776 78.299,167.843C78.115,175.542 61.819,179.958 54.958,181.331C47.854,182.753 34.833,183.915 28.51,185.931C22.354,187.894 14.886,189.708 8.878,199.867C5.234,206.027 2.87,216 2.87,227L196.87,227C196.869,215.999 194.509,206.026 190.858,199.866Z" style="fill:none;fill-rule:nonzero;stroke:rgb(72,28,8);stroke-width:1.5px;"/>
                    </g>
                    <g id="svga-group-chinshadow-single">
                        <path id="SvgjsPath4578" d="M100.002,171.27C111.21,171.27 116.59,167.457 120.94,163.492C121.522,154.595 123.609,138.574 124.586,131.337C109.802,129.584 89.878,129.595 75.156,131.369C76.127,138.552 78.18,154.303 78.784,163.233C83.185,167.29 88.551,171.27 100.002,171.27Z" style="fill:url(#_Linear1);fill-rule:nonzero;"/>
                    </g>
                    <g id="svga-group-clothes-single">
                        <path id="SvgjsPath4602" d="M1.21,226.811C1.12,225.715 1.299,220.667 1.379,219.121C2.684,194.922 10.782,189.8 43.868,180.005C59.858,175.273 64.321,173.736 70.012,161.646C71.626,158.216 73.021,155.253 76.023,154.202C91.312,162.631 104.495,162.362 123.439,155.345C126.955,155.836 128.036,160.323 128.853,163.562C134.107,183.578 166.459,179.059 180.999,187.315C196.09,194.755 196.777,219.645 196.63,227.096C196.633,227.117 196.635,227.135 196.636,227.152C177.005,227.983 25.68,228.386 1.21,226.811Z" style="fill:rgb(57,85,126);fill-rule:nonzero;"/>
                        <path id="SvgjsPath4603" d="M176.786,216.725C177.633,206.459 177.887,198.413 180.943,188.895C176.517,203.648 182.419,215.249 173.677,223.318C174.774,220.681 176.516,219.998 176.786,216.725ZM24,203C22.392,199.062 20.328,195.595 19.556,189.396C19.276,189.53 19.162,188.77 18.89,188.904C20.001,200.001 23.626,204.617 24.73,220.733C24.556,214.957 25.534,206.758 24,203ZM121.459,156.274C120.878,156.418 120.295,157.054 119.709,157.173C127.89,164.647 122.522,167.469 134.48,180.595C134.813,180.428 135.895,179.829 137.198,179.072C129.319,174.611 127.548,163.537 121.459,156.274ZM126,180C126.447,181.342 127.101,182.482 127.859,183.603C127.402,183.777 126.951,183.965 126.489,184.125C124.126,181.052 121.857,177.991 120.35,171.636C118.792,165.075 119.466,166.052 114.41,158.884C114.729,158.839 115.364,158.473 115.858,158.393C120.643,165.023 122.608,172.368 126,180ZM133.719,181.005C133.238,181.255 132.75,181.493 132.262,181.73C125.547,174.729 122.898,166.066 118.43,157.941C118.737,157.882 119.337,157.123 119.618,157.065C123.582,161.28 123.565,163.37 124.769,167.126C126.338,171.828 130.603,177.889 133.719,181.005ZM111.212,160.025C114.803,169.284 117.153,176.595 117.807,186.413C117.338,186.498 116.87,186.583 116.4,186.655C115.75,181.525 114.909,176.193 114.661,174.966C113.669,170.051 111.88,163.484 110.26,160.146C110.578,160.113 110.894,160.063 111.212,160.025ZM125.619,184.426C125.064,184.611 124.504,184.778 123.943,184.945C118.054,177.625 118.162,168.052 113.532,158.734C113.714,158.709 113.997,158.693 114.178,158.666C119.318,167.377 117.678,164.864 120.008,173.696C121.229,178.313 123.751,182.464 125.619,184.426ZM115.509,186.785C115.14,186.838 114.763,186.874 114.389,186.918C113.05,177.109 112.512,169.376 108.952,160.267C109.201,160.245 109.451,160.23 109.699,160.205C112.922,168.123 114.231,179.352 115.509,186.785ZM91.081,160.364C87.814,169.339 87.12,176.35 86.495,185.816C86.126,185.753 85.753,185.693 85.39,185.625C85.671,177.568 86.798,167.562 90.29,160.295C90.553,160.322 90.817,160.34 91.081,160.364ZM75.389,182.894C74.97,182.742 74.547,182.597 74.129,182.436C79.185,176.209 81.503,165.925 82.119,157.915C82.451,157.996 82.782,158.065 83.114,158.141C83.353,167.592 79.914,174.831 75.389,182.894ZM89.779,160.245C85.776,167.392 84.48,177.319 84.649,185.475C84.33,185.412 84.031,185.338 83.719,185.272C83.382,175.711 84.575,168.221 88.826,160.016C89.146,160.056 89.455,160.212 89.779,160.245ZM66.165,179.01C65.638,178.754 65.111,178.5 64.589,178.236C67.396,176.365 70.242,173.525 72.149,170.266C73.865,167.336 77.76,158.638 78.559,155.826C78.828,155.93 79.102,156.015 79.375,156.108C77.312,165.13 72.909,173.355 66.165,179.01ZM73.509,182.205C72.95,181.99 72.403,181.749 71.848,181.523C76.591,173.867 78.737,165.31 79.702,156.206C80.316,156.409 80.932,157.604 81.549,157.766C80.13,166.507 78.633,174.861 73.509,182.205ZM78.229,155.705C77.579,157.525 76.689,159.255 75.779,161.016C73.612,165.395 71.434,172.613 63.949,177.896C63.407,177.62 62.869,177.332 62.331,177.042C69.222,171.344 72.81,162.911 76.485,155.134C77.048,155.346 77.63,155.466 78.229,155.705Z" style="fill:rgb(39,68,111);fill-rule:nonzero;"/>
                        <path id="SvgjsPath4604" d="M60.172,177.15L58.244,175.86C41.435,182.397 16.119,184.735 6.244,200.985C2.525,207.104 1.331,215.999 1.331,226.999C3.358,221.514 2.09,212.56 7.967,203.707C19.401,186.481 39.771,188.32 60.172,177.15ZM190.033,203.707C195.1,213.047 194.641,221.514 196.669,226.999C196.669,215.999 194.388,207.645 191.756,200.985C184.273,182.052 158.565,184.194 141.756,177.657L139.828,178.947C160.229,190.117 178.203,181.902 190.033,203.707Z" style="fill:rgb(78,104,141);fill-rule:nonzero;"/>
                        <path id="SvgjsPath4605" d="M181.049,187.226C166.553,178.997 134.169,183.422 128.949,163.536C128.296,160.994 127.247,155.774 123.419,155.246C123.231,155.283 122.658,155.117 122.659,155.117C107.583,160.997 91.814,162.747 75.989,154.106C68.878,156.599 70.82,169.352 57.379,175.326C51.519,177.98 43.779,179.721 32.779,183.306C6.997,191.716 2.316,199.887 1.279,219.116C1.206,220.526 1.006,225.975 1.119,226.906C28.238,228.673 182.545,227.874 196.729,227.246C196.739,227.196 196.739,227.146 196.729,227.097C197.017,212.672 193.824,193.524 181.049,187.226ZM123.799,155.824C131.002,158.236 122.968,169.279 139.639,177.615C137.438,178.969 135.01,180.33 134.48,180.595C122.522,167.469 128.037,165.552 120.307,157.472C121.739,156.826 122.459,156.244 123.799,155.824ZM119.917,157.563C123.881,161.778 123.565,163.37 124.77,167.126C126.338,171.829 130.603,177.89 133.719,181.006C131.389,182.217 128.969,183.267 126.49,184.126C124.127,181.053 122.082,177.962 120.451,171.637C119.013,166.064 119.515,165.619 114.71,158.985C115.709,158.843 118.341,157.886 119.917,157.563ZM114.278,159.063C119.418,167.774 117.678,164.863 120.008,173.695C121.228,178.313 123.75,182.464 125.618,184.425C122.608,185.425 119.518,186.175 116.398,186.654C115.748,181.524 114.984,176.196 114.758,174.965C113.758,169.511 111.877,163.483 110.257,160.145C111.539,160.016 113.009,159.254 114.278,159.063ZM109.699,160.205C112.922,168.123 114.231,179.351 115.509,186.785C112.567,187.203 109.446,187.355 106.53,187.355C106.529,187.33 104.633,171.546 103.889,161.193C105.917,160.893 108.049,160.662 109.699,160.205ZM103.389,161.213C103.439,172.89 104.345,175.925 105.799,187.365C102.31,187.375 98.829,187.216 95.34,186.915C97.705,167.305 98.89,161.283 98.89,161.283C100.732,161.283 102.403,161.246 103.389,161.213ZM98.269,161.283C95.493,176.633 95.017,180.347 94.689,186.855C91.5,186.587 88.364,186.187 85.389,185.625C85.67,177.568 86.797,167.562 90.289,160.295C92.939,160.565 95.609,161.273 98.269,161.283ZM89.779,160.245C85.776,167.392 84.48,177.319 84.649,185.475C80.776,184.704 77.447,183.717 74.129,182.435C79.185,176.208 81.503,165.924 82.119,157.914C84.642,158.53 87.31,159.698 89.779,160.245ZM81.549,157.766C80.13,166.507 78.633,174.862 73.509,182.205C70.469,181.035 67.489,179.705 64.589,178.235C67.396,176.364 70.242,173.524 72.149,170.265C73.865,167.335 77.66,158.836 78.459,156.024C79.439,156.404 80.549,157.505 81.549,157.766ZM75.789,154.804C76.559,155.275 77.279,155.565 78.129,155.905C77.479,157.725 76.689,159.256 75.779,161.016C73.612,165.395 71.434,172.613 63.949,177.896C62.559,177.186 61.179,176.436 59.829,175.646C71.408,169.404 69.452,157.678 75.789,154.804ZM1.559,226.655C1.695,222.659 2.446,210.334 5.149,204.245C7.879,198.096 13.149,193.855 19.029,190.725C18.627,200.146 23.213,201.314 23.529,212.575C23.619,215.985 24.089,219.335 24.659,222.695C24.399,219.165 24.289,215.665 24.309,212.125C24.367,201.878 19.729,200.104 19.729,190.346C27.159,186.564 35.696,184.13 44.139,181.585C49.079,180.106 54.079,178.556 58.699,176.226C71.883,184.918 84.148,189.505 106.049,189.375C121.922,189.375 131.168,185.271 140.949,178.266C154.098,184.343 171.075,183.546 180.409,189.176C178.754,194.101 177.618,196.67 177.309,199.356C176.594,205.676 177.656,210.17 176.748,215.976C176.218,219.346 173.628,221.826 172.928,225.136C174.964,218.934 178.637,221.206 178.189,206.585C177.932,198.34 178.665,198.127 180.968,189.516C192.454,196.715 195.409,213.632 196.059,227.096C162.822,226.877 14.665,226.935 1.559,226.655Z" style="fill:rgb(12,40,80);fill-rule:nonzero;"/>
                    </g>
                    <g id="svga-group-head">
                        <g id="svga-group-ears-left-move">
                            <g id="svga-group-ears-left">
                                <path id="SvgjsPath3614" d="M47.001,83.974C45.625,81.661 41.363,75.977 37.021,77.371C34.272,78.253 33.728,81.136 33.286,83.682C32.698,87.068 33.757,93.765 34.675,96.185C35.556,98.51 38.208,103.001 39.939,104.712C42.069,106.812 44.714,113.505 45.133,114.199C45.793,115.296 46.669,116.944 49.255,116.737C52.108,116.508 53.839,114.995 55.111,114.738C58.253,114.109 50.582,89.995 47.001,83.974Z" style="fill:rgb(118,70,48);fill-rule:nonzero;stroke:rgb(72,28,8);stroke-width:1.5px;"/>
                                <path id="SvgjsPath3615" d="M44.197,97.997C44.065,97.449 44.204,96.527 44.339,95.635C44.463,94.823 44.579,94.056 44.508,93.514C44.241,91.482 42.735,87.621 41.751,85.529C40.619,83.122 38.788,80.09 36.489,79.308C35.539,78.984 34.914,79.371 34.551,79.764C34.285,80.053 34.226,80.391 34.313,80.431C34.399,80.471 34.598,80.191 34.885,79.927C35.12,79.711 35.464,79.525 35.936,79.564C35.746,80.575 34.769,86.054 35.192,89.789C35.525,92.727 36.785,94.92 36.982,95.249C37.011,95.595 37.059,95.934 37.13,96.263C38.059,100.55 42.101,105.426 43.508,107.021C43.767,107.316 44.039,107.491 44.106,107.419C44.172,107.347 44.012,107.055 43.753,106.759C42.365,105.174 38.362,100.317 37.464,96.18C36.512,91.791 39.782,85.284 40.512,83.908C40.883,84.554 41.199,85.175 41.442,85.693C41.632,86.099 41.844,86.574 42.061,87.088C41.632,87.806 38.627,93.046 39.723,97.241C40.129,98.787 41.958,100.781 43.17,101.327C43.837,101.628 44.089,102.077 44.379,102.598C44.715,103.202 45.097,103.886 46.207,104.382C46.432,104.484 46.636,104.524 46.817,104.524C47.13,104.524 47.368,104.398 47.542,104.248C47.56,104.514 47.559,104.852 47.551,105.165C47.539,105.569 47.593,105.902 47.688,105.91C47.782,105.918 47.884,105.597 47.895,105.193C47.911,104.697 47.908,104.083 47.823,103.79C47.575,102.925 46.815,101.949 46.01,100.915C45.221,99.896 44.403,98.844 44.197,97.997ZM36.95,94.196C34.773,87.465 37.606,81.656 38.094,80.732C38.944,81.507 39.694,82.543 40.304,83.556C39.86,84.365 37.041,89.669 36.95,94.196ZM46.341,104.042C45.337,103.595 45.002,102.991 44.675,102.409C44.382,101.882 44.077,101.337 43.306,100.989C43.138,100.914 42.954,100.798 42.764,100.666C40.278,94.76 43.036,92.178 43.727,91.649C43.938,92.371 44.096,93.033 44.166,93.564C44.229,94.052 44.114,94.827 43.999,95.576C43.857,96.505 43.713,97.466 43.862,98.088C44.088,99.014 44.931,100.097 45.746,101.145C46.469,102.074 47.212,103.033 47.467,103.815C47.359,103.972 47.017,104.345 46.341,104.042Z" style="fill:rgb(72,28,8);fill-rule:nonzero;"/>
                            </g>
                        </g>
                        <g id="svga-group-ears-right-move">
                            <g id="svga-group-ears-right">
                                <path id="SvgjsPath3616" d="M152.736,83.974C154.113,81.661 158.375,75.977 162.716,77.371C165.466,78.253 166.009,81.136 166.452,83.682C167.04,87.068 165.981,93.765 165.063,96.185C164.182,98.51 161.53,103.001 159.797,104.712C157.668,106.812 155.022,113.505 154.604,114.199C153.946,115.296 153.069,116.944 150.483,116.737C147.629,116.508 145.899,114.995 144.626,114.738C141.484,114.109 149.156,89.995 152.736,83.974Z" style="fill:rgb(118,70,48);fill-rule:nonzero;stroke:rgb(72,28,8);stroke-width:1.5px;"/>
                                <path id="SvgjsPath3617" d="M153.727,100.913C152.922,101.946 152.163,102.922 151.914,103.788C151.828,104.081 151.826,104.695 151.842,105.191C151.854,105.595 151.955,105.916 152.049,105.908C152.143,105.9 152.197,105.567 152.186,105.163C152.178,104.85 152.178,104.512 152.196,104.246C152.37,104.396 152.608,104.522 152.921,104.522C153.103,104.522 153.306,104.482 153.53,104.38C154.639,103.884 155.022,103.2 155.358,102.596C155.647,102.076 155.901,101.627 156.567,101.325C157.78,100.779 159.608,98.785 160.014,97.239C161.11,93.045 158.106,87.804 157.676,87.086C157.893,86.573 158.106,86.098 158.295,85.691C158.539,85.173 158.854,84.552 159.225,83.906C159.955,85.283 163.225,91.789 162.274,96.178C161.378,100.315 157.374,105.172 155.985,106.757C155.727,107.053 155.567,107.345 155.633,107.417C155.699,107.488 155.971,107.313 156.231,107.019C157.637,105.423 161.68,100.548 162.61,96.261C162.68,95.932 162.727,95.593 162.756,95.247C162.953,94.918 164.215,92.724 164.547,89.787C164.969,86.052 163.992,80.573 163.803,79.562C164.276,79.523 164.617,79.708 164.854,79.925C165.141,80.189 165.34,80.469 165.426,80.429C165.512,80.389 165.453,80.051 165.188,79.762C164.825,79.369 164.2,78.983 163.25,79.306C160.951,80.088 159.119,83.12 157.988,85.527C157.004,87.62 155.498,91.48 155.23,93.512C155.158,94.054 155.275,94.821 155.4,95.633C155.535,96.525 155.673,97.447 155.541,97.995C155.336,98.844 154.518,99.896 153.727,100.913ZM159.434,83.555C160.045,82.542 160.795,81.506 161.645,80.731C162.133,81.656 164.965,87.464 162.79,94.195C162.697,89.669 159.879,84.365 159.434,83.555ZM152.27,103.816C152.524,103.034 153.268,102.075 153.991,101.146C154.807,100.098 155.649,99.015 155.876,98.089C156.024,97.467 155.88,96.506 155.739,95.577C155.624,94.828 155.509,94.053 155.573,93.565C155.641,93.034 155.8,92.372 156.011,91.65C156.702,92.179 159.46,94.761 156.976,100.667C156.785,100.799 156.601,100.915 156.433,100.99C155.662,101.338 155.359,101.883 155.064,102.41C154.738,102.992 154.402,103.596 153.398,104.043C152.721,104.345 152.379,103.972 152.27,103.816Z" style="fill:rgb(72,28,8);fill-rule:nonzero;"/>
                            </g>
                        </g>
                        <g id="svga-group-faceshape-wrap">
                            <g id="svga-group-faceshape-single">
                                <path id="SvgjsPath4575" d="M100.002,0.867C66.384,0.919 39.082,28.09 39.134,61.564C39.142,66.88 39.838,72.035 41.136,76.946L41.137,76.946C41.15,77 52.68,114.915 55.158,127.369C56.54,134.314 64.954,140.572 72.423,145.682C79.39,150.449 82.952,159.27 100.003,159.27C117.054,159.27 120.616,150.449 127.583,145.682C135.051,140.573 143.466,134.315 144.848,127.369C147.327,114.915 158.857,76.999 158.868,76.946L158.87,76.946C160.168,72.035 160.864,66.88 160.872,61.564C160.923,28.09 133.62,0.919 100.002,0.867Z" style="fill:rgb(118,70,48);fill-rule:nonzero;"/>
                                <path id="SvgjsPath4576" d="M146.772,22.738C154.25,32.921 158.689,45.608 158.67,59.364C158.661,64.68 157.991,69.835 156.74,74.746L156.738,74.746C156.727,74.799 145.614,112.715 143.226,125.169C141.891,132.114 133.755,138.372 126.558,143.482C119.84,148.249 116.437,157.07 100.001,157.07C83.567,157.07 80.159,148.249 73.444,143.482C66.247,138.373 58.109,132.115 56.779,125.169C54.388,112.715 43.275,74.799 43.264,74.746C42.012,69.835 41.342,64.68 41.333,59.364C41.312,45.612 45.749,32.929 53.222,22.747C44.41,33.272 39.11,46.803 39.133,61.564C39.141,66.88 39.837,72.035 41.135,76.946L41.136,76.946C41.15,77 52.68,114.915 55.158,127.369C56.54,134.314 64.954,140.572 72.423,145.682C79.39,150.449 82.952,159.27 100.003,159.27C117.054,159.27 120.616,150.449 127.583,145.682C135.051,140.573 143.466,134.315 144.848,127.369C147.327,114.915 158.857,76.999 158.868,76.946L158.87,76.946C160.168,72.035 160.864,66.88 160.872,61.564C160.894,46.799 155.589,33.264 146.772,22.738Z" style="fill:rgb(110,62,39);fill-rule:nonzero;"/>
                                <path id="SvgjsPath4577" d="M100.002,0.867C66.384,0.919 39.082,28.09 39.134,61.564C39.142,66.88 39.838,72.035 41.136,76.946L41.137,76.946C41.15,77 52.68,114.915 55.158,127.369C56.54,134.314 64.954,140.572 72.423,145.682C79.39,150.449 82.952,159.27 100.003,159.27C117.054,159.27 120.616,150.449 127.583,145.682C135.051,140.573 143.466,134.315 144.848,127.369C147.327,114.915 158.857,76.999 158.868,76.946L158.87,76.946C160.168,72.035 160.864,66.88 160.872,61.564C160.923,28.09 133.62,0.919 100.002,0.867Z" style="fill:none;fill-rule:nonzero;stroke:rgb(72,28,8);stroke-width:1.5px;"/>
                            </g>
                        </g>
                        <g id="svga-group-mouth-single-move">
                            <g id="svga-group-mouth-single">
                                <path id="SvgjsPath4582" d="M99.983,143.169C96.743,143.169 95.23,140.369 95.23,140.369C95.23,140.369 100.027,141.149 104.509,140.302C104.509,140.302 102.832,143.169 99.983,143.169Z" style="fill:url(#_Linear2);fill-rule:nonzero;"/>
                                <path id="SvgjsPath4586" d="M99.869,137.399C93.317,137.399 90.398,135.052 87.869,132L111.869,132C109.771,135.125 106.703,137.399 99.869,137.399Z" style="fill:white;fill-rule:nonzero;"/>
                                <path id="SvgjsPath4587" d="M99.869,137.399C93.317,137.399 90.398,135.052 87.869,132L111.869,132C109.771,135.125 106.703,137.399 99.869,137.399Z" style="fill:none;fill-rule:nonzero;stroke:black;stroke-width:0.75px;"/>
                            </g>
                        </g>
                        <g id="svga-group-facehighlight-single">
                            <path id="SvgjsPath2772" d="M140.204,113.007C140.239,135.282 122.209,153.372 99.931,153.403C77.657,153.439 59.57,135.41 59.535,113.131C59.501,90.857 77.53,72.77 99.808,72.735C122.083,72.701 140.171,90.73 140.204,113.007Z" style="fill:url(#_Radial3);fill-rule:nonzero;"/>
                            <path id="SvgjsPath2776" d="M135,55.999C135,75.328 119.329,90.999 100,90.999C80.671,90.999 65,75.328 65,55.999C65,36.67 80.671,20.999 100,20.999C119.329,20.999 135,36.67 135,55.999Z" style="fill:url(#_Radial4);fill-rule:nonzero;"/>
                        </g>
                        <g id="svga-group-eyebrows-left-move">
                            <g id="svga-group-eyebrows-left-rotate">
                                <g id="svga-group-eyebrows-left">
                                    <path id="SvgjsPath4447" d="M57.672,67.988C64.691,71.534 70.743,72.431 87.312,74.423C87.854,74.509 88.241,74.61 88.589,74.614C90.255,74.582 91.672,73.053 91.443,71.688C90.66,66.485 64.682,68.92 57.672,67.988Z" style="fill:rgb(42,35,43);fill-rule:nonzero;"/>
                                </g>
                            </g>
                        </g>
                        <g id="svga-group-eyebrows-right-move">
                            <g id="svga-group-eyebrows-right-rotate">
                                <g id="svga-group-eyebrows-right">
                                    <path id="SvgjsPath4448" d="M142.328,67.988C131.46,73.479 120.938,72.549 112.688,74.423C111.688,74.582 111.303,74.779 110.334,74.369C108.189,73.436 107.936,71.03 109.74,70.367C117.75,66.365 132.818,69.252 142.328,67.988Z" style="fill:rgb(42,35,43);fill-rule:nonzero;"/>
                                </g>
                            </g>
                        </g>
                        <g id="svga-group-nose-single-move">
                            <g id="svga-group-nose-single">
                                <path id="SvgjsPath4483" d="M93.787,116.99C93.787,116.99 95.106,116.021 99.537,116.021C104.777,116.021 106.222,116.78 106.222,116.78C106.222,116.78 102.512,119.18 99.285,118.705C96.513,118.295 93.787,116.99 93.787,116.99Z" style="fill:rgb(103,54,32);fill-rule:nonzero;"/>
                                <path id="SvgjsPath4484" d="M100.06,120.097C98.879,120.097 97.678,119.568 96.637,119.052C96.214,118.844 95.799,118.678 95.333,118.591C94.751,118.482 93.677,118.677 93.248,118.235C92.791,117.762 93.163,117.018 93.788,116.991C94.559,117.003 95.339,117.058 96.086,117.258C97.395,117.608 98.513,118.512 99.9,118.624C100.951,118.708 102.119,118.044 103.059,117.647C103.797,117.335 106.268,116.172 106.864,117.19C107.233,117.819 106.642,118.265 106.075,118.297C105.373,118.336 104.681,118.574 104.032,118.831C102.777,119.327 101.441,120.097 100.06,120.097Z" style="fill:rgb(87,40,18);fill-rule:nonzero;"/>
                                <path id="SvgjsPath4485" d="M99.989,116.076C100.545,116.076 101.842,115.429 101.629,114.174C100.369,106.764 99.989,93.929 99.989,93.929C99.989,93.929 99.025,108.962 98.201,114.174C98.001,115.443 99.36,116.076 99.989,116.076Z" style="fill:rgb(149,109,90);fill-opacity:0.2;fill-rule:nonzero;"/>
                            </g>
                        </g>
                        <g id="svga-group-hair-front">
                            <path id="SvgjsPath4555" d="M158.43,41.325C140,-4.765 100,0.405 100,0.405C100,0.405 60,-4.764 41.57,41.325C32.325,64.445 43.728,91.649 43.728,91.649L49.554,91.649C49.554,91.649 46.673,79.346 47.832,74.734C48.113,73.616 50.623,71.074 50.73,69.927C50.848,68.672 50.43,66.56 50.309,65.305C49.717,59.193 52.291,47.276 55.554,42.132C57.157,39.606 60.923,35.473 63.728,34.433C67.528,33.025 74.055,32.694 78.04,33.433C80.316,33.855 84.337,35.29 86.582,35.854C89.851,36.676 100,36.722 100,36.722C100,36.722 110.148,36.676 113.418,35.855C115.663,35.292 119.685,33.957 121.961,33.534C125.945,32.795 132.473,33.126 136.273,34.534C139.079,35.574 143.144,39.506 144.747,42.033C148.01,47.177 150.284,58.193 149.692,64.305C149.571,65.56 149.153,68.672 149.27,69.928C149.377,71.075 151.887,73.617 152.168,74.735C153.328,79.347 150.446,91.65 150.446,91.65L156.271,91.65C156.271,91.649 167.676,64.445 158.43,41.325Z" style="fill:rgb(42,35,43);fill-rule:nonzero;"/>
                            <path id="SvgjsPath4556" d="M154.938,31.163C136.178,-3.114 101.979,-0.631 100,-0.455C98.021,-0.631 63.823,-3.114 45.062,31.163C30.57,57.641 41.57,88.137 42.907,91.612C42.983,91.809 44.483,91.65 44.483,91.65C44.477,91.635 44.379,91.258 44.317,91.1C43.108,87.98 32.128,57.92 46.378,31.884C65.111,-2.342 99.595,1.007 99.94,1.046L100,0.504L100.06,1.046C100.405,1.007 134.889,-2.342 153.623,31.883C168.186,58.493 156.396,89.306 155.619,91.266C155.598,91.321 155.512,91.641 155.508,91.649C155.508,91.649 157.014,91.818 157.083,91.638C158.374,88.294 169.467,57.709 154.938,31.163Z" style="fill-rule:nonzero;"/>
                        </g>
                        <g id="svga-group-glasses-single-move">
                        </g>
                    </g>
                </g>
            </g>
        </g>
    </g>
    <defs>
        <linearGradient id="_Linear1" x1="0" y1="0" x2="1" y2="0" gradientUnits="userSpaceOnUse" gradientTransform="matrix(2.13817e-15,-34.919,34.919,2.13817e-15,99.98,171.27)"><stop offset="0" style="stop-color:rgb(103,54,32);stop-opacity:0.8"/><stop offset="0.7" style="stop-color:rgb(72,28,8);stop-opacity:1"/><stop offset="1" style="stop-color:rgb(72,28,8);stop-opacity:1"/></linearGradient>
        <linearGradient id="_Linear2" x1="0" y1="0" x2="1" y2="0" gradientUnits="userSpaceOnUse" gradientTransform="matrix(1.83697e-16,-3,3,1.83697e-16,100,143)"><stop offset="0" style="stop-color:rgb(110,62,39);stop-opacity:1"/><stop offset="0.1" style="stop-color:rgb(110,62,39);stop-opacity:1"/><stop offset="1" style="stop-color:rgb(103,54,32);stop-opacity:1"/></linearGradient>
        <radialGradient id="_Radial3" cx="0" cy="0" r="1" gradientUnits="userSpaceOnUse" gradientTransform="matrix(40,0,0,40,100,113)"><stop offset="0" style="stop-color:rgb(133,88,68);stop-opacity:0.5"/><stop offset="0.9" style="stop-color:rgb(118,70,48);stop-opacity:0"/><stop offset="1" style="stop-color:rgb(118,70,48);stop-opacity:0"/></radialGradient>
        <radialGradient id="_Radial4" cx="0" cy="0" r="1" gradientUnits="userSpaceOnUse" gradientTransform="matrix(36,0,0,36,100,57)"><stop offset="0" style="stop-color:rgb(133,88,68);stop-opacity:0.5"/><stop offset="0.9" style="stop-color:rgb(118,70,48);stop-opacity:0"/><stop offset="1" style="stop-color:rgb(118,70,48);stop-opacity:0"/></radialGradient>
    </defs>
</svg>
