<?xml version="1.0" encoding="UTF-8" standalone="no"?>
<!DOCTYPE svg PUBLIC "-//W3C//DTD SVG 1.1//EN" "http://www.w3.org/Graphics/SVG/1.1/DTD/svg11.dtd">
<svg width="100%" height="100%" viewBox="0 0 3334 3334" version="1.1" xmlns="http://www.w3.org/2000/svg" xmlns:xlink="http://www.w3.org/1999/xlink" xml:space="preserve" xmlns:serif="http://www.serif.com/" style="fill-rule:evenodd;clip-rule:evenodd;">
    <g transform="matrix(5.55556,0,0,5.55556,0,0)">
        <g id="svga-group-wrapper" transform="matrix(3,0,0,3,0,0)">
            <g id="svga-group-backs-single">
                <rect id="SvgjsPath3708" x="-25" y="-25" width="250" height="250" style="fill:rgb(241,185,185);fill-rule:nonzero;"/>
            </g>
            <g id="svga-group-humanwrap-move">
                <g id="svga-group-humanwrap">
                    <g id="svga-group-hair-back-move">
                        <g id="svga-group-hair-back">
                            <path id="SvgjsPath3797" d="M160.527,108.896C159.701,141.026 135.26,211.485 102.058,211.485C68.857,211.485 41.089,141.985 40.291,108.896C39.141,61.226 67.208,22.557 100.409,22.557C133.611,22.558 161.753,61.229 160.527,108.896Z" style="fill:rgb(12,8,12);fill-rule:nonzero;"/>
                        </g>
                    </g>
                    <g id="svga-group-humanbody-single">
                        <path id="SvgjsPath2780" d="M190.858,199.866C184.85,189.708 177.384,187.893 171.23,185.93C164.907,183.914 151.884,182.752 144.781,181.33C137.921,179.957 121.628,175.541 121.442,167.842C121.25,159.776 125.733,127.752 125.733,127.752L74.005,127.752C74.005,127.752 78.492,159.775 78.299,167.842C78.115,175.541 61.819,179.957 54.958,181.33C47.854,182.752 34.833,183.914 28.51,185.93C22.354,187.893 14.886,189.707 8.878,199.866C5.234,206.026 2.87,215.999 2.87,226.999L196.87,226.999C196.869,215.999 194.509,206.026 190.858,199.866Z" style="fill:rgb(243,212,207);fill-rule:nonzero;"/>
                        <path id="SvgjsPath2781" d="M121.442,167.843C123.937,178.772 139.607,181.541 147.735,183.168C169.644,187.547 181.507,188.302 190.032,202.707C192.935,207.623 195.491,218.571 195.994,226.86C197.829,227.151 196.525,209.428 190.858,199.866C181.116,183.394 161.769,184.731 144.781,181.331C137.921,179.958 121.628,175.542 121.442,167.843ZM78.558,167.843C78.372,175.542 62.079,179.958 55.219,181.331C38.231,184.731 18.884,183.394 9.142,199.866C3.475,209.429 2.171,227.151 4.006,226.86C4.509,218.571 7.065,207.623 9.968,202.707C18.492,188.302 30.356,187.547 52.265,183.168C60.393,181.541 76.063,178.771 78.558,167.843Z" style="fill:rgb(255,244,243);fill-rule:nonzero;"/>
                        <path id="SvgjsPath2782" d="M51.206,189.513C51.206,189.513 79.847,189.812 84.679,191.398C86.993,192.156 93.051,197.031 93.051,197.031C93.051,197.031 86.495,193.861 84.393,193.273C79.51,191.909 51.206,189.513 51.206,189.513ZM99.795,199.999C101.848,199.958 107.682,196.2 107.682,196.2C107.682,196.2 102.108,198.259 100.34,198.36C98.849,198.446 93.974,197.122 93.974,197.122C93.974,197.122 98.112,200.032 99.795,199.999ZM117.008,192.757C123.758,190.939 146.794,189.527 146.794,189.527C146.794,189.527 123.003,189.011 116.284,191.252C114.032,192.004 108.722,196.412 108.722,196.412C108.722,196.412 114.786,193.354 117.008,192.757Z" style="fill:rgb(228,179,171);fill-rule:nonzero;"/>
                        <path id="SvgjsPath2783" d="M190.858,199.866C181.117,183.395 161.736,184.724 144.781,181.331C137.921,179.958 121.628,175.542 121.442,167.843C121.25,159.777 125.733,127.753 125.733,127.753L74.005,127.753C74.005,127.753 78.492,159.776 78.299,167.843C78.115,175.542 61.819,179.958 54.958,181.331C47.854,182.753 34.833,183.915 28.51,185.931C22.354,187.894 14.886,189.708 8.878,199.867C5.234,206.027 2.87,216 2.87,227L196.87,227C196.869,215.999 194.509,206.026 190.858,199.866Z" style="fill:none;fill-rule:nonzero;stroke:rgb(197,121,109);stroke-width:1.5px;"/>
                    </g>
                    <g id="svga-group-chinshadow-single">
                        <path id="SvgjsPath3628" d="M100.021,171.27C105.628,171.261 113.551,167.643 120.988,162.792C121.473,155.952 122.744,145.451 123.746,137.694C109.774,135.869 89.918,135.909 76.005,137.795C77,145.497 78.254,155.86 78.744,162.672C86.278,167.593 94.344,171.279 100.021,171.27Z" style="fill:url(#_Linear1);fill-rule:nonzero;"/>
                    </g>
                    <g id="svga-group-clothes-single">
                        <path id="SvgjsPath3819" d="M3.229,223.031C2.607,223.024 2.773,223.025 2.309,223.025C2.334,205.241 8.998,191.966 20.146,187.507C21.612,187.821 23.183,188.232 24.66,188.54C11.551,194.886 4.531,208.814 3.229,223.031ZM181.643,188.404C179.788,188.655 177.96,188.895 176.139,189.133C189.492,194.883 193.563,209.667 195.573,222.987C195.917,222.986 196.228,222.985 196.504,222.985C195.421,206.217 195.152,195.351 181.643,188.404Z" style="fill:rgb(78,104,141);fill-rule:nonzero;"/>
                        <path id="SvgjsPath3820" d="M181.509,192.193C182.243,192.082 183.542,191.869 184.27,191.755C182.592,190.484 181.6,189.797 180.6,189.206C174.749,190.215 121.316,196.318 92.09,196.318C53.753,196.318 25.468,189.558 20.139,188.025C19.049,188.645 17.989,189.326 16.989,190.086C17.989,190.343 19.19,190.684 20.207,190.927C9.869,198.017 4.382,210.445 3.229,223.031C33.619,223.372 64.676,223.545 95.55,223.545L95.565,223.545C136.241,223.545 167.239,223.247 183.893,223.087C189.281,223.035 193.22,222.997 195.572,222.987C193.85,211.572 190.635,199.159 181.509,192.193Z" style="fill:rgb(57,85,126);fill-rule:nonzero;"/>
                        <path id="SvgjsPath3821" d="M23.439,189.002C22.322,189.597 21.258,190.254 20.235,190.957C70.038,202.995 130.455,199.962 181.409,192.193C180.278,191.339 179.055,190.568 177.736,189.89C129.006,198.106 71.062,201.817 23.439,189.002Z" style="fill:rgb(39,68,111);fill-rule:nonzero;"/>
                        <path id="SvgjsPath3822" d="M181.629,188.306C92.209,200.387 57.244,195.337 20.109,187.415C6.83,192.727 2.209,208.767 2.209,223.125L2.699,223.125C108.36,224.318 185.022,223.085 196.609,223.085C195.509,206.252 195.316,195.321 181.629,188.306ZM20.239,188.125C69.371,202.259 130.203,198.146 180.599,189.405C181.599,189.996 182.591,190.484 184.269,191.755C131.662,200.015 68.4,203.37 17.089,190.186C18.089,189.426 19.149,188.745 20.239,188.125ZM2.769,222.605C4.73,208.212 7.389,197.886 16.739,190.455C67.433,205.008 132.921,201.924 184.999,192.315C193.308,198.966 192.883,206.022 196.009,222.635C140.967,222.022 68.396,221.847 2.769,222.605Z" style="fill:rgb(12,40,80);fill-rule:nonzero;"/>
                    </g>
                    <g id="svga-group-head">
                        <g id="svga-group-ears-left-move">
                            <g id="svga-group-ears-left">
                                <path id="SvgjsPath3614" d="M47.001,83.974C45.625,81.661 41.363,75.977 37.021,77.371C34.272,78.253 33.728,81.136 33.286,83.682C32.698,87.068 33.757,93.765 34.675,96.185C35.556,98.51 38.208,103.001 39.939,104.712C42.069,106.812 44.714,113.505 45.133,114.199C45.793,115.296 46.669,116.944 49.255,116.737C52.108,116.508 53.839,114.995 55.111,114.738C58.253,114.109 50.582,89.995 47.001,83.974Z" style="fill:rgb(243,212,207);fill-rule:nonzero;stroke:rgb(197,121,109);stroke-width:1.5px;"/>
                                <path id="SvgjsPath3615" d="M44.197,97.997C44.065,97.449 44.204,96.527 44.339,95.635C44.463,94.823 44.579,94.056 44.508,93.514C44.241,91.482 42.735,87.621 41.751,85.529C40.619,83.122 38.788,80.09 36.489,79.308C35.539,78.984 34.914,79.371 34.551,79.764C34.285,80.053 34.226,80.391 34.313,80.431C34.399,80.471 34.598,80.191 34.885,79.927C35.12,79.711 35.464,79.525 35.936,79.564C35.746,80.575 34.769,86.054 35.192,89.789C35.525,92.727 36.785,94.92 36.982,95.249C37.011,95.595 37.059,95.934 37.13,96.263C38.059,100.55 42.101,105.426 43.508,107.021C43.767,107.316 44.039,107.491 44.106,107.419C44.172,107.347 44.012,107.055 43.753,106.759C42.365,105.174 38.362,100.317 37.464,96.18C36.512,91.791 39.782,85.284 40.512,83.908C40.883,84.554 41.199,85.175 41.442,85.693C41.632,86.099 41.844,86.574 42.061,87.088C41.632,87.806 38.627,93.046 39.723,97.241C40.129,98.787 41.958,100.781 43.17,101.327C43.837,101.628 44.089,102.077 44.379,102.598C44.715,103.202 45.097,103.886 46.207,104.382C46.432,104.484 46.636,104.524 46.817,104.524C47.13,104.524 47.368,104.398 47.542,104.248C47.56,104.514 47.559,104.852 47.551,105.165C47.539,105.569 47.593,105.902 47.688,105.91C47.782,105.918 47.884,105.597 47.895,105.193C47.911,104.697 47.908,104.083 47.823,103.79C47.575,102.925 46.815,101.949 46.01,100.915C45.221,99.896 44.403,98.844 44.197,97.997ZM36.95,94.196C34.773,87.465 37.606,81.656 38.094,80.732C38.944,81.507 39.694,82.543 40.304,83.556C39.86,84.365 37.041,89.669 36.95,94.196ZM46.341,104.042C45.337,103.595 45.002,102.991 44.675,102.409C44.382,101.882 44.077,101.337 43.306,100.989C43.138,100.914 42.954,100.798 42.764,100.666C40.278,94.76 43.036,92.178 43.727,91.649C43.938,92.371 44.096,93.033 44.166,93.564C44.229,94.052 44.114,94.827 43.999,95.576C43.857,96.505 43.713,97.466 43.862,98.088C44.088,99.014 44.931,100.097 45.746,101.145C46.469,102.074 47.212,103.033 47.467,103.815C47.359,103.972 47.017,104.345 46.341,104.042Z" style="fill:rgb(197,121,109);fill-rule:nonzero;"/>
                            </g>
                        </g>
                        <g id="svga-group-ears-right-move">
                            <g id="svga-group-ears-right">
                                <path id="SvgjsPath3616" d="M152.736,83.974C154.113,81.661 158.375,75.977 162.716,77.371C165.466,78.253 166.009,81.136 166.452,83.682C167.04,87.068 165.981,93.765 165.063,96.185C164.182,98.51 161.53,103.001 159.797,104.712C157.668,106.812 155.022,113.505 154.604,114.199C153.946,115.296 153.069,116.944 150.483,116.737C147.629,116.508 145.899,114.995 144.626,114.738C141.484,114.109 149.156,89.995 152.736,83.974Z" style="fill:rgb(243,212,207);fill-rule:nonzero;stroke:rgb(197,121,109);stroke-width:1.5px;"/>
                                <path id="SvgjsPath3617" d="M153.727,100.913C152.922,101.946 152.163,102.922 151.914,103.788C151.828,104.081 151.826,104.695 151.842,105.191C151.854,105.595 151.955,105.916 152.049,105.908C152.143,105.9 152.197,105.567 152.186,105.163C152.178,104.85 152.178,104.512 152.196,104.246C152.37,104.396 152.608,104.522 152.921,104.522C153.103,104.522 153.306,104.482 153.53,104.38C154.639,103.884 155.022,103.2 155.358,102.596C155.647,102.076 155.901,101.627 156.567,101.325C157.78,100.779 159.608,98.785 160.014,97.239C161.11,93.045 158.106,87.804 157.676,87.086C157.893,86.573 158.106,86.098 158.295,85.691C158.539,85.173 158.854,84.552 159.225,83.906C159.955,85.283 163.225,91.789 162.274,96.178C161.378,100.315 157.374,105.172 155.985,106.757C155.727,107.053 155.567,107.345 155.633,107.417C155.699,107.488 155.971,107.313 156.231,107.019C157.637,105.423 161.68,100.548 162.61,96.261C162.68,95.932 162.727,95.593 162.756,95.247C162.953,94.918 164.215,92.724 164.547,89.787C164.969,86.052 163.992,80.573 163.803,79.562C164.276,79.523 164.617,79.708 164.854,79.925C165.141,80.189 165.34,80.469 165.426,80.429C165.512,80.389 165.453,80.051 165.188,79.762C164.825,79.369 164.2,78.983 163.25,79.306C160.951,80.088 159.119,83.12 157.988,85.527C157.004,87.62 155.498,91.48 155.23,93.512C155.158,94.054 155.275,94.821 155.4,95.633C155.535,96.525 155.673,97.447 155.541,97.995C155.336,98.844 154.518,99.896 153.727,100.913ZM159.434,83.555C160.045,82.542 160.795,81.506 161.645,80.731C162.133,81.656 164.965,87.464 162.79,94.195C162.697,89.669 159.879,84.365 159.434,83.555ZM152.27,103.816C152.524,103.034 153.268,102.075 153.991,101.146C154.807,100.098 155.649,99.015 155.876,98.089C156.024,97.467 155.88,96.506 155.739,95.577C155.624,94.828 155.509,94.053 155.573,93.565C155.641,93.034 155.8,92.372 156.011,91.65C156.702,92.179 159.46,94.761 156.976,100.667C156.785,100.799 156.601,100.915 156.433,100.99C155.662,101.338 155.359,101.883 155.064,102.41C154.738,102.992 154.402,103.596 153.398,104.043C152.721,104.345 152.379,103.972 152.27,103.816Z" style="fill:rgb(197,121,109);fill-rule:nonzero;"/>
                            </g>
                        </g>
                        <g id="svga-group-faceshape-wrap">
                            <g id="svga-group-faceshape-single">
                                <path id="SvgjsPath3625" d="M158.785,76.762L158.78,76.762C158.768,76.815 148.063,121.135 139.861,133.712C133.409,143.607 111.695,159.252 100.021,159.27C88.35,159.29 66.584,143.711 60.103,133.837C51.861,121.285 41.017,77 41.005,76.946L41.004,76.946C39.706,72.035 39.01,66.88 39.002,61.564C38.949,28.09 66.155,0.919 99.773,0.867C133.394,0.815 160.686,27.9 160.737,61.374C160.746,66.69 160.068,71.846 158.785,76.762Z" style="fill:rgb(243,212,207);fill-rule:nonzero;"/>
                                <path id="SvgjsPath3626" d="M125.766,6.622C144.87,16.87 157.841,36.977 157.805,60.098C157.796,65.414 157.101,70.569 155.802,75.48L155.801,75.48C155.789,75.533 144.945,119.819 136.702,132.371C130.756,141.432 112.147,157.492 99.869,157.492C87.59,157.492 68.983,141.431 63.036,132.371C54.794,119.819 43.95,75.534 43.938,75.48L43.937,75.48C42.639,70.569 41.943,65.414 41.935,60.098C41.898,36.977 54.87,16.87 73.972,6.622C53.277,16.324 38.963,37.28 39.001,61.564C39.009,66.88 39.705,72.035 41.003,76.946L41.004,76.946C41.016,76.999 51.86,121.285 60.102,133.837C64.518,140.565 76.024,149.932 86.602,155.219C86.073,154.993 85.54,154.753 85.003,154.502C90.411,157.377 95.667,159.265 99.716,159.27C99.765,159.27 99.819,159.265 99.868,159.265C99.917,159.265 99.971,159.27 100.02,159.27C104.069,159.265 109.325,157.377 114.734,154.502C114.196,154.755 113.663,154.993 113.133,155.22C123.71,149.933 135.218,140.565 139.634,133.837C147.876,121.285 158.721,77 158.732,76.946L158.734,76.946C160.032,72.035 160.728,66.88 160.736,61.564C160.775,37.28 146.462,16.324 125.766,6.622Z" style="fill:rgb(235,195,189);fill-rule:nonzero;"/>
                                <path id="SvgjsPath3627" d="M158.785,76.762L158.78,76.762C158.768,76.815 148.063,121.135 139.861,133.712C133.409,143.607 111.695,159.252 100.021,159.27C88.35,159.29 66.584,143.711 60.103,133.837C51.861,121.285 41.017,77 41.005,76.946L41.004,76.946C39.706,72.035 39.01,66.88 39.002,61.564C38.949,28.09 66.155,0.919 99.773,0.867C133.394,0.815 160.686,27.9 160.737,61.374C160.746,66.69 160.068,71.846 158.785,76.762Z" style="fill:none;fill-rule:nonzero;stroke:rgb(197,121,109);stroke-width:1.5px;"/>
                            </g>
                        </g>
                        <g id="svga-group-mouth-single-move">
                            <g id="svga-group-mouth-single">
                                <path id="SvgjsPath3779" d="M99.867,141.087C95.708,141.087 92.609,136.79 92.609,136.79C99.87,140.11 107.524,136.79 107.524,136.79C107.524,136.79 103.516,141.087 99.867,141.087Z" style="fill:url(#_Linear2);fill-rule:nonzero;"/>
                                <path id="SvgjsPath3783" d="M112.127,131.943C112.127,132.568 104.354,135.399 99.869,135.518C95.689,135.63 87.536,132.836 87.536,131.943C87.536,131.051 93.977,130.385 100.265,130.385C106.555,130.386 112.127,131.052 112.127,131.943Z" style="fill:white;fill-rule:nonzero;"/>
                                <path id="SvgjsPath3784" d="M95.441,127.853C96.431,127.722 98.169,128.761 100.265,128.762C101.806,128.764 103.691,127.695 104.877,127.853C107.406,128.194 108.734,129.735 115.368,130.323C115.368,130.323 112.148,131.406 111.293,131.473C108.573,131.689 104.078,131.304 100.006,131.292C95.45,131.272 91.065,131.722 88.309,131.593C87.315,131.542 84.368,130.456 84.368,130.456C89.901,130.196 92.547,128.235 95.441,127.853ZM84.369,130.818C84.369,130.818 88.883,134.356 90.622,135.578C92.629,136.989 95.651,139.201 100.096,139.135C103.659,139.077 106.737,137.319 108.573,136.149C110.551,134.89 115.369,130.686 115.369,130.686C112.599,131.319 112.599,131.319 111.294,131.835C108.553,132.919 103.817,134.557 100.121,134.557C95.558,134.557 91.185,132.918 88.31,131.954C86.315,131.286 84.369,130.818 84.369,130.818Z" style="fill:rgb(247,113,169);fill-rule:nonzero;stroke:rgb(232,83,145);stroke-width:0.75px;"/>
                                <path id="SvgjsPath3785" d="M115.592,130.572C115.134,131.235 113.452,131.287 112.704,131.549C111.606,131.932 110.542,132.405 109.445,132.794C106.752,133.748 103.935,134.586 101.07,134.774C95.734,135.125 90.471,132.966 85.474,131.364C85.05,131.228 84.48,131.189 84.115,130.915C83.789,130.671 84.1,130.147 84.451,130.214C85.502,130.413 86.543,130.945 87.592,131.208C88.816,131.516 90.175,131.368 91.424,131.321C93.016,131.262 94.608,131.175 96.201,131.114C99.128,131.005 102.043,131.061 104.969,131.173C107.59,131.274 110.335,131.575 112.884,130.841C113.572,130.642 114.263,130.442 114.931,130.185C115.179,130.09 115.94,130.07 115.592,130.572C115.415,130.828 115.632,130.515 115.592,130.572ZM108.39,131.773C104.975,131.786 101.568,131.487 98.15,131.556C96.276,131.594 94.405,131.695 92.533,131.775C91.967,131.799 90.908,131.632 90.423,131.979C89.957,132.313 91.605,132.786 91.748,132.831C95.054,133.87 98.577,134.611 102.052,134.177C103.756,133.963 105.434,133.545 107.075,133.047C107.715,132.852 108.514,132.706 109.062,132.304C109.635,131.883 108.656,131.773 108.39,131.773C107.333,131.777 109.492,131.771 108.39,131.773Z" style="fill:rgb(201,32,102);fill-rule:nonzero;"/>
                                <path id="SvgjsPath3786" d="M99.901,138.136C95.736,138.136 92.436,135.732 89.267,133.335C96.981,135.945 103.489,135.907 111.086,132.989C107.874,135.609 104.215,138.095 99.901,138.136ZM93.601,130.478C99.168,130.216 104.703,130.706 110.258,130.525C108.411,130.072 106.635,129.099 104.746,128.844C103.294,128.702 101.762,129.762 100.265,129.762C98.632,129.761 97.152,128.844 95.573,128.844C93.549,129.114 91.65,130.073 89.692,130.615C90.996,130.593 92.299,130.547 93.601,130.478C95.469,130.39 92.18,130.543 93.601,130.478Z" style="fill:rgb(255,142,189);fill-rule:nonzero;"/>
                                <path id="SvgjsPath3787" d="M95.134,136.031C96.73,136.35 98.399,136.556 100.121,136.556C101.574,136.556 103.15,136.334 104.719,135.993C103.335,136.617 101.746,137.125 100.065,137.134C98.283,137.145 96.471,136.67 95.134,136.031Z" style="fill:rgb(255,168,204);fill-rule:nonzero;"/>
                            </g>
                        </g>
                        <g id="svga-group-facehighlight-single">
                            <path id="SvgjsPath2772" d="M140.204,113.007C140.239,135.282 122.209,153.372 99.931,153.403C77.657,153.439 59.57,135.41 59.535,113.131C59.501,90.857 77.53,72.77 99.808,72.735C122.083,72.701 140.171,90.73 140.204,113.007Z" style="fill:url(#_Radial3);fill-rule:nonzero;"/>
                            <path id="SvgjsPath2776" d="M135,55.999C135,75.328 119.329,90.999 100,90.999C80.671,90.999 65,75.328 65,55.999C65,36.67 80.671,20.999 100,20.999C119.329,20.999 135,36.67 135,55.999Z" style="fill:url(#_Radial4);fill-rule:nonzero;"/>
                        </g>
                        <g id="svga-group-eyebrows-left-move">
                            <g id="svga-group-eyebrows-left-rotate">
                                <g id="svga-group-eyebrows-left">
                                    <path id="SvgjsPath2797" d="M74.799,69.068C70.374,68.593 53.547,72.782 53.547,72.782C53.547,72.782 70.336,66.042 77.304,67.115C82.492,67.913 91.701,72.192 90.01,74.454C88.649,76.275 84.408,70.1 74.799,69.068Z" style="fill:rgb(42,35,43);fill-rule:nonzero;"/>
                                </g>
                            </g>
                        </g>
                        <g id="svga-group-eyebrows-right-move">
                            <g id="svga-group-eyebrows-right-rotate">
                                <g id="svga-group-eyebrows-right">
                                    <path id="SvgjsPath2798" d="M109.731,74.187C108.018,71.895 117.323,67.877 123.277,67.383C130.394,66.793 146.191,71.468 146.191,71.468C146.191,71.468 130.291,68.84 125.814,69.362C115.998,70.506 111.11,76.031 109.731,74.187Z" style="fill:rgb(42,35,43);fill-rule:nonzero;"/>
                                </g>
                            </g>
                        </g>
                        <g id="svga-group-nose-single-move">
                            <g id="svga-group-nose-single">
                                <path id="SvgjsPath3715" d="M92.281,116.235C91.536,118.298 97.309,120.524 99.499,120.661C101.873,120.808 108.523,117.762 107.395,115.67C106.21,113.473 101.765,115.384 99.848,115.384C97.94,115.384 93.276,113.479 92.281,116.235Z" style="fill:rgb(228,179,171);fill-rule:nonzero;"/>
                                <path id="SvgjsPath3716" d="M102.207,117.221C101.964,116.699 103.401,115.888 103.955,115.728C104.732,115.502 106.46,115.966 106.393,116.559C106.333,117.08 104.79,116.39 104.288,116.537C103.767,116.687 102.435,117.712 102.207,117.221ZM95.214,116.742C95.92,116.742 96.967,117.199 97.159,116.799C97.388,116.32 95.599,115.734 95.073,115.799C94.639,115.851 93.082,116.757 93.296,117.137C93.496,117.49 94.284,116.742 95.214,116.742Z" style="fill:rgb(197,121,109);fill-rule:nonzero;"/>
                                <path id="SvgjsPath3717" d="M99.857,113.479C100.526,113.479 101.664,112.842 101.835,111.579C102.589,106.004 101.314,91.333 99.857,91.333C98.492,91.333 97.349,106.357 97.702,111.579C97.789,112.86 99.099,113.479 99.857,113.479" style="fill:white;fill-opacity:0.2;fill-rule:nonzero;"/>
                            </g>
                        </g>
                        <g id="svga-group-hair-front">
                            <path id="SvgjsPath3799" d="M146.93,34.899L51.19,34.899L53.237,98.564C53.65,97.562 59.404,87.217 60.12,88.679C87.137,75.346 95.91,58.476 101.282,44.918C93.276,78.571 73.967,83.312 73.967,83.312C78.197,82.842 90.339,81.588 98.353,73.264C99.402,72.155 108.27,65.458 115.992,44.578C117.59,61.757 125.094,80.434 137.77,88.395C133.526,80.031 127.958,58.476 126.936,43.282C133.977,77.651 141.099,95.716 147.532,107.888C149.718,112.023 154.03,119.333 153.523,119.232C155.064,127.09 146.93,34.899 146.93,34.899Z" style="fill:rgb(42,35,43);fill-opacity:0.1;fill-rule:nonzero;"/>
                            <path id="SvgjsPath3800" d="M123.977,2.768C120.894,1.596 118.691,0.751 115.968,0.022C115.922,-0.978 63.421,-15.928 36.757,46.242C30,65.827 26.418,96.013 32.644,115.821C34.083,120.208 38.082,126.436 41.884,147.312C43.714,157.361 45.159,165.297 56.064,176.317C58.927,179.213 66.262,184.965 67.58,190.08C71.62,167.843 63.941,161.596 56.638,155.632C51.63,151.542 46.752,150.606 59.722,153.682C59.722,153.682 62.464,153.51 67.804,150.135C59.352,151.915 53.308,149.047 49.409,142.29C44.256,133.359 44.283,119.858 49.472,110.886C54.683,113.826 54.415,128.044 54.685,129.861C57.021,122.481 53.617,100.857 53.238,98.565C53.152,97.534 54.582,93.997 54.582,93.997C54.995,92.995 59.405,84.962 60.121,86.425C87.138,73.092 95.911,56.222 101.283,42.664C93.277,76.317 74.945,82.794 74.945,82.794C79.175,82.324 90.34,79.334 98.353,71.01C99.402,69.901 108.928,59.467 116.65,38.587C118.248,55.766 126.004,75.15 136.104,86.716C131.86,78.352 127.958,56.222 126.936,41.028C133.977,75.397 142.709,91.923 149.142,104.094C151.328,108.229 153.775,115.206 153.268,115.105C154.81,122.962 151.579,141.099 136.387,145.422C139.366,145.981 141.912,146.05 144.119,145.752C127.65,162.012 136.86,171.573 139.931,188.767C140.787,185.719 140.756,182.595 145.397,175.858C154.098,163.212 147.381,162.971 158.061,142.126C169.515,119.765 168.182,111.036 169.209,105.098C169.358,104.3 175.752,22.291 123.977,2.768Z" style="fill:rgb(42,35,43);fill-rule:nonzero;"/>
                            <path id="SvgjsPath3801" d="M67.764,188.989C68.187,186.395 68.455,184.046 68.599,181.892C68.471,184.053 68.198,186.411 67.764,188.989ZM74,74C86.458,55.924 94,43 98,24C88.474,45.91 71.599,63.19 57.148,81.299C56.969,77.154 57.619,53.486 76.299,25.229C53.909,45.714 44.072,74.808 50,92.329C45.619,83.064 42.369,64.906 45.466,52.337C32.93,82.071 50.324,95.5 55.201,114.308C53.857,96.126 52.052,99.581 54.582,93.325C54.935,92.469 57.386,87.773 57.523,88.849C58.671,87.103 59.79,85.749 60.12,86.424C87.137,73.091 95.91,56.221 101.282,42.663C93.276,76.316 74.944,82.793 74.944,82.793C87.376,81.413 106.992,59.921 104.281,28.741C99.279,46.741 86.458,62.405 74,74ZM167.643,69.768C168.346,85.58 166.535,100.791 164,116C162,102 158.354,85.568 151.834,67.036C157.369,92.636 156.689,101.832 156.994,111.734C143.848,83.107 130.65,58.45 125.583,28.906C124.631,39.739 127.384,55.924 129,68C124.631,58.239 119.702,46.572 117.916,28.741C117.916,32.176 117.517,33.963 116.358,38.218C118.089,55.232 126.131,75.296 136.103,86.715C131.859,78.351 127.957,56.221 126.935,41.027C133.976,75.396 142.708,91.922 149.141,104.093C151.017,107.642 153.079,113.272 153.308,114.736C153.346,114.978 153.339,115.119 153.267,115.104C153.425,115.912 153.531,116.833 153.58,117.832C155.35,122.425 156.108,125.234 155.054,128.617C153.529,133.512 146.005,144.247 136.386,145.422C145.129,147.485 150.727,142.632 155.356,136.595C148.433,152.541 134.229,145.392 139.87,188.245C140.571,185.777 141.578,181.401 145.397,175.857C154.098,163.211 147.381,162.97 158.061,142.125C169.515,119.764 168.182,111.035 169.209,105.097C169.274,104.75 170.52,89.027 167.643,69.768ZM44.483,143.565C47.472,145.474 51.021,154.183 61.018,153.406C41.105,148.271 42,120.18 42,103C40.529,107.902 39.315,113.05 38.562,118.315C27.262,87.551 33.593,54.205 48.393,25.599C44.19,31.3 40.249,38.099 36.756,46.242C20.064,94.631 36.257,124.661 37.748,129.598C44.465,151.845 40.431,160.521 56.063,176.317C58.926,179.213 66.261,184.965 67.579,190.08C71.369,164.985 48.613,158.099 44.483,143.565ZM142.95,25.75C158.495,39.796 164.145,71.583 164.278,95.192C164.39,100.162 164.413,46.131 142.95,25.75ZM154.875,82.765C158.217,102.803 152.354,40.138 130.299,24.324C143.508,35.305 152.316,67.792 154.875,82.765ZM70.88,22.753C76.822,17.808 68.087,24.753 65.078,27.561C54.54,37.09 50.033,46.996 47.94,57.751C51.505,42.729 59.444,32.739 70.88,22.753ZM84.705,24.485C87.527,21.891 70.763,32.75 61.793,65.755C68.529,45.157 77.302,31.847 84.705,24.485Z" style="fill:rgb(27,20,28);fill-rule:nonzero;"/>
                            <path id="SvgjsPath3802" d="M151.671,107.902C168.861,134.718 155.118,143.257 153.532,148.876C155.307,142.587 164.622,133.223 151.671,107.902ZM163.42,128.026C163.523,127.026 166.683,118.838 163.54,103.481C161.834,95.144 158.82,87.166 156.781,78.923C160.708,97.38 165.319,109.35 163.42,128.026ZM40.778,139.904C40.803,138.443 35.289,121.18 43.227,99.887C31.997,123.286 40.828,137.053 40.778,139.904ZM47.054,108.148C46.854,107.317 46.232,106.426 45.88,105.651C32.49,76.252 41.649,53.596 53.064,25.006C37.802,57.778 30.55,77.146 47.054,108.148ZM76.707,21.78C76.743,21.742 80.574,17.817 80.624,17.83C80.529,17.805 79.863,18.542 79.788,18.611C58.372,38.149 45.057,58.889 48.989,87.389C46.38,61.056 58.712,40.895 76.707,21.78ZM99.998,17.774C96.761,25.944 73.104,61.249 57.623,79.812C83.633,50.897 99.614,20.587 99.998,17.774ZM82.755,80.445C82.521,80.584 80.559,82.008 80.454,81.951C80.499,81.975 82.006,81.009 82.125,80.946C108.935,66.834 112.091,49.428 118.739,20.963C111.34,47.604 106.258,66.473 82.755,80.445ZM155.396,106.15C151.255,96.889 126.028,41.901 125.42,25.703C125.997,52.586 154.947,105.149 155.396,106.15ZM148.657,74.301C149.018,75.888 149.506,77.483 149.778,79.086C146.358,58.971 144.421,44.388 131.809,28.451C140.228,39.304 143.225,50.447 148.657,74.301ZM136.445,21.347C136.445,21.415 136.366,21.595 136.265,21.518C152.313,33.799 160.69,80.42 161.042,81.42C159.854,78.045 161.341,52.772 141.743,27.463C140.163,25.423 138.424,22.97 136.275,21.487C136.336,21.504 136.462,21.424 136.418,21.351C136.484,21.457 136.561,21.552 136.639,21.651C136.731,21.704 136.445,21.53 136.445,21.347Z" style="fill:rgb(58,53,58);fill-rule:nonzero;"/>
                            <path id="SvgjsPath3803" d="M152.811,150.46C147.147,166.829 146.314,167.951 146.314,167.951C145.881,168.951 149.452,157.542 152.811,150.46ZM145.609,171.244C145.528,171.531 144.997,173.447 145.07,173.211C146.995,167.739 148.884,166.55 150.824,158.223C148.631,165.023 148.427,163.099 145.609,171.244ZM146.069,171.593C142.898,176.302 142.078,179.272 142.204,178.962C142.297,178.684 142.986,177.294 143.719,176.118C145.368,173.45 147.362,171.417 148.828,166.222C148.427,167.289 147.835,169.096 146.069,171.593ZM50.233,166.038C54.068,170.752 49.598,166.507 43.311,151.255C45.74,159.453 47.645,162.625 50.233,166.038ZM55.452,171.15C54.45,170.407 48.274,164.337 45.89,159.754C49.341,167.897 56.454,171.917 55.452,171.15ZM52.553,170.327C63.157,180.309 49.764,167.79 48.6,165.437C48.6,165.438 48.617,166.515 52.553,170.327Z" style="fill:rgb(42,35,43);fill-rule:nonzero;"/>
                            <path id="SvgjsPath3804" d="M167.879,61.476C155.776,3.679 115.829,-0.233 118.591,0.942C82.706,-11.776 39.498,11.482 30.849,62.735C28.422,77.133 27.392,103.657 31.001,113.796C33.024,119.48 34.275,122.485 36.779,129.076C44.696,151.042 36.035,162.423 61.098,181.705C64.209,184.109 66.264,187.281 67.668,190.985C67.679,190.964 67.874,189.8 67.878,189.775C70.912,172.557 69.83,162.916 53.322,152.173C57.904,154.837 64.107,154.086 68.029,149.845C49.859,154.999 41.073,130.581 49.994,112.135C53.304,119.877 54.609,127.172 54.409,131.395C58.076,120.164 55.772,115.612 54.149,95.165C55.531,91.97 57.233,89.381 59.379,86.645C78.19,77.239 92.336,68.512 101.962,40.788C99.643,48.548 97.978,56.143 91.379,66.315C82.728,79.674 78.802,80.131 73.419,83.015C77.872,83.015 83.92,81.693 92.305,76.646C90.93,77.816 89.704,78.945 86.979,80.855C100.672,72.035 110.95,59.432 116.358,38.217C112.775,55.085 110.939,70.302 93.459,79.705C110.95,70.843 114.24,58.13 116.686,38.635C118.445,69.232 132.829,84.83 137.77,88.395C131.491,78.09 128.769,53.771 126.546,38.121C128.959,53.106 128.011,48.452 131.789,63.075C138.69,89.431 147.367,104.288 152.374,114.797C154.436,129.24 148.24,142.596 134.989,145.235C138.124,146.484 141.214,146.644 143.718,146.035C125.21,164.543 136.518,170.079 139.918,189.665C141.209,181.642 145.731,177.804 149.168,171.436C152.624,165.002 151.374,158.09 155.178,150.136C167.924,123.713 178.348,111.793 167.879,61.476ZM136.719,145.355C146.903,143.39 155.358,129.561 153.912,118.174C157.039,125.484 157.697,130.747 153.499,137.095C149.909,143.246 143.775,147.014 136.719,145.355ZM155.356,136.595C155.348,136.587 155.347,136.585 155.329,136.585C155.316,136.585 155.341,136.58 155.356,136.595ZM168.709,105.035C166.623,134.366 153.357,143.578 151.079,159.035C148.528,176.822 142.682,173.596 139.859,187.455C136.767,170.169 128.08,161.954 144.849,145.726C152.446,143.377 159.974,134.163 157.468,122.585C153.529,104.38 137.772,94.21 126.718,37.385C126.719,37.406 126.722,37.426 126.723,37.447C126.535,36.555 126.299,35.478 126.149,34.726C126.108,34.687 124.757,26.404 126.177,35.871C126.625,51.782 130.695,75.92 135.364,85.114C121.043,66.896 117.423,46.957 116.705,38.48C116.837,37.426 116.967,36.357 117.096,35.263L117.096,35.264C117.69,30.48 118.851,22.696 116.58,36.624C109.302,57.328 100.236,68.288 97.989,70.666C90.238,78.713 78.4,82.398 75.099,82.696C94.177,74.24 100.716,51.488 103.949,31.576C103.833,32.138 102.577,38.146 102.689,37.586C96.872,53.043 89.288,71.473 59.898,85.976C81.047,59.912 92.24,39.427 97.278,25.676C87.049,50.066 57.714,85.664 54.318,93.906C53.267,60.029 65.074,36.102 76.768,25.596C64.583,35.113 49.748,62.807 52.738,98.606C53.831,105.23 56.237,122.347 54.771,128.966C55.038,124.943 54.198,119.267 53.428,116.556L53.428,116.545C50.401,105.595 42.973,97.427 41.578,85.066C40.318,73.916 40.788,62.426 45.738,52.186C42.068,59.086 40.269,66.562 39.978,74.356C39.133,96.955 45.893,99.233 49.043,110.634C39.575,126.99 47.516,155.744 66.898,150.436C55.241,159.931 45.23,142.875 43.463,139.619C40.735,132.912 40.195,125.215 39.859,118.076C39.739,169.195 73.847,145.434 67.556,189.169C66.752,185.282 57.411,176.969 56.419,175.967C41.352,160.734 44.534,151.526 39.419,133.987C37.327,124.209 34.755,120.668 33.116,115.672C26.727,95.337 30.9,64.757 37.229,46.407C49.362,18.132 68.607,-0.461 99.229,-1.463C106.453,-1.702 121.568,1.026 112.829,-0.203C117.17,0.694 119.69,1.681 123.799,3.237C174.564,22.38 169.076,103.071 168.719,105.007C168.719,105.005 168.709,105.015 168.709,105.035Z" style="fill-rule:nonzero;"/>
                        </g>
                        <g id="svga-group-glasses-single-move">
                        </g>
                    </g>
                </g>
            </g>
        </g>
    </g>
    <defs>
        <linearGradient id="_Linear1" x1="0" y1="0" x2="1" y2="0" gradientUnits="userSpaceOnUse" gradientTransform="matrix(2.13817e-15,-34.919,34.919,2.13817e-15,99.98,171.27)"><stop offset="0" style="stop-color:rgb(228,179,171);stop-opacity:0.8"/><stop offset="0.7" style="stop-color:rgb(197,121,109);stop-opacity:1"/><stop offset="1" style="stop-color:rgb(197,121,109);stop-opacity:1"/></linearGradient>
        <linearGradient id="_Linear2" x1="0" y1="0" x2="1" y2="0" gradientUnits="userSpaceOnUse" gradientTransform="matrix(2.44929e-16,-4,4,2.44929e-16,100,141)"><stop offset="0" style="stop-color:rgb(235,195,189);stop-opacity:1"/><stop offset="0.1" style="stop-color:rgb(235,195,189);stop-opacity:1"/><stop offset="1" style="stop-color:rgb(228,179,171);stop-opacity:1"/></linearGradient>
        <radialGradient id="_Radial3" cx="0" cy="0" r="1" gradientUnits="userSpaceOnUse" gradientTransform="matrix(40,0,0,40,100,113)"><stop offset="0" style="stop-color:rgb(255,244,243);stop-opacity:0.5"/><stop offset="0.9" style="stop-color:rgb(243,212,207);stop-opacity:0"/><stop offset="1" style="stop-color:rgb(243,212,207);stop-opacity:0"/></radialGradient>
        <radialGradient id="_Radial4" cx="0" cy="0" r="1" gradientUnits="userSpaceOnUse" gradientTransform="matrix(36,0,0,36,100,57)"><stop offset="0" style="stop-color:rgb(255,244,243);stop-opacity:0.5"/><stop offset="0.9" style="stop-color:rgb(243,212,207);stop-opacity:0"/><stop offset="1" style="stop-color:rgb(243,212,207);stop-opacity:0"/></radialGradient>
    </defs>
</svg>
