<?xml version="1.0" encoding="UTF-8" standalone="no"?>
<!DOCTYPE svg PUBLIC "-//W3C//DTD SVG 1.1//EN" "http://www.w3.org/Graphics/SVG/1.1/DTD/svg11.dtd">
<svg width="100%" height="100%" viewBox="0 0 3334 3334" version="1.1" xmlns="http://www.w3.org/2000/svg" xmlns:xlink="http://www.w3.org/1999/xlink" xml:space="preserve" xmlns:serif="http://www.serif.com/" style="fill-rule:evenodd;clip-rule:evenodd;">
    <g transform="matrix(5.55556,0,0,5.55556,0,0)">
        <g id="svga-group-wrapper" transform="matrix(3,0,0,3,0,0)">
            <g id="svga-group-backs-single">
                <rect id="SvgjsPath3708" x="-25" y="-25" width="250" height="250" style="fill:rgb(241,185,185);fill-rule:nonzero;"/>
            </g>
            <g id="svga-group-humanwrap-move">
                <g id="svga-group-humanwrap">
                    <g id="svga-group-hair-back-move">
                        <g id="svga-group-hair-back">
                            <path id="SvgjsPath3661" d="M41.279,215.266C41.246,215.222 41.216,215.172 41.184,215.126C45.056,213.708 149.168,222.526 156.215,221.449C156.214,221.557 156.208,221.666 156.208,221.774C156.49,221.71 156.448,221.699 156.462,221.415C156.721,221.383 157.513,221.248 156.489,220.958C159.974,157.491 200.043,167.625 177.018,109.615C171.57,96.079 171.976,83.355 170.661,67.498C168.821,69.295 169.423,78.604 167.172,95.823C184.25,149.349 169.586,147.069 155.669,172.695C151.065,181.162 147.374,189.79 146.578,199.345C123.905,160.137 130.528,161.017 139.597,137.267C138.037,139.468 131.699,144.183 125.888,145.292C140.099,134.495 148.571,134.461 148.868,68.584C135.837,62.554 123.982,51.345 116.668,38.784C107.192,58.434 90.387,66.659 68.918,69.924C63.568,72.644 57.998,74.924 52.368,77.004C51.892,104.683 59.121,123.583 73.628,143.644C68.537,139.999 63.334,133.995 59.668,128.886C64.068,137.697 70.612,144.99 68.828,160.753C66.856,178.066 50.199,189.858 50.199,212.125C33.935,186.737 28.447,197.492 32.22,169.813C26.043,159.007 23.04,151.671 20.54,143.834C19.935,143.829 18.962,143.972 18.407,144.038C11.333,170.695 21.465,190.498 41.279,215.266Z" style="fill:rgb(27,20,28);fill-rule:nonzero;"/>
                            <rect id="SvgjsPath3662" x="52.489" y="97.24" width="90" height="130.607" style="fill:rgb(12,8,12);fill-rule:nonzero;"/>
                            <path id="SvgjsPath3663" d="M156.49,220.958C159.975,157.491 200.044,167.625 177.019,109.615C172.702,98.889 172.061,88.669 171.327,77L170.686,77C171.028,88.384 171.226,98.512 174.569,108.266C195.515,169.666 156.902,157.115 156.226,220.901C151.803,220.299 45.112,213.657 41.184,215.126C27.123,194.459 16.735,174.295 18.901,151.754C18.233,151.16 17.673,150.457 17.142,149.726C12.856,173.588 22.899,192.292 41.279,215.267C41.246,215.223 41.216,215.173 41.184,215.127C45.056,213.709 149.168,222.527 156.215,221.45C156.214,221.558 156.208,221.667 156.208,221.775C156.49,221.711 156.448,221.7 156.462,221.416C156.722,221.383 157.514,221.248 156.49,220.958Z" style="fill-rule:nonzero;"/>
                        </g>
                    </g>
                    <g id="svga-group-humanbody-single">
                        <path id="SvgjsPath2780" d="M190.858,199.866C184.85,189.708 177.384,187.893 171.23,185.93C164.907,183.914 151.884,182.752 144.781,181.33C137.921,179.957 121.628,175.541 121.442,167.842C121.25,159.776 125.733,127.752 125.733,127.752L74.005,127.752C74.005,127.752 78.492,159.775 78.299,167.842C78.115,175.541 61.819,179.957 54.958,181.33C47.854,182.752 34.833,183.914 28.51,185.93C22.354,187.893 14.886,189.707 8.878,199.866C5.234,206.026 2.87,215.999 2.87,226.999L196.87,226.999C196.869,215.999 194.509,206.026 190.858,199.866Z" style="fill:rgb(243,212,207);fill-rule:nonzero;"/>
                        <path id="SvgjsPath2781" d="M121.442,167.843C123.937,178.772 139.607,181.541 147.735,183.168C169.644,187.547 181.507,188.302 190.032,202.707C192.935,207.623 195.491,218.571 195.994,226.86C197.829,227.151 196.525,209.428 190.858,199.866C181.116,183.394 161.769,184.731 144.781,181.331C137.921,179.958 121.628,175.542 121.442,167.843ZM78.558,167.843C78.372,175.542 62.079,179.958 55.219,181.331C38.231,184.731 18.884,183.394 9.142,199.866C3.475,209.429 2.171,227.151 4.006,226.86C4.509,218.571 7.065,207.623 9.968,202.707C18.492,188.302 30.356,187.547 52.265,183.168C60.393,181.541 76.063,178.771 78.558,167.843Z" style="fill:rgb(255,244,243);fill-rule:nonzero;"/>
                        <path id="SvgjsPath2782" d="M51.206,189.513C51.206,189.513 79.847,189.812 84.679,191.398C86.993,192.156 93.051,197.031 93.051,197.031C93.051,197.031 86.495,193.861 84.393,193.273C79.51,191.909 51.206,189.513 51.206,189.513ZM99.795,199.999C101.848,199.958 107.682,196.2 107.682,196.2C107.682,196.2 102.108,198.259 100.34,198.36C98.849,198.446 93.974,197.122 93.974,197.122C93.974,197.122 98.112,200.032 99.795,199.999ZM117.008,192.757C123.758,190.939 146.794,189.527 146.794,189.527C146.794,189.527 123.003,189.011 116.284,191.252C114.032,192.004 108.722,196.412 108.722,196.412C108.722,196.412 114.786,193.354 117.008,192.757Z" style="fill:rgb(228,179,171);fill-rule:nonzero;"/>
                        <path id="SvgjsPath2783" d="M190.858,199.866C181.117,183.395 161.736,184.724 144.781,181.331C137.921,179.958 121.628,175.542 121.442,167.843C121.25,159.777 125.733,127.753 125.733,127.753L74.005,127.753C74.005,127.753 78.492,159.776 78.299,167.843C78.115,175.542 61.819,179.958 54.958,181.331C47.854,182.753 34.833,183.915 28.51,185.931C22.354,187.894 14.886,189.708 8.878,199.867C5.234,206.027 2.87,216 2.87,227L196.87,227C196.869,215.999 194.509,206.026 190.858,199.866Z" style="fill:none;fill-rule:nonzero;stroke:rgb(197,121,109);stroke-width:1.5px;"/>
                    </g>
                    <g id="svga-group-chinshadow-single">
                        <path id="SvgjsPath3628" d="M100.021,171.27C105.628,171.261 113.551,167.643 120.988,162.792C121.473,155.952 122.744,145.451 123.746,137.694C109.774,135.869 89.918,135.909 76.005,137.795C77,145.497 78.254,155.86 78.744,162.672C86.278,167.593 94.344,171.279 100.021,171.27Z" style="fill:url(#_Linear1);fill-rule:nonzero;"/>
                    </g>
                    <g id="svga-group-clothes-single">
                        <path id="SvgjsPath3682" d="M103.441,229.899C85.108,229.899 66.736,229.36 48.446,228.121C33.243,227.09 18.068,225.698 2.869,224.608C2.474,225.17 2.53,223.674 2.511,223.366C2.448,222.347 2.407,221.326 2.403,220.305C2.394,218.247 2.528,216.175 2.977,214.162C3.389,212.319 4.15,210.585 4.799,208.818C4.852,208.674 3.081,207.716 2.799,207.56C3.526,206.288 4.469,205.104 5.396,203.976C3.64,202.849 1.849,201.713 0.15,200.5C2.505,197.685 5.752,195.988 8.264,193.369C7.239,192.706 6.234,192.01 5.279,191.249C5.03,191.051 4.785,190.849 4.54,190.645C4.142,190.315 4.465,190.21 4.756,189.886C5.181,189.387 5.623,188.902 6.081,188.432C7.777,186.69 9.68,185.153 11.707,183.812C16.124,180.893 21.125,178.894 26.275,177.708C27.587,177.405 28.911,177.156 30.243,176.959C30.704,176.879 31.168,176.769 31.594,176.884C32.125,177.028 32.682,177.435 33.18,177.674C35.297,178.695 37.445,179.647 39.622,180.533C44.258,182.421 49.005,184.024 53.816,185.402C74.45,191.31 96.344,192.707 117.544,189.359C128.09,187.694 138.504,184.89 148.531,181.24C151.305,180.229 154.051,179.128 156.75,177.93C157.763,177.481 158.771,177.02 159.77,176.541C160.514,176.185 160.956,176.132 161.781,176.12C163.349,176.099 164.929,176.026 166.487,176.261C168.108,176.504 169.675,177.035 171.206,177.604C177.205,179.828 182.681,182.797 187.546,186.996C187.115,187.454 186.676,187.909 186.223,188.346C188.136,189.803 189.769,191.612 191.285,193.467C192.164,194.544 192.979,195.663 193.802,196.782C194.123,197.22 193.851,198.786 193.869,199.355C193.969,202.416 194.801,205.041 195.904,207.87C196.674,209.843 197.345,211.849 197.665,213.95C198.101,216.809 197.735,219.539 197.419,222.385C197.295,223.499 197.206,224.616 197.11,225.733C197.088,225.989 197.066,226.245 197.039,226.501C196.156,226.501 195.271,226.537 194.389,226.554C189.457,226.644 184.525,226.748 179.594,226.898C166.21,227.303 152.851,228.156 139.462,228.501C132.555,228.679 125.647,228.844 118.747,229.226C113.639,229.509 108.56,229.899 103.441,229.899Z" style="fill:rgb(247,110,174);fill-rule:nonzero;"/>
                        <path id="SvgjsPath3683" d="M77.072,191.553C75.777,193.455 74.598,195.435 73.46,197.431C73.747,195.348 73.956,193.246 74.153,191.145C75.123,191.296 76.092,191.433 77.072,191.553ZM63.583,189.148C61.869,192.848 60.029,196.507 58.584,200.293C60.613,196.746 62.69,193.105 64.344,189.32C67.293,189.974 70.292,190.546 73.32,191.02C73.033,193.597 72.856,196.194 72.707,198.781C71.757,200.464 70.827,202.155 69.867,203.822C66.244,210.088 65.056,214.984 64.205,218.596C62.58,218.445 61.236,218.273 60.505,218.16C55.952,217.456 54.031,216.667 52.754,215.991C53.911,211.731 54.981,207.444 55.743,203.095C56.634,198.028 57.059,192.847 58.127,187.815C59.92,188.301 61.742,188.749 63.583,189.148ZM43.154,182.938C40.432,185.459 38.64,187.646 34.107,193.179C35.532,189.862 37.423,185.735 39.897,181.608C40.966,182.064 42.045,182.513 43.154,182.938ZM187.52,189.909C187.532,189.919 187.548,189.936 187.569,189.958C189.638,191.934 191.826,194.589 193.588,196.889L193.588,196.909C191.953,198.364 190.649,199.732 189.49,200.351C188.816,199.553 188.124,198.763 187.431,197.953C185.987,196.271 184.778,194.371 183.284,192.735C183.205,192.648 183.124,192.552 183.046,192.467C182.907,192.325 182.771,192.182 182.629,192.049C183.354,191.365 184.056,190.67 184.76,189.975C184.876,189.863 184.985,189.748 185.094,189.635C185.432,189.31 185.758,188.977 186.085,188.645C186.55,189.016 187.024,189.443 187.52,189.909ZM173.05,206.446C174.319,208.27 176.307,210.6 178.197,212.731C176.027,213.909 174.564,214.907 173.563,215.584C172.089,213.757 170.307,211.752 167.466,208.328C167.615,208.252 167.764,208.177 167.911,208.099C169.593,207.198 170.751,206.237 172.267,205.247C172.473,205.6 172.719,205.988 173.019,206.398C173.021,206.407 173.029,206.426 173.05,206.446ZM163.229,180.506C168.12,185.307 172.355,190.168 177.185,197.477C178.384,196.338 179.623,195.234 180.898,194.162C181.486,193.671 182.09,193.189 182.712,192.725C176.162,186.246 169.389,180.17 160.488,177.921C161.277,178.646 162.18,179.49 163.229,180.506ZM148.026,182.634C154.165,190.031 163.418,197.867 166.911,201.748C162.872,196.127 154.568,188.626 148.699,182.378C151.017,181.493 153.284,180.542 155.522,179.518C161.606,187.218 169.696,198.611 173.513,204.069C173.02,204.315 172.573,204.555 172.146,204.8C172.116,204.821 172.089,204.837 172.06,204.858C170.653,205.706 169.466,206.645 167.358,207.815C167.287,207.852 167.21,207.891 167.14,207.93C167.07,207.968 167.011,207.995 166.952,208.026C165.471,208.794 163.973,209.269 162.299,209.63C161.508,209.791 160.707,209.964 159.914,210.183C156.52,205.695 153.857,200.656 150.701,196.014C148.682,193.036 146.327,190.232 144.444,187.18C143.909,186.305 143.386,185.383 142.811,184.491C144.574,183.909 146.317,183.29 148.026,182.634ZM118.851,190.394C120.74,194.749 121.512,196.29 124.533,206.322C124.038,203.84 123.602,201.358 122.84,198.943C121.918,196.044 121.058,193.665 119.516,190.281C122.285,189.775 125.008,189.235 127.669,188.637C130.076,191.327 131.952,194.72 137.31,201.795C140.031,205.344 142.744,208.909 145.049,212.702C143.883,213.319 142.665,213.843 141.395,214.156C122.772,219.642 129.828,217.636 121.385,219.197C121.237,219.223 121.038,219.254 120.82,219.282C120.237,216.391 119.307,212.731 117.388,206.53C115.081,199.103 113.22,194.693 111.737,191.544C114.148,191.192 116.515,190.812 118.851,190.394ZM106.074,192.247C107.793,197.031 109.12,201.946 110.109,206.939C110.745,210.21 111.29,213.491 111.862,216.761C112.109,218.178 112.339,219.615 112.654,221.032C107.724,221.85 102.43,221.109 99.123,221.062C99.193,218.779 99.174,218.255 99.312,216.914C99.618,213.872 99.796,210.801 100.114,207.748C100.431,204.57 100.828,201.397 100.785,198.201C100.756,196.328 100.698,194.453 100.924,192.62C102.649,192.535 104.372,192.409 106.074,192.247ZM96.463,192.752C95.145,197.013 93.73,201.254 92.492,205.542C92.472,201.263 92.345,196.993 92.106,192.723C93.562,192.761 95.017,192.771 96.463,192.752ZM88.019,192.571C87.623,197.783 87.03,202.965 86.694,208.185C87.891,201.329 88.287,197.211 88.266,192.592C89.436,192.647 90.602,192.696 91.771,192.712C91.641,197.753 91.671,202.802 91.85,207.841L91.85,207.851C90.385,213.29 90.078,217.066 90.009,220.347C87.208,220.851 84.346,221.088 81.497,221.25C75.627,221.583 73.509,221.078 71.273,220.897C71.42,220.393 71.589,219.891 71.757,219.384C71.798,219.262 71.847,219.128 71.886,219.005C73.677,213.718 76.033,208.362 77.457,205.53C81.082,198.361 82.773,194.691 84.099,192.302C85.406,192.421 86.713,192.504 88.019,192.571ZM52.101,186.085C51.26,189.08 50.33,193.446 47.687,201.453C46.549,204.885 45.47,208.3 44.55,211.799C44.332,212.635 44.223,213.501 44.174,214.376C42.185,213.596 40.235,212.75 38.285,211.876C37.067,211.295 36.048,210.789 35.197,210.354C35.147,210.326 35.088,210.296 35.038,210.267C34.078,209.775 33.327,209.356 32.712,209.033C34.909,205.893 37.364,202.357 39.482,199.258C42.699,194.57 45.47,189.578 48.915,185.052C49.963,185.4 51.022,185.754 52.101,186.085ZM33.762,211.515C31.901,213.672 30.505,216.83 28.991,219.929C26.545,219.14 24.08,218.398 21.646,217.572C21.813,217.275 21.981,216.992 22.151,216.695C22.349,216.355 22.547,216.003 22.744,215.64C22.754,215.613 22.764,215.584 22.785,215.556C23.981,213.368 25.19,210.963 26.448,209.212C27.744,209.839 29.168,210.383 30.605,210.811C30.842,210.877 31.089,210.943 31.328,211.01C31.396,210.906 31.476,210.801 31.546,210.697C31.872,210.24 32.198,209.764 32.536,209.28C32.991,209.565 33.475,209.87 33.98,210.183C34.179,210.307 34.396,210.45 34.653,210.591C34.415,210.82 34.178,211.056 33.962,211.305C33.889,211.37 33.83,211.447 33.762,211.515ZM35.532,179.629C33.049,183.187 30.792,186.953 29.397,190.946C31.495,187.179 33.86,183.576 36.019,179.857C37.127,180.39 38.266,180.903 39.425,181.399C37.384,184.375 35.237,188.388 32.565,195.082C29.921,198.401 27.428,201.862 25.27,205.506C21.687,204.297 16.481,202.461 15.789,202.203C14.214,201.69 12.076,200.673 10.197,199.675C10.107,199.627 10.029,199.579 9.938,199.542C8.979,199.02 8.108,198.516 7.436,198.088C8.535,197.023 9.643,195.975 10.772,194.959C10.94,194.798 11.117,194.637 11.295,194.484C17.918,188.493 24.994,183.233 33.456,178.592C34.126,178.944 34.82,179.288 35.532,179.629ZM3.257,202.271C3.137,202.195 3.009,202.109 2.89,202.034C2.068,201.504 1.247,200.988 0.455,200.521C1.821,199.02 3.435,197.774 4.949,196.603C4.979,196.577 5.019,196.556 5.049,196.518C6.336,195.539 7.552,194.598 8.453,193.608C8.919,193.895 9.393,194.178 9.859,194.454C8.82,195.473 7.78,196.539 6.761,197.641C6.672,197.727 6.592,197.814 6.513,197.908C6.711,198.079 6.919,198.24 7.127,198.393C7.434,198.63 7.761,198.84 8.087,199.021C8.571,199.278 9.047,199.554 9.513,199.838C8.008,200.941 6.603,202.385 5.444,203.767C4.732,203.27 3.998,202.768 3.257,202.271ZM3.108,207.55C3.811,206.54 4.663,205.38 5.602,204.23C5.672,204.153 5.731,204.08 5.79,204.001C7.007,202.547 8.373,201.11 9.79,199.998C10.799,200.598 11.809,201.204 12.906,201.699C14.65,202.47 16.421,203.154 18.232,203.781C20.429,204.544 22.725,205.312 25.05,205.865C24.715,206.446 24.389,207.025 24.071,207.615C24.033,207.673 24.003,207.728 23.972,207.785C24.09,207.862 24.209,207.947 24.329,208.025C24.892,208.395 25.516,208.746 26.179,209.079C24.883,210.725 23.635,213.045 22.428,215.44C18.776,214.27 15.124,213.072 11.601,211.599C9.719,210.771 7.84,209.983 6.018,209.032C5.92,208.985 5.573,208.803 5.088,208.555C5.326,207.615 5.503,206.664 5.602,205.694C5.414,206.625 5.137,207.528 4.831,208.423C4.336,208.156 3.722,207.852 3.108,207.55Z" style="fill:rgb(232,80,151);fill-rule:nonzero;"/>
                        <path id="SvgjsPath3684" d="M194.201,202.214C193.972,200.617 193.934,198.99 193.944,197.364L193.944,196.832C193.944,196.822 193.954,196.822 193.954,196.822C193.944,196.746 193.944,196.67 193.954,196.594C193.913,196.622 193.874,196.651 193.845,196.679C193.775,196.584 193.704,196.489 193.636,196.385C191.993,194.093 189.974,191.601 188.015,189.747C188.044,189.727 188.074,189.708 188.105,189.699C188.074,189.708 188.034,189.718 188.004,189.738C187.449,189.216 186.904,188.748 186.373,188.339C186.658,188.064 186.936,187.778 187.192,187.493C187.37,187.322 187.531,187.162 187.687,186.989C187.568,186.884 187.449,186.791 187.332,186.686C183.807,183.785 180.025,181.169 175.791,179.332C167.765,175.978 166.575,175.938 162.559,176.014C161.973,176.014 161.33,176.035 160.598,176.035C160.301,176.177 159.994,176.328 159.688,176.471C159.519,176.548 159.352,176.632 159.183,176.719C159.024,176.785 158.866,176.862 158.698,176.937C157.719,177.394 156.719,177.84 155.69,178.289C155.402,178.403 155.124,178.525 154.836,178.648C152.611,179.589 150.275,180.514 147.801,181.398C147.601,181.472 147.405,181.548 147.197,181.617C145.545,182.207 143.833,182.786 142.06,183.347C141.904,183.404 141.745,183.451 141.586,183.498C140.693,183.784 139.775,184.06 138.843,184.335C138.711,184.373 138.588,184.411 138.457,184.45C137.637,184.697 136.792,184.934 135.943,185.173C135.625,185.267 135.299,185.352 134.972,185.439C133.379,185.876 131.733,186.303 130.055,186.722C129.014,186.977 127.967,187.227 126.913,187.464C126.818,187.483 126.718,187.511 126.61,187.531C124.064,188.09 121.501,188.594 118.93,189.031C118.72,189.07 118.509,189.098 118.303,189.136C115.899,189.528 113.473,189.867 111.047,190.143C110.931,190.156 110.813,190.173 110.692,190.181C109.06,190.365 107.42,190.514 105.773,190.649C105.676,190.657 105.585,190.668 105.488,190.668C104.071,190.772 102.656,190.858 101.231,190.924C101.161,190.924 101.103,190.933 101.035,190.933C99.738,190.993 98.45,191.029 97.154,191.037C97.093,191.049 97.036,191.049 96.975,191.037C96.598,191.049 96.222,191.058 95.846,191.058C94.55,191.067 93.274,191.058 91.997,191.028L91.818,191.028C90.611,191.002 89.422,190.963 88.245,190.906C88.205,190.906 88.166,190.906 88.126,190.897C87.097,190.858 86.077,190.793 85.059,190.723C84.95,190.723 84.84,190.714 84.731,190.704L84.722,190.704C82.593,190.56 80.506,190.374 78.458,190.134C78.337,190.125 78.21,190.116 78.091,190.097C76.816,189.955 75.548,189.793 74.3,189.621C74.032,189.584 73.766,189.545 73.498,189.505C70.53,189.069 67.649,188.565 64.887,188.005C64.651,187.957 64.402,187.901 64.166,187.852C62.186,187.444 60.275,186.998 58.414,186.531C58.277,186.493 58.137,186.465 57.999,186.427C56.237,185.979 54.525,185.514 52.882,185.029C52.732,184.992 52.594,184.945 52.446,184.906C51.506,184.631 50.586,184.345 49.684,184.06C49.537,184.013 49.388,183.964 49.249,183.915C47.617,183.393 46.042,182.859 44.548,182.318C44.38,182.253 44.212,182.196 44.043,182.128C42.787,181.673 41.568,181.206 40.411,180.749C40.273,180.692 40.134,180.635 39.995,180.578C38.748,180.075 37.57,179.571 36.451,179.087C36.313,179.021 36.175,178.961 36.046,178.903C35.452,178.638 34.887,178.372 34.334,178.114C34.165,178.041 33.996,177.964 33.839,177.88C33.107,177.534 32.413,177.194 31.76,176.861C31.651,176.803 31.543,176.744 31.435,176.688C31.028,176.737 30.622,176.792 30.227,176.861C19.042,178.516 10.036,183.526 4.68,189.82C4.492,190.029 4.315,190.239 4.157,190.448C4.335,190.61 4.532,190.771 4.731,190.932C5.72,191.76 6.889,192.597 8.106,193.386C7.194,194.321 5.948,195.24 4.622,196.259C4.533,196.21 4.464,196.182 4.444,196.182C4.404,196.182 4.454,196.259 4.523,196.335C3.019,197.485 1.425,198.77 0.148,200.348C0.099,200.404 0.049,200.461 -0,200.518C0.089,200.576 0.177,200.641 0.277,200.71C0.98,201.164 1.802,201.717 2.673,202.297C2.782,202.372 2.89,202.45 3.009,202.515C3.731,203.01 4.492,203.513 5.246,203.998C4.345,205.092 3.602,206.13 3.098,206.909C2.988,207.071 2.89,207.232 2.791,207.384C2.74,207.451 2.702,207.526 2.662,207.594C2.761,207.652 2.859,207.718 2.959,207.765C3.573,208.135 4.176,208.507 4.69,208.821C4.315,209.837 3.908,210.844 3.542,211.884C2.078,215.791 2.176,220.43 2.502,224.682C2.502,224.74 2.513,224.787 2.523,224.844L2.978,224.844C2.969,224.801 2.969,224.757 2.969,224.714C20.776,225.964 51.184,228.91 72.38,229.428C124.806,230.693 98.807,229.589 137.515,228.649C171.446,227.81 161.242,227.229 196.722,226.612C196.852,226.601 196.991,226.601 197.129,226.601C197.129,226.538 197.138,226.47 197.148,226.402C197.316,224.558 197.435,222.703 197.712,220.859C199.12,211.467 194.934,207.283 194.201,202.214ZM187.52,189.909C187.532,189.919 187.548,189.936 187.569,189.958C189.638,191.934 191.826,194.589 193.588,196.889L193.588,196.909C191.953,198.364 190.649,199.732 189.49,200.351C188.816,199.553 188.124,198.763 187.431,197.953C185.987,196.271 184.778,194.371 183.284,192.735C183.205,192.648 183.124,192.552 183.046,192.467C182.907,192.325 182.771,192.182 182.629,192.049C183.354,191.365 184.056,190.67 184.76,189.975C184.876,189.863 184.985,189.748 185.094,189.635C185.432,189.31 185.758,188.977 186.085,188.645C186.55,189.016 187.024,189.443 187.52,189.909ZM182.253,206.986C183.474,208.098 185.065,209.698 186.332,211.238C184.471,212.837 182.769,214.489 180.61,214.994C180.007,214.252 179.374,213.501 178.741,212.759C178.67,212.683 178.613,212.616 178.551,212.541C176.591,210.267 174.632,208.099 173.317,206.426C173.306,206.416 173.296,206.407 173.296,206.399C172.94,205.951 172.635,205.533 172.389,205.171C172.793,204.904 173.229,204.628 173.712,204.353C174.158,204.991 174.545,205.542 174.852,205.981C174.88,206.038 174.921,206.093 174.961,206.142C175.149,206.065 175.337,205.997 175.517,205.941C175.536,205.933 175.566,205.933 175.583,205.924C177.88,205.199 179.386,204.429 180.722,203.557C180.789,203.516 180.86,203.469 180.92,203.42C180.878,203.356 180.847,203.298 180.809,203.243C179.604,201.235 178.454,199.399 177.335,197.697C178.614,196.623 179.89,195.539 181.167,194.453C181.779,193.951 182.403,193.437 183.035,192.932C184.514,194.74 185.728,196.813 187.254,198.562C187.848,199.237 188.441,199.902 189.024,200.568C189.045,200.588 189.054,200.607 189.074,200.617C189.589,201.204 190.095,201.785 190.578,202.384C187.907,204.039 185.011,205.276 182.264,206.844C182.238,206.874 182.196,206.891 182.157,206.912C182.184,206.939 182.215,206.97 182.253,206.986ZM173.05,206.446C174.319,208.27 176.307,210.6 178.197,212.731C176.027,213.909 174.564,214.907 173.563,215.584C172.089,213.757 170.307,211.752 167.466,208.328C167.615,208.252 167.764,208.177 167.911,208.099C169.593,207.198 170.751,206.237 172.267,205.247C172.473,205.6 172.719,205.988 173.019,206.398C173.021,206.407 173.029,206.426 173.05,206.446ZM161.537,176.569C166.458,176.787 172.781,177.48 186.759,187.188C186.459,187.437 186.164,187.704 185.877,187.988C185.78,188.064 185.678,188.161 185.589,188.265C185.233,188.596 184.887,188.95 184.562,189.309C184.453,189.414 184.352,189.53 184.265,189.634C183.618,190.344 183.017,191.098 182.461,191.897C182.402,191.971 182.351,192.038 182.315,192.117C182.351,192.154 182.392,192.2 182.431,192.238C182.561,192.383 182.68,192.513 182.797,192.657C182.144,193.141 181.513,193.647 180.898,194.161C179.623,195.233 178.384,196.338 177.185,197.476C172.355,190.167 168.12,185.306 163.229,180.505C161.923,179.24 160.836,178.232 159.925,177.405C160.47,177.13 161.003,176.852 161.537,176.569ZM159.38,177.681C162.132,180.628 166.101,184.528 170.179,189.556C172.406,192.305 174.555,195.129 176.664,197.983C176.7,198.041 176.739,198.097 176.778,198.154C178.056,199.884 179.323,201.624 180.582,203.364C178.572,204.451 176.759,205.257 175.412,205.761C175.356,205.647 175.297,205.522 175.224,205.408C174.997,204.999 174.721,204.523 174.394,203.991C174.358,203.917 174.306,203.83 174.247,203.745C170.873,198.201 162.974,186.753 156.4,179.115C157.401,178.649 158.391,178.174 159.38,177.681ZM148.026,182.634C154.165,190.031 163.418,197.867 166.911,201.748C162.872,196.127 154.568,188.626 148.699,182.378C151.017,181.493 153.284,180.542 155.522,179.518C161.606,187.218 169.696,198.611 173.513,204.069C173.02,204.315 172.573,204.555 172.146,204.8C172.116,204.821 172.089,204.837 172.06,204.858C170.653,205.706 169.466,206.645 167.358,207.815C167.287,207.852 167.21,207.891 167.14,207.93C167.07,207.968 167.011,207.995 166.952,208.026C165.471,208.794 163.973,209.269 162.299,209.63C161.508,209.791 160.707,209.964 159.914,210.183C156.52,205.695 153.857,200.656 150.701,196.014C148.682,193.036 146.327,190.232 144.444,187.18C143.909,186.305 143.386,185.383 142.811,184.491C144.574,183.909 146.317,183.29 148.026,182.634ZM142.24,184.67C142.862,185.858 143.427,187.075 144.051,188.188C145.723,191.213 148.079,194.009 150.029,196.879C153.086,201.405 155.868,206.18 159.519,210.296C159.55,210.344 159.588,210.383 159.628,210.42C159.757,210.392 159.895,210.363 160.033,210.344C161.825,210.031 163.718,210.154 167.259,208.434C168.882,210.612 170.988,213.36 173.069,215.916C173.099,215.963 173.136,216.01 173.177,216.059C173.536,216.506 173.888,216.945 174.237,217.373C172.198,218.226 169.486,218.94 165.181,219.426C164.17,218.121 163.043,216.924 161.933,215.717C160.557,214.233 159.132,212.75 157.886,211.152C157.531,210.678 157.183,210.203 156.847,209.709C156.828,209.679 156.808,209.652 156.788,209.612C156.707,209.631 156.63,209.661 156.55,209.688C155.967,209.879 155.391,210.098 154.828,210.326C150.641,203.317 142.156,189.509 141.714,188.75C141.051,187.639 140.397,186.525 139.674,185.479C140.537,185.222 141.385,184.955 142.24,184.67ZM135.783,186.618C139.247,191.668 142.374,196.926 145.503,202.166C141.714,194.187 139.19,190.031 136.733,186.343C137.552,186.115 138.369,185.877 139.181,185.63C139.842,186.743 140.414,187.913 141.007,189.072C141.997,191.02 149.76,203.848 151.115,205.865C152.203,207.424 153.343,208.945 154.46,210.475C151.749,211.599 149.176,213.015 146.453,214.138C146.234,213.633 146.007,213.15 145.761,212.674C145.722,212.576 145.67,212.483 145.612,212.388C143.079,207.375 140.011,203.648 138.138,201.203C133.122,194.597 130.805,191.098 128.11,188.531C130.717,187.952 133.268,187.313 135.783,186.618ZM118.851,190.394C120.74,194.749 121.512,196.29 124.533,206.322C124.038,203.84 123.602,201.358 122.84,198.943C121.918,196.044 121.058,193.665 119.516,190.281C122.285,189.775 125.008,189.235 127.669,188.637C130.076,191.327 131.952,194.72 137.31,201.795C140.031,205.344 142.744,208.909 145.049,212.702C143.883,213.319 142.665,213.843 141.395,214.156C122.772,219.642 129.828,217.636 121.385,219.197C121.237,219.223 121.038,219.254 120.82,219.282C120.237,216.391 119.307,212.731 117.388,206.53C115.081,199.103 113.22,194.693 111.737,191.544C114.148,191.192 116.515,190.812 118.851,190.394ZM111.06,191.648C111.11,191.641 111.168,191.631 111.219,191.621C114.495,200.797 117.463,210.049 120.037,219.417C120.067,219.463 120.077,219.522 120.089,219.578C120.344,220.481 120.592,221.392 120.84,222.307C118.572,222.81 116.306,223.038 113.891,222.944C113.842,222.944 113.682,222.935 113.455,222.935C113.347,222.334 113.248,221.728 113.169,221.118C113.159,221.063 113.159,221.005 113.148,220.948C112.952,219.378 112.822,217.799 112.643,216.25C112.289,212.95 111.712,209.661 111.032,206.408C109.824,200.579 108.554,196.556 106.527,192.201C108.052,192.049 109.565,191.868 111.06,191.648ZM106.074,192.247C107.793,197.031 109.12,201.946 110.109,206.939C110.745,210.21 111.29,213.491 111.862,216.761C112.109,218.178 112.339,219.615 112.654,221.032C107.724,221.85 102.43,221.109 99.123,221.062C99.193,218.779 99.174,218.255 99.312,216.914C99.618,213.872 99.796,210.801 100.114,207.748C100.431,204.57 100.828,201.397 100.785,198.201C100.756,196.328 100.698,194.453 100.924,192.62C102.649,192.535 104.372,192.409 106.074,192.247ZM100.567,192.63C100.102,194.786 100.066,197.031 99.946,199.248C99.748,202.679 99.203,206.102 98.916,209.524C98.638,212.93 98.312,216.318 98.411,219.738C98.411,219.804 98.431,220.319 98.45,221.051L98.45,221.125C98.471,221.601 98.492,222.153 98.511,222.743C95.847,222.952 93.168,222.801 90.493,222.751C90.563,222.011 90.631,221.25 90.711,220.46C90.721,220.376 90.721,220.299 90.73,220.213C90.988,217.686 91.304,214.869 92.008,211.56C92.146,210.876 92.315,210.173 92.492,209.441L92.492,209.42C92.621,208.927 92.75,208.422 92.888,207.899C94.254,202.85 95.68,197.839 96.787,192.744C98.055,192.734 99.313,192.697 100.567,192.63ZM96.463,192.752C95.145,197.013 93.73,201.254 92.492,205.542C92.472,201.263 92.345,196.993 92.106,192.723C93.562,192.761 95.017,192.771 96.463,192.752ZM88.019,192.571C87.623,197.783 87.03,202.965 86.694,208.185C87.891,201.329 88.287,197.211 88.266,192.592C89.436,192.647 90.602,192.696 91.771,192.712C91.641,197.753 91.671,202.802 91.85,207.841L91.85,207.851C90.385,213.29 90.078,217.066 90.009,220.347C87.208,220.851 84.346,221.088 81.497,221.25C75.627,221.583 73.509,221.078 71.273,220.897C71.42,220.393 71.589,219.891 71.757,219.384C71.798,219.262 71.847,219.128 71.886,219.005C73.677,213.718 76.033,208.362 77.457,205.53C81.082,198.361 82.773,194.691 84.099,192.302C85.406,192.421 86.713,192.504 88.019,192.571ZM83.596,192.269C81.902,194.768 79.727,198.715 76.173,205.723C73.994,210.022 72.214,214.424 71.046,218.998C68.918,218.977 66.641,218.826 64.7,218.644C66.343,213.377 68.363,208.451 70.947,203.962C71.54,202.935 72.074,201.985 72.559,201.109L73.043,200.245C75.241,196.231 76.399,193.798 77.597,191.631C79.587,191.877 81.587,192.097 83.596,192.269ZM77.072,191.553C75.777,193.455 74.598,195.435 73.46,197.431C73.747,195.348 73.956,193.246 74.153,191.145C75.123,191.296 76.092,191.433 77.072,191.553ZM63.583,189.148C61.869,192.848 60.029,196.507 58.584,200.293C60.613,196.746 62.69,193.105 64.344,189.32C67.293,189.974 70.292,190.546 73.32,191.02C73.033,193.597 72.856,196.194 72.707,198.781C71.757,200.464 70.827,202.155 69.867,203.822C66.244,210.088 65.056,214.984 64.205,218.596C62.58,218.445 61.236,218.273 60.505,218.16C55.952,217.456 54.031,216.667 52.754,215.991C53.911,211.731 54.981,207.444 55.743,203.095C56.634,198.028 57.059,192.847 58.127,187.815C59.92,188.301 61.742,188.749 63.583,189.148ZM57.624,187.686C56.209,192.648 55.614,197.803 54.695,202.919C53.932,207.179 53.032,211.428 52.171,215.669C52.151,215.737 52.141,215.802 52.131,215.869C51.972,216.639 51.814,217.409 51.666,218.179C50.676,217.875 49.676,217.583 48.676,217.285C48.616,217.267 46.628,216.715 44.697,216.181C44.766,215.668 44.825,215.241 44.875,214.85C44.885,214.785 44.895,214.717 44.904,214.651C45.222,212.445 45.637,211.161 48.716,201.768C49.904,198.153 51.17,194.5 51.803,190.754C52.06,189.252 52.279,187.731 52.594,186.237C54.239,186.743 55.921,187.229 57.624,187.686ZM52.101,186.085C51.26,189.08 50.33,193.446 47.687,201.453C46.549,204.885 45.47,208.3 44.55,211.799C44.332,212.635 44.223,213.501 44.174,214.376C42.185,213.596 40.235,212.75 38.285,211.876C37.067,211.295 36.048,210.789 35.197,210.354C35.147,210.326 35.088,210.296 35.038,210.267C34.078,209.775 33.327,209.356 32.712,209.033C34.909,205.893 37.364,202.357 39.482,199.258C42.699,194.57 45.47,189.578 48.915,185.052C49.963,185.4 51.022,185.754 52.101,186.085ZM33.762,211.515C31.901,213.672 30.505,216.83 28.991,219.929C26.545,219.14 24.08,218.398 21.646,217.572C21.813,217.275 21.981,216.992 22.151,216.695C22.349,216.355 22.547,216.003 22.744,215.64C22.754,215.613 22.764,215.584 22.785,215.556C23.981,213.368 25.19,210.963 26.448,209.212C27.744,209.839 29.168,210.383 30.605,210.811C30.842,210.877 31.089,210.943 31.328,211.01C31.396,210.906 31.476,210.801 31.546,210.697C31.872,210.24 32.198,209.764 32.536,209.28C32.991,209.565 33.475,209.87 33.98,210.183C34.179,210.307 34.396,210.45 34.653,210.591C34.415,210.82 34.178,211.056 33.962,211.305C33.889,211.37 33.83,211.447 33.762,211.515ZM48.399,184.868C44.677,189.139 41.768,193.969 38.542,198.667C37.058,200.826 34.434,204.764 31.97,208.632C31.932,208.71 31.881,208.784 31.832,208.85C31.485,209.404 31.149,209.945 30.812,210.476C29.397,210.04 27.971,209.518 26.654,208.928C26.566,208.889 26.486,208.85 26.397,208.814C25.706,208.501 25.061,208.177 24.457,207.834C24.842,207.226 25.249,206.618 25.654,206.009C25.724,205.915 25.793,205.811 25.872,205.706C27.584,203.185 29.426,200.722 31.315,198.307C31.751,197.744 32.196,197.184 32.643,196.624C33.375,195.691 34.126,194.769 34.878,193.849C40.383,187.106 41.58,185.451 43.737,183.168C45.252,183.757 46.806,184.327 48.399,184.868ZM43.154,182.938C40.432,185.459 38.64,187.646 34.107,193.179C35.532,189.862 37.423,185.735 39.897,181.608C40.966,182.064 42.045,182.513 43.154,182.938ZM35.532,179.629C33.049,183.187 30.792,186.953 29.397,190.946C31.495,187.179 33.86,183.576 36.019,179.857C37.127,180.39 38.266,180.903 39.425,181.399C37.384,184.375 35.237,188.388 32.565,195.082C29.921,198.401 27.428,201.862 25.27,205.506C21.687,204.297 16.481,202.461 15.789,202.203C14.214,201.69 12.076,200.673 10.197,199.675C10.107,199.627 10.029,199.579 9.938,199.542C8.979,199.02 8.108,198.516 7.436,198.088C8.535,197.023 9.643,195.975 10.772,194.959C10.94,194.798 11.117,194.637 11.295,194.484C17.918,188.493 24.994,183.233 33.456,178.592C34.126,178.944 34.82,179.288 35.532,179.629ZM5.326,190.289C10.591,184.689 19.034,179.573 30.633,177.093C31.376,177.511 32.137,177.919 32.92,178.318C25.022,182.054 17.548,187.047 10.432,193.895C9.997,193.582 9.532,193.256 9.066,192.923C8.968,192.858 8.859,192.78 8.759,192.713C7.552,191.858 6.335,191.004 5.326,190.289ZM4.475,196.232C4.504,196.251 4.534,196.281 4.564,196.299C4.564,196.299 4.554,196.309 4.543,196.318C4.523,196.281 4.503,196.251 4.475,196.232ZM3.257,202.271C3.137,202.195 3.009,202.109 2.89,202.034C2.068,201.504 1.247,200.988 0.455,200.521C1.821,199.02 3.435,197.774 4.949,196.603C4.979,196.577 5.019,196.556 5.049,196.518C6.336,195.539 7.552,194.598 8.453,193.608C8.919,193.895 9.393,194.178 9.859,194.454C8.82,195.473 7.78,196.539 6.761,197.641C6.672,197.727 6.592,197.814 6.513,197.908C6.711,198.079 6.919,198.24 7.127,198.393C7.434,198.63 7.761,198.84 8.087,199.021C8.571,199.278 9.047,199.554 9.513,199.838C8.008,200.941 6.603,202.385 5.444,203.767C4.732,203.27 3.998,202.768 3.257,202.271ZM3.108,207.55C3.811,206.54 4.663,205.38 5.602,204.23C5.672,204.153 5.731,204.08 5.79,204.001C7.007,202.547 8.373,201.11 9.79,199.998C10.799,200.598 11.809,201.204 12.906,201.699C14.65,202.47 16.421,203.154 18.232,203.781C20.429,204.544 22.725,205.312 25.05,205.865C24.715,206.446 24.389,207.025 24.071,207.615C24.033,207.673 24.003,207.728 23.972,207.785C24.09,207.862 24.209,207.947 24.329,208.025C24.892,208.395 25.516,208.746 26.179,209.079C24.883,210.725 23.635,213.045 22.428,215.44C18.776,214.27 15.124,213.072 11.601,211.599C9.719,210.771 7.84,209.983 6.018,209.032C5.92,208.985 5.573,208.803 5.088,208.555C5.326,207.615 5.503,206.664 5.602,205.694C5.414,206.625 5.137,207.528 4.831,208.423C4.336,208.156 3.722,207.852 3.108,207.55ZM180.986,226.366C177.383,226.403 172.898,226.586 167.565,226.785C160.697,227.052 152.403,227.354 142.751,227.49C136.668,227.574 129.826,227.878 122.057,228.181C112.743,228.535 102.075,228.885 89.723,228.828C83.518,228.81 76.885,228.677 69.789,228.4C61.465,228.068 52.497,227.536 42.828,226.707C35.88,226.119 30.941,225.749 27.259,225.519C17.944,224.945 9.058,225.094 2.971,224.71L2.971,224.699C2.903,222.428 2.852,220.156 3.03,217.9C3.129,214.811 4.238,211.939 4.98,208.991C5.574,209.353 5.98,209.609 6.019,209.628C7.801,210.684 9.741,211.521 11.661,212.291C15.154,213.689 18.708,214.696 22.369,215.554C22.201,215.896 22.033,216.238 21.866,216.581C21.837,216.637 21.648,217.006 21.421,217.492C21.391,217.54 21.361,217.596 21.331,217.654C21.401,217.691 21.47,217.72 21.539,217.748C22.787,218.281 24.054,218.746 25.37,219.166C26.548,219.488 27.725,219.812 28.903,220.116C28.993,220.147 29.081,220.164 29.17,220.182C29.211,220.125 29.241,220.078 29.271,220.021C30.974,216.989 32.329,213.812 34.091,211.569C34.139,211.502 34.189,211.425 34.259,211.36C34.436,211.123 34.634,210.903 34.843,210.694C35.395,211.007 36.059,211.35 36.811,211.712C36.821,211.712 36.832,211.722 36.85,211.722C38.85,212.691 41.453,213.755 44.165,214.622C44.135,215.088 44.125,215.554 44.105,216.018C44.105,216.123 44.095,216.238 44.095,216.353C44.274,216.42 44.462,216.484 44.65,216.542C46.926,217.283 49.261,217.91 51.597,218.51C51.745,218.548 51.884,218.586 52.033,218.626C52.062,218.53 52.092,218.425 52.122,218.319C52.31,217.634 52.498,216.942 52.685,216.247C53.972,217.121 55.595,218.045 60.397,218.777C61.593,218.956 62.822,219.128 64.058,219.252C64.206,219.271 64.354,219.28 64.493,219.3C66.631,219.499 68.799,219.585 70.927,219.451C70.808,219.917 70.709,220.383 70.599,220.849C70.59,220.896 70.58,220.945 70.57,221.001C70.778,221.02 70.995,221.06 71.214,221.086C72.519,221.296 73.827,221.599 75.143,221.781C77.855,222.188 84.447,221.97 89.999,220.631C89.98,221.353 89.98,222.057 89.97,222.741L89.97,222.836C90.137,222.855 90.316,222.863 90.484,222.873C93.168,223.102 95.869,223.302 98.521,222.978C98.699,222.959 98.877,222.931 99.066,222.903L99.066,222.694C99.095,222.121 99.114,221.62 99.114,221.19C99.895,221.275 100.687,221.436 101.451,221.551C103.083,221.818 108.307,222.208 112.69,221.218C112.811,221.79 112.952,222.36 113.11,222.92C113.138,223.015 113.159,223.102 113.184,223.186L113.505,223.207C113.871,223.234 114.137,223.254 114.208,223.264C116.443,223.463 118.71,223.197 120.917,222.635L121.374,222.513C121.363,222.409 121.345,222.303 121.323,222.199C121.194,221.333 121.046,220.469 120.867,219.508C121.234,219.479 121.552,219.47 121.768,219.45C129.944,218.641 125.805,219.299 133.755,217.271C139.741,215.75 142.901,214.42 145.226,213.002C145.493,213.44 145.742,213.878 145.997,214.315C146.016,214.363 146.048,214.419 146.077,214.467C146.234,214.419 146.383,214.363 146.543,214.315C149.343,213.345 151.946,211.946 154.618,210.692C154.727,210.645 154.846,210.587 154.954,210.54C155.499,210.283 156.055,210.036 156.618,209.798C157.914,212.07 159.735,214.058 161.547,216.047C162.568,217.149 163.775,218.252 164.675,219.478C164.745,219.575 164.814,219.669 164.873,219.764C165.04,219.754 165.2,219.743 165.357,219.735C168.504,219.528 171.504,218.927 174.393,217.558C174.563,217.474 174.732,217.386 174.9,217.302C174.858,217.243 174.819,217.187 174.78,217.14C174.431,216.674 174.087,216.215 173.71,215.76C176.061,214.439 176.554,214.02 178.393,212.946C179.056,213.688 179.7,214.402 180.303,215.049C180.343,215.114 180.402,215.171 180.46,215.228C180.562,215.218 180.671,215.201 180.768,215.181C182.955,214.725 184.669,213.033 186.44,211.368C186.5,211.321 186.549,211.263 186.608,211.207C186.58,211.17 186.549,211.123 186.508,211.084C185.31,209.553 183.717,208.013 182.371,206.93C185.369,205.436 187.885,204.589 190.695,202.526C190.803,202.452 190.912,202.364 191.022,202.279C190.991,202.242 190.96,202.193 190.933,202.154C190.496,201.575 190.032,201.005 189.558,200.434C190.685,199.912 191.951,198.684 193.556,197.191C193.377,199.007 193.278,200.825 193.474,202.62C194.099,208.137 197.693,209.669 196.852,221.172C196.722,222.923 196.743,224.663 196.732,226.402C191.488,226.366 186.232,226.31 180.986,226.366Z" style="fill:rgb(201,29,110);fill-rule:nonzero;"/>
                    </g>
                    <g id="svga-group-head">
                        <g id="svga-group-faceshape-wrap">
                            <g id="svga-group-faceshape-single">
                                <path id="SvgjsPath3625" d="M158.785,76.762L158.78,76.762C158.768,76.815 148.063,121.135 139.861,133.712C133.409,143.607 111.695,159.252 100.021,159.27C88.35,159.29 66.584,143.711 60.103,133.837C51.861,121.285 41.017,77 41.005,76.946L41.004,76.946C39.706,72.035 39.01,66.88 39.002,61.564C38.949,28.09 66.155,0.919 99.773,0.867C133.394,0.815 160.686,27.9 160.737,61.374C160.746,66.69 160.068,71.846 158.785,76.762Z" style="fill:rgb(243,212,207);fill-rule:nonzero;"/>
                                <path id="SvgjsPath3626" d="M125.766,6.622C144.87,16.87 157.841,36.977 157.805,60.098C157.796,65.414 157.101,70.569 155.802,75.48L155.801,75.48C155.789,75.533 144.945,119.819 136.702,132.371C130.756,141.432 112.147,157.492 99.869,157.492C87.59,157.492 68.983,141.431 63.036,132.371C54.794,119.819 43.95,75.534 43.938,75.48L43.937,75.48C42.639,70.569 41.943,65.414 41.935,60.098C41.898,36.977 54.87,16.87 73.972,6.622C53.277,16.324 38.963,37.28 39.001,61.564C39.009,66.88 39.705,72.035 41.003,76.946L41.004,76.946C41.016,76.999 51.86,121.285 60.102,133.837C64.518,140.565 76.024,149.932 86.602,155.219C86.073,154.993 85.54,154.753 85.003,154.502C90.411,157.377 95.667,159.265 99.716,159.27C99.765,159.27 99.819,159.265 99.868,159.265C99.917,159.265 99.971,159.27 100.02,159.27C104.069,159.265 109.325,157.377 114.734,154.502C114.196,154.755 113.663,154.993 113.133,155.22C123.71,149.933 135.218,140.565 139.634,133.837C147.876,121.285 158.721,77 158.732,76.946L158.734,76.946C160.032,72.035 160.728,66.88 160.736,61.564C160.775,37.28 146.462,16.324 125.766,6.622Z" style="fill:rgb(235,195,189);fill-rule:nonzero;"/>
                                <path id="SvgjsPath3627" d="M158.785,76.762L158.78,76.762C158.768,76.815 148.063,121.135 139.861,133.712C133.409,143.607 111.695,159.252 100.021,159.27C88.35,159.29 66.584,143.711 60.103,133.837C51.861,121.285 41.017,77 41.005,76.946L41.004,76.946C39.706,72.035 39.01,66.88 39.002,61.564C38.949,28.09 66.155,0.919 99.773,0.867C133.394,0.815 160.686,27.9 160.737,61.374C160.746,66.69 160.068,71.846 158.785,76.762Z" style="fill:none;fill-rule:nonzero;stroke:rgb(197,121,109);stroke-width:1.5px;"/>
                            </g>
                        </g>
                        <g id="svga-group-mouth-single-move">
                            <g id="svga-group-mouth-single">
                                <path id="SvgjsPath3637" d="M100.002,141.435C95.844,141.435 94.869,138.203 94.869,138.203L105.136,138.203C105.136,138.202 103.659,141.435 100.002,141.435Z" style="fill:url(#_Linear2);fill-rule:nonzero;"/>
                                <path id="SvgjsPath3641" d="M87.536,132.96C90.292,132.009 93.775,129.335 95.968,129.237C97.101,129.186 98.319,130.107 99.542,130.403C100.393,130.61 102.806,129.247 103.672,129.237C105.944,129.215 109.998,132.008 112.441,132.96C112.576,133.015 112.441,132.96 112.441,132.96C112.441,132.96 107.385,138.981 99.989,138.981C91.618,138.98 87.536,132.96 87.536,132.96C87.536,132.96 87.399,133.01 87.536,132.96Z" style="fill:rgb(247,113,169);fill-rule:nonzero;stroke:rgb(232,83,145);stroke-width:0.75px;"/>
                                <path id="SvgjsPath3642" d="M112.808,132.902C112.621,132.826 112.202,132.874 112.055,132.881C111.751,132.897 111.509,132.764 110.841,132.752C110.099,132.74 106.896,132.484 105.838,132.414C103.709,132.271 102.014,133.08 99.99,133.08C97.965,133.08 96.122,132.197 93.994,132.34C92.937,132.412 89.881,132.735 89.137,132.752C88.474,132.771 88.214,132.885 87.906,132.872C87.763,132.865 87.311,132.822 87.135,132.922C86.988,133.008 87.045,133.481 87.162,133.605C87.447,133.903 88.559,133.372 89.121,133.385C89.898,133.402 92.964,133.335 94.038,133.264C96.119,133.122 97.974,134.085 99.99,134.085C102.006,134.085 103.715,133.196 105.796,133.336C106.867,133.408 110.077,133.4 110.856,133.385C111.419,133.371 112.62,133.834 112.908,133.605C113.043,133.495 112.972,132.969 112.808,132.902Z" style="fill:rgb(201,32,102);fill-rule:nonzero;"/>
                                <path id="SvgjsPath3643" d="M99.989,137.439C96.619,137.439 93.344,136.285 90.748,134.133C92.055,134.061 93.4,133.856 94.709,133.914C96.322,133.984 97.853,134.619 99.465,134.727C101.207,134.843 102.823,134.239 104.529,134.032C105.951,133.861 107.46,134.091 108.886,134.143C106.335,136.101 103.244,137.439 99.989,137.439ZM104.78,131.682C106.093,131.602 107.441,131.77 108.754,131.823C107.324,131.111 105.801,130.27 104.205,130.016C102.831,129.798 101.495,130.898 100.16,131.12C98.654,131.37 97.47,129.97 96,129.97C94.408,130.04 92.802,131.069 91.424,131.775C92.706,131.699 94.024,131.512 95.308,131.634C96.88,131.781 98.402,132.348 99.99,132.348C101.612,132.348 103.161,131.78 104.78,131.682Z" style="fill:rgb(255,142,189);fill-rule:nonzero;"/>
                                <path id="SvgjsPath3644" d="M99.941,136.486C97.912,136.486 95.934,135.785 94.234,134.485C94.614,134.448 94.998,134.419 95.367,134.419C95.484,134.419 95.601,134.422 95.718,134.428C96.327,134.461 96.927,134.636 97.564,134.822C98.182,135 98.82,135.185 99.487,135.241C99.619,135.253 99.751,135.257 99.882,135.257C100.701,135.257 101.478,135.053 102.23,134.858C102.707,134.732 103.158,134.613 103.622,134.545C103.875,134.505 104.149,134.487 104.459,134.487C104.727,134.487 105.003,134.501 105.277,134.521C103.862,135.572 102.03,136.486 99.941,136.486Z" style="fill:rgb(255,168,204);fill-rule:nonzero;"/>
                            </g>
                        </g>
                        <g id="svga-group-facehighlight-single">
                            <path id="SvgjsPath2772" d="M140.204,113.007C140.239,135.282 122.209,153.372 99.931,153.403C77.657,153.439 59.57,135.41 59.535,113.131C59.501,90.857 77.53,72.77 99.808,72.735C122.083,72.701 140.171,90.73 140.204,113.007Z" style="fill:url(#_Radial3);fill-rule:nonzero;"/>
                            <path id="SvgjsPath2776" d="M135,55.999C135,75.328 119.329,90.999 100,90.999C80.671,90.999 65,75.328 65,55.999C65,36.67 80.671,20.999 100,20.999C119.329,20.999 135,36.67 135,55.999Z" style="fill:url(#_Radial4);fill-rule:nonzero;"/>
                        </g>
                        <g id="svga-group-eyebrows-left-move">
                            <g id="svga-group-eyebrows-left-rotate">
                                <g id="svga-group-eyebrows-left">
                                    <path id="SvgjsPath2797" d="M74.799,69.068C70.374,68.593 53.547,72.782 53.547,72.782C53.547,72.782 70.336,66.042 77.304,67.115C82.492,67.913 91.701,72.192 90.01,74.454C88.649,76.275 84.408,70.1 74.799,69.068Z" style="fill:rgb(42,35,43);fill-rule:nonzero;"/>
                                </g>
                            </g>
                        </g>
                        <g id="svga-group-eyebrows-right-move">
                            <g id="svga-group-eyebrows-right-rotate">
                                <g id="svga-group-eyebrows-right">
                                    <path id="SvgjsPath2798" d="M109.731,74.187C108.018,71.895 117.323,67.877 123.277,67.383C130.394,66.793 146.191,71.468 146.191,71.468C146.191,71.468 130.291,68.84 125.814,69.362C115.998,70.506 111.11,76.031 109.731,74.187Z" style="fill:rgb(42,35,43);fill-rule:nonzero;"/>
                                </g>
                            </g>
                        </g>
                        <g id="svga-group-nose-single-move">
                            <g id="svga-group-nose-single">
                                <path id="SvgjsPath3648" d="M92.281,116.235C91.536,118.298 97.309,120.524 99.499,120.661C101.873,120.808 108.523,117.762 107.395,115.67C106.21,113.473 101.765,115.384 99.848,115.384C97.94,115.384 93.276,113.479 92.281,116.235Z" style="fill:rgb(228,179,171);fill-rule:nonzero;"/>
                                <path id="SvgjsPath3649" d="M102.207,117.221C101.964,116.699 103.401,115.888 103.955,115.728C104.732,115.502 106.46,115.966 106.393,116.559C106.333,117.08 104.79,116.39 104.288,116.537C103.767,116.687 102.435,117.712 102.207,117.221ZM95.214,116.742C95.92,116.742 96.967,117.199 97.159,116.799C97.388,116.32 95.599,115.734 95.073,115.799C94.639,115.851 93.082,116.757 93.296,117.137C93.496,117.49 94.284,116.742 95.214,116.742Z" style="fill:rgb(197,121,109);fill-rule:nonzero;"/>
                                <path id="SvgjsPath3650" d="M99.857,113.479C100.526,113.479 101.664,112.842 101.835,111.579C102.589,106.004 101.314,91.333 99.857,91.333C98.492,91.333 97.349,106.357 97.702,111.579C97.789,112.86 99.099,113.479 99.857,113.479" style="fill:white;fill-opacity:0.2;fill-rule:nonzero;"/>
                            </g>
                        </g>
                        <g id="svga-group-hair-front">
                            <path id="SvgjsPath3665" d="M51.396,214.38C35.673,189.275 30.075,199.47 33.724,171.923C28.515,162.512 24.349,153.153 21.533,143.099C15.935,121.618 21.665,107.834 26.675,92.151C21.889,26.813 59.341,-9.001 100.71,-9.001C132.99,-9.001 167.87,14.469 168.181,66.22C167.667,75.679 166.249,91.563 165.178,98.385C182.947,153.414 167.679,149.034 154.108,174.742C150.427,181.71 146.096,192.009 145.189,202.315C126.529,169.069 128.229,163.99 134.513,148.925C142.017,130.94 139.06,144.855 124.483,146.503C138.046,136.013 147.2,136.041 147.486,70.68C147.487,70.641 147.465,70.605 147.432,70.589C135.08,64.708 123.395,53.583 116.176,40.829C116.158,40.798 116.129,40.779 116.094,40.779L116.091,40.779C116.054,40.78 116.021,40.802 116.006,40.836C107.671,58.623 93.38,68.21 69.67,71.92C65.041,74.337 59.932,76.586 53.566,79.005C53.529,79.019 53.503,79.056 53.503,79.097C53.075,104.755 58.969,122.978 73.83,144.29C66.745,141.036 61.084,131.579 61.084,131.579C60.729,131.579 63.568,136.544 63.746,136.86C83.555,172.154 51.627,183.483 51.396,214.38Z" style="fill:rgb(42,35,43);fill-opacity:0.1;fill-rule:nonzero;"/>
                            <path id="SvgjsPath3666" d="M50.101,212.286C33.924,187.181 28.164,197.376 31.919,169.829C26.559,160.418 22.272,151.059 19.376,141.005C13.616,119.524 19.511,105.74 24.666,90.057C19.741,24.72 58.275,-11.095 100.841,-11.095C134.051,-11.095 169.94,12.375 170.26,64.126C169.733,73.585 168.276,89.469 167.171,96.291C185.454,151.32 169.744,146.94 155.781,172.648C151.992,179.616 147.539,189.915 146.606,200.221C127.404,166.975 129.155,161.896 135.622,146.831C143.34,128.846 138.575,142.715 125.301,145.608C139.255,135.118 148.674,133.947 148.969,68.586C148.97,68.547 148.947,68.511 148.911,68.495C136.202,62.614 124.182,51.489 116.755,38.735C116.737,38.704 116.704,38.685 116.669,38.685L116.665,38.685C116.628,38.686 116.595,38.708 116.579,38.742C108.002,56.529 93.298,66.116 68.904,69.826C64.14,72.243 58.884,74.492 52.335,76.911C52.296,76.925 52.271,76.962 52.27,77.003C51.829,102.66 57.894,121.884 73.184,143.196C65.862,137.777 60.071,129.485 60.071,129.485C59.705,129.485 62.627,134.45 62.809,134.766C83.189,170.061 50.338,181.39 50.101,212.286Z" style="fill:rgb(42,35,43);fill-rule:nonzero;"/>
                            <path id="SvgjsPath3667" d="M27.34,109.853C26.589,102.124 14.664,52.402 44.121,15.991C30.129,43.148 26.056,79.801 27.34,109.853ZM167.521,94.041C171.935,63.609 173.13,30.978 148.078,7.301C160.453,31.492 169.091,49.191 167.521,94.041ZM143.14,22.856C140.758,33.945 144.851,48.508 146.192,58.569C139.202,52.934 135.036,45 130.23,33.973C131.285,40.201 133.715,51.401 147.202,65.236C125.404,45.768 120.727,35.945 124.288,12.781C124.09,13.658 123.899,14.486 123.715,15.271C124.192,12.729 124.628,9.983 125,7C121.799,25 97.883,57.049 77.939,63.902C74.929,66.915 72.202,67.056 68.946,69.819C96.177,65.667 113.342,50.113 117.024,38.953C124.46,51.191 137.955,62.499 150.191,68.284C152.039,52.092 146.191,42.142 143.14,22.856ZM101.536,23.569C92.536,38.569 87.182,48.069 73.182,57.069C77.727,53.432 80.869,47.402 82.713,42.142C77.203,50.297 68.565,55.381 61,62C68.516,53.732 78.645,42.142 85.036,31.069C78.594,39.651 68.223,46.406 59,54.069C66.256,48.04 72,40.402 76,32.402C73.225,36.102 68.138,38.861 62,45C70.972,33.034 71.88,27.516 74.419,22.595C68.203,33.069 62.764,36.701 56.625,41.89C52.404,59.592 52.164,67.278 51.369,77.003C51.33,77.472 68.482,70.04 68.904,69.826C68.918,69.824 68.932,69.821 68.946,69.819C84.938,56.249 91.502,42.094 101.536,23.569ZM60,137C62.788,148.151 61.226,158.095 57.536,169.735C57.048,158.974 49.061,147.929 43.119,138.273C44.483,158.999 46.685,168.637 43.202,184.402C41.336,155.805 35.369,146.133 26.619,124.985C23.092,138.378 23.96,155.851 31.918,169.829C28.163,197.376 33.923,187.181 50.1,212.286C50.338,181.39 83.188,170.06 62.807,134.766C62.624,134.45 59.703,129.485 60.069,129.485C60.069,129.485 65.861,137.777 73.182,143.196C50.949,118.985 45.119,88.485 44.482,55.485C39.495,95.233 54,117 60,137ZM169.126,101.456C169.991,118.384 174.565,139.625 159.869,153.403C165.869,143.403 163,130 160,120C160.376,146.762 149.188,162.834 146.191,180.402C145.735,172.316 143.887,162.543 147.664,149.387C144.001,155.789 139.869,163.235 138.276,172.11C133.035,162.283 135.909,154.844 137.743,145.276C145.521,137.086 150.9,121.437 152.037,111.382C151.102,119.648 145.75,132.085 139.559,137.279C139.558,137.288 139.023,139.088 138.435,141.061C138.479,140.728 138.521,140.393 138.56,140.053C129.632,161.063 125.215,163.184 146.606,200.219C147.451,190.862 151.33,180.831 155.781,172.646C169.236,147.874 184.401,150.477 169.126,101.456Z" style="fill:rgb(27,20,28);fill-rule:nonzero;"/>
                            <path id="SvgjsPath3668" d="M155.339,79.777C159.608,62.363 153.044,35.562 149.675,30.333C154.928,38.481 161.974,60.465 155.339,79.777ZM159.441,87.699C159.899,85.336 173.536,58.964 150.447,21.785C171.332,59.802 159.905,85.303 159.441,87.699ZM34.086,55.382C35.086,54.935 41.447,8.123 82.515,-0.706C39.446,6.883 35.086,54.937 34.086,55.382ZM39.756,99.767C39.732,98.764 31.604,52.384 54.447,22.663C27.996,53.967 39.732,98.767 39.756,99.767ZM43.013,131.156C41.585,129.259 29.907,97.839 35.342,62.022C25.286,99.584 42.261,130.156 43.013,131.156ZM153.395,30.807C152.395,30.512 140.338,-4.21 115.548,-0.786C137.232,-2.015 152.395,30.509 153.395,30.807ZM132.763,48.797C132.763,48.797 123.344,34.026 126.759,9.715C123.607,24.555 123.938,34.813 132.763,48.797ZM135.424,37.302C137.992,44.462 143.528,52.19 144.45,52.801C143.449,52.138 134.79,39.46 132.766,18.574C132.946,24.843 133.284,31.334 135.424,37.302ZM88.142,57.415C96.135,49.645 113.978,42.012 124.115,5.041C113.238,39.193 96.597,49.196 88.142,57.415ZM88.167,27.009C95.158,20.332 97.661,13.487 97.574,7.063C96.858,13.51 93.367,22.043 88.167,27.009ZM78.146,30.338C78.523,30.325 79.479,29.201 79.749,28.965C87.726,22.006 91.374,16.384 92.137,6.729C90.966,17.738 79.148,30.304 78.146,30.338ZM76.803,28.359C76.803,28.359 85.033,18.697 87.989,5.051C84.859,15.938 76.803,28.359 76.803,28.359ZM56.403,153.735C56.984,152.735 58.328,133.461 48.783,125.495C54.788,131.589 56.983,152.734 56.403,153.735ZM56.42,153.725C55.96,145.96 48.87,139.807 47.43,130.078C47.966,142.486 55.625,146.906 56.42,153.725ZM41.095,160.402C40.136,158.161 44.818,147.874 30.782,126.119C42.215,146.698 40.633,159.322 41.095,160.402ZM41.115,159.081C39.929,154.702 42.021,145.333 36.79,130.092C39.524,140.203 39.581,153.409 41.115,159.081ZM150.024,131.289C145.916,139.363 137.501,144.956 139.686,165.064C139.485,163.211 139.846,161.123 139.991,159.274C141.948,134.321 148.663,153.545 156.037,107.032C154.253,114.17 152.895,125.648 150.024,131.289ZM147.729,167.729C148.1,166.273 148.074,164.632 148.332,163.143C150.514,150.529 155.323,143.762 155.743,123.399C154.781,139.88 147.521,153.505 147.729,167.729ZM165.107,141.027C165.576,137.899 171.932,133.085 167.103,108.082C169.849,133.741 165.568,137.951 165.107,141.027ZM165.108,141.058C165.546,140.058 168.217,123.13 161.457,110.442C166.176,120.715 165.547,140.058 165.108,141.058Z" style="fill:rgb(58,53,58);fill-rule:nonzero;"/>
                            <path id="SvgjsPath3669" d="M18.901,151.753C19.149,149.179 19.55,146.576 20.139,143.936C22.639,151.774 25.642,159.01 31.819,169.816C28.046,197.495 33.935,187.238 50.199,212.626C50.199,190.359 67.257,178.068 69.229,160.756C71.013,144.992 64.47,138.397 60.069,129.586C63.735,134.694 68.538,140.002 73.629,143.647C59.122,123.585 51.894,104.686 52.369,77.007C57.999,74.927 63.569,72.647 68.919,69.927C90.388,66.661 107.193,58.437 116.669,38.787C123.983,51.349 135.838,62.557 148.869,68.587C148.571,134.463 139.099,135 124.889,145.796C130.7,144.687 137.64,140.067 139.2,137.866C130.132,161.616 124.007,161.338 146.679,200.546C147.475,190.99 151.265,181.163 155.869,172.696C169.786,147.07 185.61,150.412 167.319,95.406C168.863,85.867 170.146,76.72 170.319,67.576C170.494,70.821 170.595,73.953 170.686,77.001L171.327,77.001C171.07,72.915 170.802,68.654 170.359,64.126C169.702,-42.282 14.894,-38.053 24.569,90.026C19.342,105.939 13.506,119.51 19.279,140.976C18.353,143.978 17.653,146.885 17.142,149.725C17.674,150.456 18.233,151.159 18.901,151.753ZM24.959,94.285C25.054,95.285 28.679,121.939 26.279,102.415C8.536,-41.931 192.536,-51.931 166.139,101.896C164.345,112.35 165.371,107.445 167.1,96.776C184.359,155.026 163.35,142.339 148.78,184.146C147.41,188.085 146.44,193.146 146.04,197.276C124.417,159.187 134.833,155.743 140.4,136.576C146.999,129.284 151.015,120.705 152.11,110.056C149.519,128.045 137.726,140.106 127.929,144.116C133.045,140.745 138.367,137.141 141.53,131.726C143.564,129.59 153.292,105.553 149.65,59.696C147.977,39.555 141.213,33.589 142.719,25.036C141.323,31.753 145.148,36.293 147.429,50.116C148.484,56.574 148.86,65.963 148.86,67.686C137.937,61.721 123.95,48.796 117.1,37.896C121.561,28.751 123.882,14.821 125.7,6.026C120.284,28.114 116.487,58.541 71.94,68.326C79.172,64.373 94.927,56.083 111.19,22.966C111.21,22.956 111.219,22.946 111.219,22.926C119.93,5.831 111.821,20.892 111.129,22.126C111.116,22.1 111.119,22.023 111.119,22.136C90.963,58.229 74.732,67.469 52.369,76.736C52.379,76.056 52.389,75.376 52.419,74.696C79.9,65.755 97.037,33.022 91.489,41.116C82.612,54.136 67.334,69.131 52.429,74.456C52.446,73.456 52.612,70.136 52.889,67.316C72.104,53.672 76.337,46.478 83.779,33.516C84.335,32.537 84.816,31.703 85.233,30.99C80.75,37.814 68.93,54.19 52.939,66.715C53.379,62.095 54.039,57.495 54.829,52.925C55.75,51.707 63.663,45.373 70.149,32.185C73.243,25.936 74.419,22.595 74.419,22.595C73.548,24.173 68.384,35.999 55.109,51.375C57.299,39.237 60.297,28.299 63.679,16.345C57.923,34.24 52.322,53.617 50.669,73.145C50.181,74.145 49.253,111.132 67.904,137.114C39.134,106.164 43.838,68.127 44.019,55.395C43.929,55.395 43.269,65.745 43.219,66.445C39.352,117.86 68.816,130.298 67.219,157.055C66.047,176.603 49.872,187.477 49.729,210.945C37.092,188.989 29.92,195.395 32.879,171.645C32.956,170.645 34.013,163.392 32.959,156.315C31.263,145.059 28.838,141.817 29.193,139.455C28.924,140.883 29.544,142.341 30.61,146.155C32.519,152.823 32.773,161.859 31.94,168.885C15.417,136.337 17.729,119.042 24.959,94.285Z" style="fill-rule:nonzero;"/>
                        </g>
                        <g id="svga-group-glasses-single-move">
                        </g>
                    </g>
                </g>
            </g>
        </g>
    </g>
    <defs>
        <linearGradient id="_Linear1" x1="0" y1="0" x2="1" y2="0" gradientUnits="userSpaceOnUse" gradientTransform="matrix(2.13817e-15,-34.919,34.919,2.13817e-15,99.98,171.27)"><stop offset="0" style="stop-color:rgb(228,179,171);stop-opacity:0.8"/><stop offset="0.7" style="stop-color:rgb(197,121,109);stop-opacity:1"/><stop offset="1" style="stop-color:rgb(197,121,109);stop-opacity:1"/></linearGradient>
        <linearGradient id="_Linear2" x1="0" y1="0" x2="1" y2="0" gradientUnits="userSpaceOnUse" gradientTransform="matrix(1.83697e-16,-3,3,1.83697e-16,100,141)"><stop offset="0" style="stop-color:rgb(235,195,189);stop-opacity:1"/><stop offset="0.1" style="stop-color:rgb(235,195,189);stop-opacity:1"/><stop offset="1" style="stop-color:rgb(228,179,171);stop-opacity:1"/></linearGradient>
        <radialGradient id="_Radial3" cx="0" cy="0" r="1" gradientUnits="userSpaceOnUse" gradientTransform="matrix(40,0,0,40,100,113)"><stop offset="0" style="stop-color:rgb(255,244,243);stop-opacity:0.5"/><stop offset="0.9" style="stop-color:rgb(243,212,207);stop-opacity:0"/><stop offset="1" style="stop-color:rgb(243,212,207);stop-opacity:0"/></radialGradient>
        <radialGradient id="_Radial4" cx="0" cy="0" r="1" gradientUnits="userSpaceOnUse" gradientTransform="matrix(36,0,0,36,100,57)"><stop offset="0" style="stop-color:rgb(255,244,243);stop-opacity:0.5"/><stop offset="0.9" style="stop-color:rgb(243,212,207);stop-opacity:0"/><stop offset="1" style="stop-color:rgb(243,212,207);stop-opacity:0"/></radialGradient>
    </defs>
</svg>
