<?xml version="1.0" encoding="UTF-8" standalone="no"?>
<!DOCTYPE svg PUBLIC "-//W3C//DTD SVG 1.1//EN" "http://www.w3.org/Graphics/SVG/1.1/DTD/svg11.dtd">
<svg width="100%" height="100%" viewBox="0 0 3334 3334" version="1.1" xmlns="http://www.w3.org/2000/svg" xmlns:xlink="http://www.w3.org/1999/xlink" xml:space="preserve" xmlns:serif="http://www.serif.com/" style="fill-rule:evenodd;clip-rule:evenodd;stroke-linejoin:round;stroke-miterlimit:2;">
    <g transform="matrix(5.55556,0,0,5.55556,0,0)">
        <g id="svga-group-wrapper" transform="matrix(3,0,0,3,0,0)">
            <g id="svga-group-backs-single">
                <rect id="SvgjsPath4519" x="-25" y="-25" width="250" height="250" style="fill:rgb(84,121,128);fill-rule:nonzero;"/>
                <path id="SvgjsPath4520" d="M103,-37.266L99.131,71.999L96.536,-37.598L103,-37.266ZM73.203,-36.265L91.025,71.904L79.65,-36.835L73.203,-36.265ZM66.869,-16.598L91.446,73.323L68.869,-17.931L66.869,-16.598ZM26.203,-29.931L87.817,74.773L32.243,-32.257L26.203,-29.931ZM23.545,-16.454L83.823,75.114L25.536,-20.265L23.545,-16.454ZM-11.865,-28.757L45.335,32.775L-6.7,-32.658L-11.865,-28.757ZM-15.464,-0.265L78.609,81.909L-11.131,-6.265L-15.464,-0.265ZM-30.131,2.069L55.536,66.736L-29.574,-0.77L-30.131,2.069ZM-25.19,42.794L74.452,88.506L-22.057,37.131L-25.19,42.794ZM-44.131,43.402L56.536,85.069L-44.797,39.735L-44.131,43.402ZM-54.775,75.518L53.607,91.994L-55.992,72.544L-54.775,75.518ZM-44.102,97.566L65.518,98.798L-43.545,91.118L-44.102,97.566ZM-58.131,52.069L30.869,79.402L-58.798,48.402L-58.131,52.069ZM79.65,236.833L91.025,128.094L73.203,236.263L79.65,236.833ZM68.869,217.929L91.446,126.675L66.869,216.596L68.869,217.929ZM30.826,240.293L78.436,148.901L24.786,237.966L30.826,240.293ZM25.536,220.263L83.823,124.884L23.545,216.452L25.536,220.263ZM-11.212,239.563L56.058,153.375L-16.377,235.662L-11.212,239.563ZM-11.131,206.263L78.609,118.089L-15.464,200.263L-11.131,206.263ZM-29.574,200.769L55.536,133.263L-30.131,197.929L-29.574,200.769ZM-22.058,162.867L74.451,111.491L-25.191,157.204L-22.058,162.867ZM-44.797,160.263L56.536,114.929L-44.131,156.596L-44.797,160.263ZM-55.992,127.454L53.607,108.005L-54.775,124.48L-55.992,127.454ZM-58.797,151.597L30.87,120.596L-58.13,147.929L-58.797,151.597ZM120.438,-43.631L106.913,64.863L121.512,-24.616L120.438,-43.631ZM141.813,-31.87L113.32,73.685L148.087,-30.283L141.813,-31.87ZM149.456,-11.494L112.68,75.019L151.219,-9.86L149.456,-11.494ZM187.892,-19.824L116.033,77.027L193.487,-16.569L187.892,-19.824ZM192.61,-6.919L119.922,77.998L193.971,-2.84L192.61,-6.919ZM226.479,-19.459L164.641,42.305L230.959,-14.788L226.479,-19.459ZM226.59,12.723L123.991,85.534L229.915,19.335L226.59,12.723ZM243.926,21.075L149.181,74.215L244.027,23.967L243.926,21.075ZM230.489,57.303L127.048,92.708L232.683,63.393L230.489,57.303ZM252.527,63.484L145.283,92.157L251.287,66.999L252.527,63.484ZM255.805,96.376L146.182,95.439L258.372,97.653L255.805,96.376ZM239.29,109.779L130.391,100.049L238.817,116.234L239.29,109.779ZM241.298,126.083L173.778,116.996L240.058,129.599L241.298,126.083ZM104.827,238.789L104.401,129.162L98.37,238.328L104.827,238.789ZM114.202,220.376L104.211,127.694L112.017,221.375L114.202,220.376ZM162.61,237.612L108.023,126.839L156.277,238.951L162.61,237.612ZM167.971,224.657L112.022,127.136L165.4,228.103L167.971,224.657ZM198.084,217.32L118.248,121.255L192.853,222.556L198.084,217.32ZM212.936,217.344L138.621,139.9L211.935,220.059L212.936,217.344ZM214.521,176.351L123.399,115.401L210.53,181.446L214.521,176.351ZM233.319,178.757L140.543,121.639L233.395,182.484L233.319,178.757ZM248.926,148.738L144.533,115.267L249.656,151.868L248.926,148.738ZM248.518,172.422L164.985,131.309L248.593,176.15L248.518,172.422Z" style="fill:rgb(63,105,113);fill-rule:nonzero;"/>
            </g>
        </g>
    </g>
</svg>
